<?xml version="1.0" encoding="UTF-8"?>
<svg width="1280px" height="700px" viewBox="0 0 1280 700" version="1.1" xmlns="http://www.w3.org/2000/svg" xmlns:xlink="http://www.w3.org/1999/xlink">
    <!-- Generator: Sketch 47.1 (45422) - http://www.bohemiancoding.com/sketch -->
    <title>Consultancy form_dots SVG_full artboard_20141124</title>
    <desc>Created with Sketch.</desc>
    <defs></defs>
    <g id="Final---Version-1" stroke="none" stroke-width="1" fill="none" fill-rule="evenodd">
        <g id="Consultancy-form_dots-SVG_full-artboard_20141124" fill-rule="nonzero" fill="#CCCCCE">
            <g id="Enq-form-dots" transform="translate(265.000000, 226.000000)">
                <ellipse id="Oval" transform="translate(1.733333, 227.364583) rotate(-90.000000) translate(-1.733333, -227.364583) " cx="1.73333333" cy="227.364583" rx="1.01388889" ry="1.06666667"></ellipse>
                <ellipse id="Oval" transform="translate(1.733333, 212.409722) rotate(-90.000000) translate(-1.733333, -212.409722) " cx="1.73333333" cy="212.409722" rx="1.01388889" ry="1.06666667"></ellipse>
                <ellipse id="Oval" transform="translate(1.733333, 197.328125) rotate(-90.000000) translate(-1.733333, -197.328125) " cx="1.73333333" cy="197.328125" rx="1.01388889" ry="1.06666667"></ellipse>
                <ellipse id="Oval" transform="translate(1.733333, 182.246528) rotate(-90.000000) translate(-1.733333, -182.246528) " cx="1.73333333" cy="182.246528" rx="1.01388889" ry="1.06666667"></ellipse>
                <ellipse id="Oval" transform="translate(1.733333, 167.291667) rotate(-90.000000) translate(-1.733333, -167.291667) " cx="1.73333333" cy="167.291667" rx="1.01388889" ry="1.06666667"></ellipse>
                <ellipse id="Oval" transform="translate(1.733333, 152.210069) rotate(-90.000000) translate(-1.733333, -152.210069) " cx="1.73333333" cy="152.210069" rx="1.01388889" ry="1.06666667"></ellipse>
                <ellipse id="Oval" transform="translate(1.733333, 137.128472) rotate(-90.000000) translate(-1.733333, -137.128472) " cx="1.73333333" cy="137.128472" rx="1.01388889" ry="1.06666667"></ellipse>
                <ellipse id="Oval" transform="translate(1.733333, 122.173611) rotate(-90.000000) translate(-1.733333, -122.173611) " cx="1.73333333" cy="122.173611" rx="1.01388889" ry="1.06666667"></ellipse>
                <ellipse id="Oval" transform="translate(1.733333, 107.092014) rotate(-90.000000) translate(-1.733333, -107.092014) " cx="1.73333333" cy="107.092014" rx="1.01388889" ry="1.06666667"></ellipse>
                <ellipse id="Oval" transform="translate(1.733333, 92.010417) rotate(-90.000000) translate(-1.733333, -92.010417) " cx="1.73333333" cy="92.0104167" rx="1.01388889" ry="1.06666667"></ellipse>
                <ellipse id="Oval" transform="translate(1.733333, 76.928819) rotate(-90.000000) translate(-1.733333, -76.928819) " cx="1.73333333" cy="76.9288194" rx="1.01388889" ry="1.06666667"></ellipse>
                <ellipse id="Oval" transform="translate(1.733333, 61.973958) rotate(-90.000000) translate(-1.733333, -61.973958) " cx="1.73333333" cy="61.9739583" rx="1.01388889" ry="1.06666667"></ellipse>
                <ellipse id="Oval" transform="translate(1.733333, 46.892361) rotate(-90.000000) translate(-1.733333, -46.892361) " cx="1.73333333" cy="46.8923611" rx="1.01388889" ry="1.06666667"></ellipse>
                <ellipse id="Oval" transform="translate(1.733333, 31.810764) rotate(-90.000000) translate(-1.733333, -31.810764) " cx="1.73333333" cy="31.8107639" rx="1.01388889" ry="1.06666667"></ellipse>
                <ellipse id="Oval" transform="translate(1.733333, 16.855903) rotate(-90.000000) translate(-1.733333, -16.855903) " cx="1.73333333" cy="16.8559028" rx="1.01388889" ry="1.06666667"></ellipse>
                <ellipse id="Oval" transform="translate(1.733333, 1.774306) rotate(-90.000000) translate(-1.733333, -1.774306) " cx="1.73333333" cy="1.77430556" rx="1.01388889" ry="1.06666667"></ellipse>
                <ellipse id="Oval" transform="translate(17.133333, 227.364583) rotate(-90.000000) translate(-17.133333, -227.364583) " cx="17.1333333" cy="227.364583" rx="1.01388889" ry="1.06666667"></ellipse>
                <ellipse id="Oval" transform="translate(17.133333, 212.409722) rotate(-90.000000) translate(-17.133333, -212.409722) " cx="17.1333333" cy="212.409722" rx="1.01388889" ry="1.06666667"></ellipse>
                <ellipse id="Oval" transform="translate(17.133333, 197.328125) rotate(-90.000000) translate(-17.133333, -197.328125) " cx="17.1333333" cy="197.328125" rx="1.01388889" ry="1.06666667"></ellipse>
                <ellipse id="Oval" transform="translate(17.133333, 182.246528) rotate(-90.000000) translate(-17.133333, -182.246528) " cx="17.1333333" cy="182.246528" rx="1.01388889" ry="1.06666667"></ellipse>
                <ellipse id="Oval" transform="translate(17.133333, 167.291667) rotate(-90.000000) translate(-17.133333, -167.291667) " cx="17.1333333" cy="167.291667" rx="1.01388889" ry="1.06666667"></ellipse>
                <ellipse id="Oval" transform="translate(17.133333, 152.210069) rotate(-90.000000) translate(-17.133333, -152.210069) " cx="17.1333333" cy="152.210069" rx="1.01388889" ry="1.06666667"></ellipse>
                <ellipse id="Oval" transform="translate(17.133333, 137.128472) rotate(-90.000000) translate(-17.133333, -137.128472) " cx="17.1333333" cy="137.128472" rx="1.01388889" ry="1.06666667"></ellipse>
                <ellipse id="Oval" transform="translate(17.133333, 122.173611) rotate(-90.000000) translate(-17.133333, -122.173611) " cx="17.1333333" cy="122.173611" rx="1.01388889" ry="1.06666667"></ellipse>
                <ellipse id="Oval" transform="translate(17.133333, 107.092014) rotate(-90.000000) translate(-17.133333, -107.092014) " cx="17.1333333" cy="107.092014" rx="1.01388889" ry="1.06666667"></ellipse>
                <ellipse id="Oval" transform="translate(17.133333, 92.010417) rotate(-90.000000) translate(-17.133333, -92.010417) " cx="17.1333333" cy="92.0104167" rx="1.01388889" ry="1.06666667"></ellipse>
                <ellipse id="Oval" transform="translate(17.133333, 76.928819) rotate(-90.000000) translate(-17.133333, -76.928819) " cx="17.1333333" cy="76.9288194" rx="1.01388889" ry="1.06666667"></ellipse>
                <ellipse id="Oval" transform="translate(17.133333, 61.973958) rotate(-90.000000) translate(-17.133333, -61.973958) " cx="17.1333333" cy="61.9739583" rx="1.01388889" ry="1.06666667"></ellipse>
                <ellipse id="Oval" transform="translate(17.133333, 46.892361) rotate(-90.000000) translate(-17.133333, -46.892361) " cx="17.1333333" cy="46.8923611" rx="1.01388889" ry="1.06666667"></ellipse>
                <ellipse id="Oval" transform="translate(17.133333, 31.810764) rotate(-90.000000) translate(-17.133333, -31.810764) " cx="17.1333333" cy="31.8107639" rx="1.01388889" ry="1.06666667"></ellipse>
                <ellipse id="Oval" transform="translate(17.133333, 16.855903) rotate(-90.000000) translate(-17.133333, -16.855903) " cx="17.1333333" cy="16.8559028" rx="1.01388889" ry="1.06666667"></ellipse>
                <ellipse id="Oval" transform="translate(17.133333, 1.774306) rotate(-90.000000) translate(-17.133333, -1.774306) " cx="17.1333333" cy="1.77430556" rx="1.01388889" ry="1.06666667"></ellipse>
                <ellipse id="Oval" transform="translate(31.500000, 227.364583) rotate(-90.000000) translate(-31.500000, -227.364583) " cx="31.5" cy="227.364583" rx="1.01388889" ry="1.2"></ellipse>
                <ellipse id="Oval" transform="translate(31.500000, 212.409722) rotate(-90.000000) translate(-31.500000, -212.409722) " cx="31.5" cy="212.409722" rx="1.01388889" ry="1.2"></ellipse>
                <ellipse id="Oval" transform="translate(31.500000, 197.328125) rotate(-90.000000) translate(-31.500000, -197.328125) " cx="31.5" cy="197.328125" rx="1.01388889" ry="1.2"></ellipse>
                <ellipse id="Oval" transform="translate(31.500000, 182.246528) rotate(-90.000000) translate(-31.500000, -182.246528) " cx="31.5" cy="182.246528" rx="1.01388889" ry="1.2"></ellipse>
                <ellipse id="Oval" transform="translate(31.500000, 167.291667) rotate(-90.000000) translate(-31.500000, -167.291667) " cx="31.5" cy="167.291667" rx="1.01388889" ry="1.2"></ellipse>
                <ellipse id="Oval" transform="translate(31.500000, 152.210069) rotate(-90.000000) translate(-31.500000, -152.210069) " cx="31.5" cy="152.210069" rx="1.01388889" ry="1.2"></ellipse>
                <ellipse id="Oval" transform="translate(31.500000, 137.128472) rotate(-90.000000) translate(-31.500000, -137.128472) " cx="31.5" cy="137.128472" rx="1.01388889" ry="1.2"></ellipse>
                <ellipse id="Oval" transform="translate(31.500000, 122.173611) rotate(-90.000000) translate(-31.500000, -122.173611) " cx="31.5" cy="122.173611" rx="1.01388889" ry="1.2"></ellipse>
                <ellipse id="Oval" transform="translate(31.500000, 107.092014) rotate(-90.000000) translate(-31.500000, -107.092014) " cx="31.5" cy="107.092014" rx="1.01388889" ry="1.2"></ellipse>
                <ellipse id="Oval" transform="translate(31.500000, 92.010417) rotate(-90.000000) translate(-31.500000, -92.010417) " cx="31.5" cy="92.0104167" rx="1.01388889" ry="1.2"></ellipse>
                <ellipse id="Oval" transform="translate(31.500000, 76.928819) rotate(-90.000000) translate(-31.500000, -76.928819) " cx="31.5" cy="76.9288194" rx="1.01388889" ry="1.2"></ellipse>
                <ellipse id="Oval" transform="translate(31.500000, 61.973958) rotate(-90.000000) translate(-31.500000, -61.973958) " cx="31.5" cy="61.9739583" rx="1.01388889" ry="1.2"></ellipse>
                <ellipse id="Oval" transform="translate(31.500000, 46.892361) rotate(-90.000000) translate(-31.500000, -46.892361) " cx="31.5" cy="46.8923611" rx="1.01388889" ry="1.2"></ellipse>
                <ellipse id="Oval" transform="translate(31.500000, 31.810764) rotate(-90.000000) translate(-31.500000, -31.810764) " cx="31.5" cy="31.8107639" rx="1.01388889" ry="1.2"></ellipse>
                <ellipse id="Oval" transform="translate(31.500000, 16.855903) rotate(-90.000000) translate(-31.500000, -16.855903) " cx="31.5" cy="16.8559028" rx="1.01388889" ry="1.2"></ellipse>
                <ellipse id="Oval" transform="translate(31.500000, 1.774306) rotate(-90.000000) translate(-31.500000, -1.774306) " cx="31.5" cy="1.77430556" rx="1.01388889" ry="1.2"></ellipse>
                <ellipse id="Oval" transform="translate(46.866667, 227.364583) rotate(-90.000000) translate(-46.866667, -227.364583) " cx="46.8666667" cy="227.364583" rx="1.01388889" ry="1.06666667"></ellipse>
                <ellipse id="Oval" transform="translate(46.866667, 212.409722) rotate(-90.000000) translate(-46.866667, -212.409722) " cx="46.8666667" cy="212.409722" rx="1.01388889" ry="1.06666667"></ellipse>
                <ellipse id="Oval" transform="translate(46.866667, 197.328125) rotate(-90.000000) translate(-46.866667, -197.328125) " cx="46.8666667" cy="197.328125" rx="1.01388889" ry="1.06666667"></ellipse>
                <ellipse id="Oval" transform="translate(46.866667, 182.246528) rotate(-90.000000) translate(-46.866667, -182.246528) " cx="46.8666667" cy="182.246528" rx="1.01388889" ry="1.06666667"></ellipse>
                <ellipse id="Oval" transform="translate(46.866667, 167.291667) rotate(-90.000000) translate(-46.866667, -167.291667) " cx="46.8666667" cy="167.291667" rx="1.01388889" ry="1.06666667"></ellipse>
                <ellipse id="Oval" transform="translate(46.866667, 152.210069) rotate(-90.000000) translate(-46.866667, -152.210069) " cx="46.8666667" cy="152.210069" rx="1.01388889" ry="1.06666667"></ellipse>
                <ellipse id="Oval" transform="translate(46.866667, 137.128472) rotate(-90.000000) translate(-46.866667, -137.128472) " cx="46.8666667" cy="137.128472" rx="1.01388889" ry="1.06666667"></ellipse>
                <ellipse id="Oval" transform="translate(46.866667, 122.173611) rotate(-90.000000) translate(-46.866667, -122.173611) " cx="46.8666667" cy="122.173611" rx="1.01388889" ry="1.06666667"></ellipse>
                <ellipse id="Oval" transform="translate(46.866667, 107.092014) rotate(-90.000000) translate(-46.866667, -107.092014) " cx="46.8666667" cy="107.092014" rx="1.01388889" ry="1.06666667"></ellipse>
                <ellipse id="Oval" transform="translate(46.866667, 92.010417) rotate(-90.000000) translate(-46.866667, -92.010417) " cx="46.8666667" cy="92.0104167" rx="1.01388889" ry="1.06666667"></ellipse>
                <ellipse id="Oval" transform="translate(46.866667, 76.928819) rotate(-90.000000) translate(-46.866667, -76.928819) " cx="46.8666667" cy="76.9288194" rx="1.01388889" ry="1.06666667"></ellipse>
                <ellipse id="Oval" transform="translate(46.866667, 61.973958) rotate(-90.000000) translate(-46.866667, -61.973958) " cx="46.8666667" cy="61.9739583" rx="1.01388889" ry="1.06666667"></ellipse>
                <ellipse id="Oval" transform="translate(46.866667, 46.892361) rotate(-90.000000) translate(-46.866667, -46.892361) " cx="46.8666667" cy="46.8923611" rx="1.01388889" ry="1.06666667"></ellipse>
                <ellipse id="Oval" transform="translate(46.866667, 31.810764) rotate(-90.000000) translate(-46.866667, -31.810764) " cx="46.8666667" cy="31.8107639" rx="1.01388889" ry="1.06666667"></ellipse>
                <ellipse id="Oval" transform="translate(46.866667, 16.855903) rotate(-90.000000) translate(-46.866667, -16.855903) " cx="46.8666667" cy="16.8559028" rx="1.01388889" ry="1.06666667"></ellipse>
                <ellipse id="Oval" transform="translate(46.866667, 1.774306) rotate(-90.000000) translate(-46.866667, -1.774306) " cx="46.8666667" cy="1.77430556" rx="1.01388889" ry="1.06666667"></ellipse>
                <ellipse id="Oval" transform="translate(62.200000, 227.364583) rotate(-90.000000) translate(-62.200000, -227.364583) " cx="62.2" cy="227.364583" rx="1.01388889" ry="1.2"></ellipse>
                <ellipse id="Oval" transform="translate(62.200000, 212.409722) rotate(-90.000000) translate(-62.200000, -212.409722) " cx="62.2" cy="212.409722" rx="1.01388889" ry="1.2"></ellipse>
                <ellipse id="Oval" transform="translate(62.200000, 197.328125) rotate(-90.000000) translate(-62.200000, -197.328125) " cx="62.2" cy="197.328125" rx="1.01388889" ry="1.2"></ellipse>
                <ellipse id="Oval" transform="translate(62.200000, 182.246528) rotate(-90.000000) translate(-62.200000, -182.246528) " cx="62.2" cy="182.246528" rx="1.01388889" ry="1.2"></ellipse>
                <ellipse id="Oval" transform="translate(62.200000, 167.291667) rotate(-90.000000) translate(-62.200000, -167.291667) " cx="62.2" cy="167.291667" rx="1.01388889" ry="1.2"></ellipse>
                <ellipse id="Oval" transform="translate(62.200000, 152.210069) rotate(-90.000000) translate(-62.200000, -152.210069) " cx="62.2" cy="152.210069" rx="1.01388889" ry="1.2"></ellipse>
                <ellipse id="Oval" transform="translate(62.200000, 137.128472) rotate(-90.000000) translate(-62.200000, -137.128472) " cx="62.2" cy="137.128472" rx="1.01388889" ry="1.2"></ellipse>
                <ellipse id="Oval" transform="translate(62.200000, 122.173611) rotate(-90.000000) translate(-62.200000, -122.173611) " cx="62.2" cy="122.173611" rx="1.01388889" ry="1.2"></ellipse>
                <ellipse id="Oval" transform="translate(62.200000, 107.092014) rotate(-90.000000) translate(-62.200000, -107.092014) " cx="62.2" cy="107.092014" rx="1.01388889" ry="1.2"></ellipse>
                <ellipse id="Oval" transform="translate(62.200000, 92.010417) rotate(-90.000000) translate(-62.200000, -92.010417) " cx="62.2" cy="92.0104167" rx="1.01388889" ry="1.2"></ellipse>
                <ellipse id="Oval" transform="translate(62.200000, 76.928819) rotate(-90.000000) translate(-62.200000, -76.928819) " cx="62.2" cy="76.9288194" rx="1.01388889" ry="1.2"></ellipse>
                <ellipse id="Oval" transform="translate(62.200000, 61.973958) rotate(-90.000000) translate(-62.200000, -61.973958) " cx="62.2" cy="61.9739583" rx="1.01388889" ry="1.2"></ellipse>
                <ellipse id="Oval" transform="translate(62.200000, 46.892361) rotate(-90.000000) translate(-62.200000, -46.892361) " cx="62.2" cy="46.8923611" rx="1.01388889" ry="1.2"></ellipse>
                <ellipse id="Oval" transform="translate(62.200000, 31.810764) rotate(-90.000000) translate(-62.200000, -31.810764) " cx="62.2" cy="31.8107639" rx="1.01388889" ry="1.2"></ellipse>
                <ellipse id="Oval" transform="translate(62.200000, 16.855903) rotate(-90.000000) translate(-62.200000, -16.855903) " cx="62.2" cy="16.8559028" rx="1.01388889" ry="1.2"></ellipse>
                <ellipse id="Oval" transform="translate(62.200000, 1.774306) rotate(-90.000000) translate(-62.200000, -1.774306) " cx="62.2" cy="1.77430556" rx="1.01388889" ry="1.2"></ellipse>
                <ellipse id="Oval" transform="translate(76.800000, 227.364583) rotate(-90.000000) translate(-76.800000, -227.364583) " cx="76.8" cy="227.364583" rx="1.01388889" ry="1.2"></ellipse>
                <ellipse id="Oval" transform="translate(76.800000, 212.409722) rotate(-90.000000) translate(-76.800000, -212.409722) " cx="76.8" cy="212.409722" rx="1.01388889" ry="1.2"></ellipse>
                <ellipse id="Oval" transform="translate(76.800000, 197.328125) rotate(-90.000000) translate(-76.800000, -197.328125) " cx="76.8" cy="197.328125" rx="1.01388889" ry="1.2"></ellipse>
                <ellipse id="Oval" transform="translate(76.800000, 182.246528) rotate(-90.000000) translate(-76.800000, -182.246528) " cx="76.8" cy="182.246528" rx="1.01388889" ry="1.2"></ellipse>
                <ellipse id="Oval" transform="translate(76.800000, 167.291667) rotate(-90.000000) translate(-76.800000, -167.291667) " cx="76.8" cy="167.291667" rx="1.01388889" ry="1.2"></ellipse>
                <ellipse id="Oval" transform="translate(76.800000, 152.210069) rotate(-90.000000) translate(-76.800000, -152.210069) " cx="76.8" cy="152.210069" rx="1.01388889" ry="1.2"></ellipse>
                <ellipse id="Oval" transform="translate(76.800000, 137.128472) rotate(-90.000000) translate(-76.800000, -137.128472) " cx="76.8" cy="137.128472" rx="1.01388889" ry="1.2"></ellipse>
                <ellipse id="Oval" transform="translate(76.800000, 122.173611) rotate(-90.000000) translate(-76.800000, -122.173611) " cx="76.8" cy="122.173611" rx="1.01388889" ry="1.2"></ellipse>
                <ellipse id="Oval" transform="translate(76.800000, 107.092014) rotate(-90.000000) translate(-76.800000, -107.092014) " cx="76.8" cy="107.092014" rx="1.01388889" ry="1.2"></ellipse>
                <ellipse id="Oval" transform="translate(76.800000, 92.010417) rotate(-90.000000) translate(-76.800000, -92.010417) " cx="76.8" cy="92.0104167" rx="1.01388889" ry="1.2"></ellipse>
                <ellipse id="Oval" transform="translate(76.800000, 76.928819) rotate(-90.000000) translate(-76.800000, -76.928819) " cx="76.8" cy="76.9288194" rx="1.01388889" ry="1.2"></ellipse>
                <ellipse id="Oval" transform="translate(76.800000, 61.973958) rotate(-90.000000) translate(-76.800000, -61.973958) " cx="76.8" cy="61.9739583" rx="1.01388889" ry="1.2"></ellipse>
                <ellipse id="Oval" transform="translate(76.800000, 46.892361) rotate(-90.000000) translate(-76.800000, -46.892361) " cx="76.8" cy="46.8923611" rx="1.01388889" ry="1.2"></ellipse>
                <ellipse id="Oval" transform="translate(76.800000, 31.810764) rotate(-90.000000) translate(-76.800000, -31.810764) " cx="76.8" cy="31.8107639" rx="1.01388889" ry="1.2"></ellipse>
                <ellipse id="Oval" transform="translate(76.800000, 16.855903) rotate(-90.000000) translate(-76.800000, -16.855903) " cx="76.8" cy="16.8559028" rx="1.01388889" ry="1.2"></ellipse>
                <ellipse id="Oval" transform="translate(76.800000, 1.774306) rotate(-90.000000) translate(-76.800000, -1.774306) " cx="76.8" cy="1.77430556" rx="1.01388889" ry="1.2"></ellipse>
                <ellipse id="Oval" transform="translate(92.000000, 227.364583) rotate(-90.000000) translate(-92.000000, -227.364583) " cx="92" cy="227.364583" rx="1.01388889" ry="1.06666667"></ellipse>
                <ellipse id="Oval" transform="translate(92.000000, 212.409722) rotate(-90.000000) translate(-92.000000, -212.409722) " cx="92" cy="212.409722" rx="1.01388889" ry="1.06666667"></ellipse>
                <ellipse id="Oval" transform="translate(92.000000, 197.328125) rotate(-90.000000) translate(-92.000000, -197.328125) " cx="92" cy="197.328125" rx="1.01388889" ry="1.06666667"></ellipse>
                <ellipse id="Oval" transform="translate(92.000000, 182.246528) rotate(-90.000000) translate(-92.000000, -182.246528) " cx="92" cy="182.246528" rx="1.01388889" ry="1.06666667"></ellipse>
                <ellipse id="Oval" transform="translate(92.000000, 167.291667) rotate(-90.000000) translate(-92.000000, -167.291667) " cx="92" cy="167.291667" rx="1.01388889" ry="1.06666667"></ellipse>
                <ellipse id="Oval" transform="translate(92.000000, 152.210069) rotate(-90.000000) translate(-92.000000, -152.210069) " cx="92" cy="152.210069" rx="1.01388889" ry="1.06666667"></ellipse>
                <ellipse id="Oval" transform="translate(92.000000, 137.128472) rotate(-90.000000) translate(-92.000000, -137.128472) " cx="92" cy="137.128472" rx="1.01388889" ry="1.06666667"></ellipse>
                <ellipse id="Oval" transform="translate(92.000000, 122.173611) rotate(-90.000000) translate(-92.000000, -122.173611) " cx="92" cy="122.173611" rx="1.01388889" ry="1.06666667"></ellipse>
                <ellipse id="Oval" transform="translate(92.000000, 107.092014) rotate(-90.000000) translate(-92.000000, -107.092014) " cx="92" cy="107.092014" rx="1.01388889" ry="1.06666667"></ellipse>
                <ellipse id="Oval" transform="translate(92.000000, 92.010417) rotate(-90.000000) translate(-92.000000, -92.010417) " cx="92" cy="92.0104167" rx="1.01388889" ry="1.06666667"></ellipse>
                <ellipse id="Oval" transform="translate(92.000000, 76.928819) rotate(-90.000000) translate(-92.000000, -76.928819) " cx="92" cy="76.9288194" rx="1.01388889" ry="1.06666667"></ellipse>
                <ellipse id="Oval" transform="translate(92.000000, 61.973958) rotate(-90.000000) translate(-92.000000, -61.973958) " cx="92" cy="61.9739583" rx="1.01388889" ry="1.06666667"></ellipse>
                <ellipse id="Oval" transform="translate(92.000000, 46.892361) rotate(-90.000000) translate(-92.000000, -46.892361) " cx="92" cy="46.8923611" rx="1.01388889" ry="1.06666667"></ellipse>
                <ellipse id="Oval" transform="translate(92.000000, 31.810764) rotate(-90.000000) translate(-92.000000, -31.810764) " cx="92" cy="31.8107639" rx="1.01388889" ry="1.06666667"></ellipse>
                <ellipse id="Oval" transform="translate(92.000000, 16.855903) rotate(-90.000000) translate(-92.000000, -16.855903) " cx="92" cy="16.8559028" rx="1.01388889" ry="1.06666667"></ellipse>
                <ellipse id="Oval" transform="translate(92.000000, 1.774306) rotate(-90.000000) translate(-92.000000, -1.774306) " cx="92" cy="1.77430556" rx="1.01388889" ry="1.06666667"></ellipse>
                <ellipse id="Oval" transform="translate(107.350000, 227.364583) rotate(-90.000000) translate(-107.350000, -227.364583) " cx="107.35" cy="227.364583" rx="1.01388889" ry="1.2"></ellipse>
                <ellipse id="Oval" transform="translate(107.350000, 212.409722) rotate(-90.000000) translate(-107.350000, -212.409722) " cx="107.35" cy="212.409722" rx="1.01388889" ry="1.2"></ellipse>
                <ellipse id="Oval" transform="translate(107.350000, 197.328125) rotate(-90.000000) translate(-107.350000, -197.328125) " cx="107.35" cy="197.328125" rx="1.01388889" ry="1.2"></ellipse>
                <ellipse id="Oval" transform="translate(107.350000, 182.246528) rotate(-90.000000) translate(-107.350000, -182.246528) " cx="107.35" cy="182.246528" rx="1.01388889" ry="1.2"></ellipse>
                <ellipse id="Oval" transform="translate(107.350000, 167.291667) rotate(-90.000000) translate(-107.350000, -167.291667) " cx="107.35" cy="167.291667" rx="1.01388889" ry="1.2"></ellipse>
                <ellipse id="Oval" transform="translate(107.350000, 152.210069) rotate(-90.000000) translate(-107.350000, -152.210069) " cx="107.35" cy="152.210069" rx="1.01388889" ry="1.2"></ellipse>
                <ellipse id="Oval" transform="translate(107.350000, 137.128472) rotate(-90.000000) translate(-107.350000, -137.128472) " cx="107.35" cy="137.128472" rx="1.01388889" ry="1.2"></ellipse>
                <ellipse id="Oval" transform="translate(107.350000, 122.173611) rotate(-90.000000) translate(-107.350000, -122.173611) " cx="107.35" cy="122.173611" rx="1.01388889" ry="1.2"></ellipse>
                <ellipse id="Oval" transform="translate(107.350000, 107.092014) rotate(-90.000000) translate(-107.350000, -107.092014) " cx="107.35" cy="107.092014" rx="1.01388889" ry="1.2"></ellipse>
                <ellipse id="Oval" transform="translate(107.350000, 92.010417) rotate(-90.000000) translate(-107.350000, -92.010417) " cx="107.35" cy="92.0104167" rx="1.01388889" ry="1.2"></ellipse>
                <ellipse id="Oval" transform="translate(107.350000, 76.928819) rotate(-90.000000) translate(-107.350000, -76.928819) " cx="107.35" cy="76.9288194" rx="1.01388889" ry="1.2"></ellipse>
                <ellipse id="Oval" transform="translate(107.350000, 61.973958) rotate(-90.000000) translate(-107.350000, -61.973958) " cx="107.35" cy="61.9739583" rx="1.01388889" ry="1.2"></ellipse>
                <ellipse id="Oval" transform="translate(107.350000, 46.892361) rotate(-90.000000) translate(-107.350000, -46.892361) " cx="107.35" cy="46.8923611" rx="1.01388889" ry="1.2"></ellipse>
                <ellipse id="Oval" transform="translate(107.350000, 31.810764) rotate(-90.000000) translate(-107.350000, -31.810764) " cx="107.35" cy="31.8107639" rx="1.01388889" ry="1.2"></ellipse>
                <ellipse id="Oval" transform="translate(107.350000, 16.855903) rotate(-90.000000) translate(-107.350000, -16.855903) " cx="107.35" cy="16.8559028" rx="1.01388889" ry="1.2"></ellipse>
                <ellipse id="Oval" transform="translate(107.350000, 1.774306) rotate(-90.000000) translate(-107.350000, -1.774306) " cx="107.35" cy="1.77430556" rx="1.01388889" ry="1.2"></ellipse>
                <ellipse id="Oval" transform="translate(121.733333, 227.364583) rotate(-90.000000) translate(-121.733333, -227.364583) " cx="121.733333" cy="227.364583" rx="1.01388889" ry="1.06666667"></ellipse>
                <ellipse id="Oval" transform="translate(121.733333, 212.409722) rotate(-90.000000) translate(-121.733333, -212.409722) " cx="121.733333" cy="212.409722" rx="1.01388889" ry="1.06666667"></ellipse>
                <ellipse id="Oval" transform="translate(121.733333, 197.328125) rotate(-90.000000) translate(-121.733333, -197.328125) " cx="121.733333" cy="197.328125" rx="1.01388889" ry="1.06666667"></ellipse>
                <ellipse id="Oval" transform="translate(121.733333, 182.246528) rotate(-90.000000) translate(-121.733333, -182.246528) " cx="121.733333" cy="182.246528" rx="1.01388889" ry="1.06666667"></ellipse>
                <ellipse id="Oval" transform="translate(121.733333, 167.291667) rotate(-90.000000) translate(-121.733333, -167.291667) " cx="121.733333" cy="167.291667" rx="1.01388889" ry="1.06666667"></ellipse>
                <ellipse id="Oval" transform="translate(121.733333, 152.210069) rotate(-90.000000) translate(-121.733333, -152.210069) " cx="121.733333" cy="152.210069" rx="1.01388889" ry="1.06666667"></ellipse>
                <ellipse id="Oval" transform="translate(121.733333, 137.128472) rotate(-90.000000) translate(-121.733333, -137.128472) " cx="121.733333" cy="137.128472" rx="1.01388889" ry="1.06666667"></ellipse>
                <ellipse id="Oval" transform="translate(121.733333, 122.173611) rotate(-90.000000) translate(-121.733333, -122.173611) " cx="121.733333" cy="122.173611" rx="1.01388889" ry="1.06666667"></ellipse>
                <ellipse id="Oval" transform="translate(121.733333, 107.092014) rotate(-90.000000) translate(-121.733333, -107.092014) " cx="121.733333" cy="107.092014" rx="1.01388889" ry="1.06666667"></ellipse>
                <ellipse id="Oval" transform="translate(121.733333, 92.010417) rotate(-90.000000) translate(-121.733333, -92.010417) " cx="121.733333" cy="92.0104167" rx="1.01388889" ry="1.06666667"></ellipse>
                <ellipse id="Oval" transform="translate(121.733333, 76.928819) rotate(-90.000000) translate(-121.733333, -76.928819) " cx="121.733333" cy="76.9288194" rx="1.01388889" ry="1.06666667"></ellipse>
                <ellipse id="Oval" transform="translate(121.733333, 61.973958) rotate(-90.000000) translate(-121.733333, -61.973958) " cx="121.733333" cy="61.9739583" rx="1.01388889" ry="1.06666667"></ellipse>
                <ellipse id="Oval" transform="translate(121.733333, 46.892361) rotate(-90.000000) translate(-121.733333, -46.892361) " cx="121.733333" cy="46.8923611" rx="1.01388889" ry="1.06666667"></ellipse>
                <ellipse id="Oval" transform="translate(121.733333, 31.810764) rotate(-90.000000) translate(-121.733333, -31.810764) " cx="121.733333" cy="31.8107639" rx="1.01388889" ry="1.06666667"></ellipse>
                <ellipse id="Oval" transform="translate(121.733333, 16.855903) rotate(-90.000000) translate(-121.733333, -16.855903) " cx="121.733333" cy="16.8559028" rx="1.01388889" ry="1.06666667"></ellipse>
                <ellipse id="Oval" transform="translate(121.733333, 1.774306) rotate(-90.000000) translate(-121.733333, -1.774306) " cx="121.733333" cy="1.77430556" rx="1.01388889" ry="1.06666667"></ellipse>
                <ellipse id="Oval" transform="translate(137.266667, 227.364583) rotate(-90.000000) translate(-137.266667, -227.364583) " cx="137.266667" cy="227.364583" rx="1.01388889" ry="1.06666667"></ellipse>
                <ellipse id="Oval" transform="translate(137.266667, 212.409722) rotate(-90.000000) translate(-137.266667, -212.409722) " cx="137.266667" cy="212.409722" rx="1.01388889" ry="1.06666667"></ellipse>
                <ellipse id="Oval" transform="translate(137.266667, 197.328125) rotate(-90.000000) translate(-137.266667, -197.328125) " cx="137.266667" cy="197.328125" rx="1.01388889" ry="1.06666667"></ellipse>
                <ellipse id="Oval" transform="translate(137.266667, 182.246528) rotate(-90.000000) translate(-137.266667, -182.246528) " cx="137.266667" cy="182.246528" rx="1.01388889" ry="1.06666667"></ellipse>
                <ellipse id="Oval" transform="translate(137.266667, 167.291667) rotate(-90.000000) translate(-137.266667, -167.291667) " cx="137.266667" cy="167.291667" rx="1.01388889" ry="1.06666667"></ellipse>
                <ellipse id="Oval" transform="translate(137.266667, 152.210069) rotate(-90.000000) translate(-137.266667, -152.210069) " cx="137.266667" cy="152.210069" rx="1.01388889" ry="1.06666667"></ellipse>
                <ellipse id="Oval" transform="translate(137.266667, 137.128472) rotate(-90.000000) translate(-137.266667, -137.128472) " cx="137.266667" cy="137.128472" rx="1.01388889" ry="1.06666667"></ellipse>
                <ellipse id="Oval" transform="translate(137.266667, 122.173611) rotate(-90.000000) translate(-137.266667, -122.173611) " cx="137.266667" cy="122.173611" rx="1.01388889" ry="1.06666667"></ellipse>
                <ellipse id="Oval" transform="translate(137.266667, 107.092014) rotate(-90.000000) translate(-137.266667, -107.092014) " cx="137.266667" cy="107.092014" rx="1.01388889" ry="1.06666667"></ellipse>
                <ellipse id="Oval" transform="translate(137.266667, 92.010417) rotate(-90.000000) translate(-137.266667, -92.010417) " cx="137.266667" cy="92.0104167" rx="1.01388889" ry="1.06666667"></ellipse>
                <ellipse id="Oval" transform="translate(137.266667, 76.928819) rotate(-90.000000) translate(-137.266667, -76.928819) " cx="137.266667" cy="76.9288194" rx="1.01388889" ry="1.06666667"></ellipse>
                <ellipse id="Oval" transform="translate(137.266667, 61.973958) rotate(-90.000000) translate(-137.266667, -61.973958) " cx="137.266667" cy="61.9739583" rx="1.01388889" ry="1.06666667"></ellipse>
                <ellipse id="Oval" transform="translate(137.266667, 46.892361) rotate(-90.000000) translate(-137.266667, -46.892361) " cx="137.266667" cy="46.8923611" rx="1.01388889" ry="1.06666667"></ellipse>
                <ellipse id="Oval" transform="translate(137.266667, 31.810764) rotate(-90.000000) translate(-137.266667, -31.810764) " cx="137.266667" cy="31.8107639" rx="1.01388889" ry="1.06666667"></ellipse>
                <ellipse id="Oval" transform="translate(137.266667, 16.855903) rotate(-90.000000) translate(-137.266667, -16.855903) " cx="137.266667" cy="16.8559028" rx="1.01388889" ry="1.06666667"></ellipse>
                <ellipse id="Oval" transform="translate(137.266667, 1.774306) rotate(-90.000000) translate(-137.266667, -1.774306) " cx="137.266667" cy="1.77430556" rx="1.01388889" ry="1.06666667"></ellipse>
                <ellipse id="Oval" transform="translate(151.500000, 227.364583) rotate(-90.000000) translate(-151.500000, -227.364583) " cx="151.5" cy="227.364583" rx="1.01388889" ry="1.2"></ellipse>
                <ellipse id="Oval" transform="translate(151.500000, 212.409722) rotate(-90.000000) translate(-151.500000, -212.409722) " cx="151.5" cy="212.409722" rx="1.01388889" ry="1.2"></ellipse>
                <ellipse id="Oval" transform="translate(151.500000, 197.328125) rotate(-90.000000) translate(-151.500000, -197.328125) " cx="151.5" cy="197.328125" rx="1.01388889" ry="1.2"></ellipse>
                <ellipse id="Oval" transform="translate(151.500000, 182.246528) rotate(-90.000000) translate(-151.500000, -182.246528) " cx="151.5" cy="182.246528" rx="1.01388889" ry="1.2"></ellipse>
                <ellipse id="Oval" transform="translate(151.500000, 167.291667) rotate(-90.000000) translate(-151.500000, -167.291667) " cx="151.5" cy="167.291667" rx="1.01388889" ry="1.2"></ellipse>
                <ellipse id="Oval" transform="translate(151.500000, 152.210069) rotate(-90.000000) translate(-151.500000, -152.210069) " cx="151.5" cy="152.210069" rx="1.01388889" ry="1.2"></ellipse>
                <ellipse id="Oval" transform="translate(151.500000, 137.128472) rotate(-90.000000) translate(-151.500000, -137.128472) " cx="151.5" cy="137.128472" rx="1.01388889" ry="1.2"></ellipse>
                <ellipse id="Oval" transform="translate(151.500000, 122.173611) rotate(-90.000000) translate(-151.500000, -122.173611) " cx="151.5" cy="122.173611" rx="1.01388889" ry="1.2"></ellipse>
                <ellipse id="Oval" transform="translate(151.500000, 107.092014) rotate(-90.000000) translate(-151.500000, -107.092014) " cx="151.5" cy="107.092014" rx="1.01388889" ry="1.2"></ellipse>
                <ellipse id="Oval" transform="translate(151.500000, 92.010417) rotate(-90.000000) translate(-151.500000, -92.010417) " cx="151.5" cy="92.0104167" rx="1.01388889" ry="1.2"></ellipse>
                <ellipse id="Oval" transform="translate(151.500000, 76.928819) rotate(-90.000000) translate(-151.500000, -76.928819) " cx="151.5" cy="76.9288194" rx="1.01388889" ry="1.2"></ellipse>
                <ellipse id="Oval" transform="translate(151.500000, 61.973958) rotate(-90.000000) translate(-151.500000, -61.973958) " cx="151.5" cy="61.9739583" rx="1.01388889" ry="1.2"></ellipse>
                <ellipse id="Oval" transform="translate(151.500000, 46.892361) rotate(-90.000000) translate(-151.500000, -46.892361) " cx="151.5" cy="46.8923611" rx="1.01388889" ry="1.2"></ellipse>
                <ellipse id="Oval" transform="translate(151.500000, 31.810764) rotate(-90.000000) translate(-151.500000, -31.810764) " cx="151.5" cy="31.8107639" rx="1.01388889" ry="1.2"></ellipse>
                <ellipse id="Oval" transform="translate(151.500000, 16.855903) rotate(-90.000000) translate(-151.500000, -16.855903) " cx="151.5" cy="16.8559028" rx="1.01388889" ry="1.2"></ellipse>
                <ellipse id="Oval" transform="translate(151.500000, 1.774306) rotate(-90.000000) translate(-151.500000, -1.774306) " cx="151.5" cy="1.77430556" rx="1.01388889" ry="1.2"></ellipse>
                <ellipse id="Oval" transform="translate(166.866667, 227.364583) rotate(-90.000000) translate(-166.866667, -227.364583) " cx="166.866667" cy="227.364583" rx="1.01388889" ry="1.06666667"></ellipse>
                <ellipse id="Oval" transform="translate(166.866667, 212.409722) rotate(-90.000000) translate(-166.866667, -212.409722) " cx="166.866667" cy="212.409722" rx="1.01388889" ry="1.06666667"></ellipse>
                <ellipse id="Oval" transform="translate(166.866667, 197.328125) rotate(-90.000000) translate(-166.866667, -197.328125) " cx="166.866667" cy="197.328125" rx="1.01388889" ry="1.06666667"></ellipse>
                <ellipse id="Oval" transform="translate(166.866667, 182.246528) rotate(-90.000000) translate(-166.866667, -182.246528) " cx="166.866667" cy="182.246528" rx="1.01388889" ry="1.06666667"></ellipse>
                <ellipse id="Oval" transform="translate(166.866667, 167.291667) rotate(-90.000000) translate(-166.866667, -167.291667) " cx="166.866667" cy="167.291667" rx="1.01388889" ry="1.06666667"></ellipse>
                <ellipse id="Oval" transform="translate(166.866667, 152.210069) rotate(-90.000000) translate(-166.866667, -152.210069) " cx="166.866667" cy="152.210069" rx="1.01388889" ry="1.06666667"></ellipse>
                <ellipse id="Oval" transform="translate(166.866667, 137.128472) rotate(-90.000000) translate(-166.866667, -137.128472) " cx="166.866667" cy="137.128472" rx="1.01388889" ry="1.06666667"></ellipse>
                <ellipse id="Oval" transform="translate(166.866667, 122.173611) rotate(-90.000000) translate(-166.866667, -122.173611) " cx="166.866667" cy="122.173611" rx="1.01388889" ry="1.06666667"></ellipse>
                <ellipse id="Oval" transform="translate(166.866667, 107.092014) rotate(-90.000000) translate(-166.866667, -107.092014) " cx="166.866667" cy="107.092014" rx="1.01388889" ry="1.06666667"></ellipse>
                <ellipse id="Oval" transform="translate(166.866667, 92.010417) rotate(-90.000000) translate(-166.866667, -92.010417) " cx="166.866667" cy="92.0104167" rx="1.01388889" ry="1.06666667"></ellipse>
                <ellipse id="Oval" transform="translate(166.866667, 76.928819) rotate(-90.000000) translate(-166.866667, -76.928819) " cx="166.866667" cy="76.9288194" rx="1.01388889" ry="1.06666667"></ellipse>
                <ellipse id="Oval" transform="translate(166.866667, 61.973958) rotate(-90.000000) translate(-166.866667, -61.973958) " cx="166.866667" cy="61.9739583" rx="1.01388889" ry="1.06666667"></ellipse>
                <ellipse id="Oval" transform="translate(166.866667, 46.892361) rotate(-90.000000) translate(-166.866667, -46.892361) " cx="166.866667" cy="46.8923611" rx="1.01388889" ry="1.06666667"></ellipse>
                <ellipse id="Oval" transform="translate(166.866667, 31.810764) rotate(-90.000000) translate(-166.866667, -31.810764) " cx="166.866667" cy="31.8107639" rx="1.01388889" ry="1.06666667"></ellipse>
                <ellipse id="Oval" transform="translate(166.866667, 16.855903) rotate(-90.000000) translate(-166.866667, -16.855903) " cx="166.866667" cy="16.8559028" rx="1.01388889" ry="1.06666667"></ellipse>
                <ellipse id="Oval" transform="translate(166.866667, 1.774306) rotate(-90.000000) translate(-166.866667, -1.774306) " cx="166.866667" cy="1.77430556" rx="1.01388889" ry="1.06666667"></ellipse>
                <ellipse id="Oval" transform="translate(182.200000, 227.364583) rotate(-90.000000) translate(-182.200000, -227.364583) " cx="182.2" cy="227.364583" rx="1.01388889" ry="1.2"></ellipse>
                <ellipse id="Oval" transform="translate(182.200000, 212.409722) rotate(-90.000000) translate(-182.200000, -212.409722) " cx="182.2" cy="212.409722" rx="1.01388889" ry="1.2"></ellipse>
                <ellipse id="Oval" transform="translate(182.200000, 197.328125) rotate(-90.000000) translate(-182.200000, -197.328125) " cx="182.2" cy="197.328125" rx="1.01388889" ry="1.2"></ellipse>
                <ellipse id="Oval" transform="translate(182.200000, 182.246528) rotate(-90.000000) translate(-182.200000, -182.246528) " cx="182.2" cy="182.246528" rx="1.01388889" ry="1.2"></ellipse>
                <ellipse id="Oval" transform="translate(182.200000, 167.291667) rotate(-90.000000) translate(-182.200000, -167.291667) " cx="182.2" cy="167.291667" rx="1.01388889" ry="1.2"></ellipse>
                <ellipse id="Oval" transform="translate(182.200000, 152.210069) rotate(-90.000000) translate(-182.200000, -152.210069) " cx="182.2" cy="152.210069" rx="1.01388889" ry="1.2"></ellipse>
                <ellipse id="Oval" transform="translate(182.200000, 137.128472) rotate(-90.000000) translate(-182.200000, -137.128472) " cx="182.2" cy="137.128472" rx="1.01388889" ry="1.2"></ellipse>
                <ellipse id="Oval" transform="translate(182.200000, 122.173611) rotate(-90.000000) translate(-182.200000, -122.173611) " cx="182.2" cy="122.173611" rx="1.01388889" ry="1.2"></ellipse>
                <ellipse id="Oval" transform="translate(182.200000, 107.092014) rotate(-90.000000) translate(-182.200000, -107.092014) " cx="182.2" cy="107.092014" rx="1.01388889" ry="1.2"></ellipse>
                <ellipse id="Oval" transform="translate(182.200000, 92.010417) rotate(-90.000000) translate(-182.200000, -92.010417) " cx="182.2" cy="92.0104167" rx="1.01388889" ry="1.2"></ellipse>
                <ellipse id="Oval" transform="translate(182.200000, 76.928819) rotate(-90.000000) translate(-182.200000, -76.928819) " cx="182.2" cy="76.9288194" rx="1.01388889" ry="1.2"></ellipse>
                <ellipse id="Oval" transform="translate(182.200000, 61.973958) rotate(-90.000000) translate(-182.200000, -61.973958) " cx="182.2" cy="61.9739583" rx="1.01388889" ry="1.2"></ellipse>
                <ellipse id="Oval" transform="translate(182.200000, 46.892361) rotate(-90.000000) translate(-182.200000, -46.892361) " cx="182.2" cy="46.8923611" rx="1.01388889" ry="1.2"></ellipse>
                <ellipse id="Oval" transform="translate(182.200000, 31.810764) rotate(-90.000000) translate(-182.200000, -31.810764) " cx="182.2" cy="31.8107639" rx="1.01388889" ry="1.2"></ellipse>
                <ellipse id="Oval" transform="translate(182.200000, 16.855903) rotate(-90.000000) translate(-182.200000, -16.855903) " cx="182.2" cy="16.8559028" rx="1.01388889" ry="1.2"></ellipse>
                <ellipse id="Oval" transform="translate(182.200000, 1.774306) rotate(-90.000000) translate(-182.200000, -1.774306) " cx="182.2" cy="1.77430556" rx="1.01388889" ry="1.2"></ellipse>
                <ellipse id="Oval" transform="translate(196.800000, 227.364583) rotate(-90.000000) translate(-196.800000, -227.364583) " cx="196.8" cy="227.364583" rx="1.01388889" ry="1.2"></ellipse>
                <ellipse id="Oval" transform="translate(196.800000, 212.409722) rotate(-90.000000) translate(-196.800000, -212.409722) " cx="196.8" cy="212.409722" rx="1.01388889" ry="1.2"></ellipse>
                <ellipse id="Oval" transform="translate(196.800000, 197.328125) rotate(-90.000000) translate(-196.800000, -197.328125) " cx="196.8" cy="197.328125" rx="1.01388889" ry="1.2"></ellipse>
                <ellipse id="Oval" transform="translate(196.800000, 182.246528) rotate(-90.000000) translate(-196.800000, -182.246528) " cx="196.8" cy="182.246528" rx="1.01388889" ry="1.2"></ellipse>
                <ellipse id="Oval" transform="translate(196.800000, 167.291667) rotate(-90.000000) translate(-196.800000, -167.291667) " cx="196.8" cy="167.291667" rx="1.01388889" ry="1.2"></ellipse>
                <ellipse id="Oval" transform="translate(196.800000, 152.210069) rotate(-90.000000) translate(-196.800000, -152.210069) " cx="196.8" cy="152.210069" rx="1.01388889" ry="1.2"></ellipse>
                <ellipse id="Oval" transform="translate(196.800000, 137.128472) rotate(-90.000000) translate(-196.800000, -137.128472) " cx="196.8" cy="137.128472" rx="1.01388889" ry="1.2"></ellipse>
                <ellipse id="Oval" transform="translate(196.800000, 122.173611) rotate(-90.000000) translate(-196.800000, -122.173611) " cx="196.8" cy="122.173611" rx="1.01388889" ry="1.2"></ellipse>
                <ellipse id="Oval" transform="translate(196.800000, 107.092014) rotate(-90.000000) translate(-196.800000, -107.092014) " cx="196.8" cy="107.092014" rx="1.01388889" ry="1.2"></ellipse>
                <ellipse id="Oval" transform="translate(196.800000, 92.010417) rotate(-90.000000) translate(-196.800000, -92.010417) " cx="196.8" cy="92.0104167" rx="1.01388889" ry="1.2"></ellipse>
                <ellipse id="Oval" transform="translate(196.800000, 76.928819) rotate(-90.000000) translate(-196.800000, -76.928819) " cx="196.8" cy="76.9288194" rx="1.01388889" ry="1.2"></ellipse>
                <ellipse id="Oval" transform="translate(196.800000, 61.973958) rotate(-90.000000) translate(-196.800000, -61.973958) " cx="196.8" cy="61.9739583" rx="1.01388889" ry="1.2"></ellipse>
                <ellipse id="Oval" transform="translate(196.800000, 46.892361) rotate(-90.000000) translate(-196.800000, -46.892361) " cx="196.8" cy="46.8923611" rx="1.01388889" ry="1.2"></ellipse>
                <ellipse id="Oval" transform="translate(196.800000, 31.810764) rotate(-90.000000) translate(-196.800000, -31.810764) " cx="196.8" cy="31.8107639" rx="1.01388889" ry="1.2"></ellipse>
                <ellipse id="Oval" transform="translate(196.800000, 16.855903) rotate(-90.000000) translate(-196.800000, -16.855903) " cx="196.8" cy="16.8559028" rx="1.01388889" ry="1.2"></ellipse>
                <ellipse id="Oval" transform="translate(196.800000, 1.774306) rotate(-90.000000) translate(-196.800000, -1.774306) " cx="196.8" cy="1.77430556" rx="1.01388889" ry="1.2"></ellipse>
                <ellipse id="Oval" transform="translate(212.133333, 227.364583) rotate(-90.000000) translate(-212.133333, -227.364583) " cx="212.133333" cy="227.364583" rx="1.01388889" ry="1.06666667"></ellipse>
                <ellipse id="Oval" transform="translate(212.133333, 212.409722) rotate(-90.000000) translate(-212.133333, -212.409722) " cx="212.133333" cy="212.409722" rx="1.01388889" ry="1.06666667"></ellipse>
                <ellipse id="Oval" transform="translate(212.133333, 197.328125) rotate(-90.000000) translate(-212.133333, -197.328125) " cx="212.133333" cy="197.328125" rx="1.01388889" ry="1.06666667"></ellipse>
                <ellipse id="Oval" transform="translate(212.133333, 182.246528) rotate(-90.000000) translate(-212.133333, -182.246528) " cx="212.133333" cy="182.246528" rx="1.01388889" ry="1.06666667"></ellipse>
                <ellipse id="Oval" transform="translate(212.133333, 167.291667) rotate(-90.000000) translate(-212.133333, -167.291667) " cx="212.133333" cy="167.291667" rx="1.01388889" ry="1.06666667"></ellipse>
                <ellipse id="Oval" transform="translate(212.133333, 152.210069) rotate(-90.000000) translate(-212.133333, -152.210069) " cx="212.133333" cy="152.210069" rx="1.01388889" ry="1.06666667"></ellipse>
                <ellipse id="Oval" transform="translate(212.133333, 137.128472) rotate(-90.000000) translate(-212.133333, -137.128472) " cx="212.133333" cy="137.128472" rx="1.01388889" ry="1.06666667"></ellipse>
                <ellipse id="Oval" transform="translate(212.133333, 122.173611) rotate(-90.000000) translate(-212.133333, -122.173611) " cx="212.133333" cy="122.173611" rx="1.01388889" ry="1.06666667"></ellipse>
                <ellipse id="Oval" transform="translate(212.133333, 107.092014) rotate(-90.000000) translate(-212.133333, -107.092014) " cx="212.133333" cy="107.092014" rx="1.01388889" ry="1.06666667"></ellipse>
                <ellipse id="Oval" transform="translate(212.133333, 92.010417) rotate(-90.000000) translate(-212.133333, -92.010417) " cx="212.133333" cy="92.0104167" rx="1.01388889" ry="1.06666667"></ellipse>
                <ellipse id="Oval" transform="translate(212.133333, 76.928819) rotate(-90.000000) translate(-212.133333, -76.928819) " cx="212.133333" cy="76.9288194" rx="1.01388889" ry="1.06666667"></ellipse>
                <ellipse id="Oval" transform="translate(212.133333, 61.973958) rotate(-90.000000) translate(-212.133333, -61.973958) " cx="212.133333" cy="61.9739583" rx="1.01388889" ry="1.06666667"></ellipse>
                <ellipse id="Oval" transform="translate(212.133333, 46.892361) rotate(-90.000000) translate(-212.133333, -46.892361) " cx="212.133333" cy="46.8923611" rx="1.01388889" ry="1.06666667"></ellipse>
                <ellipse id="Oval" transform="translate(212.133333, 31.810764) rotate(-90.000000) translate(-212.133333, -31.810764) " cx="212.133333" cy="31.8107639" rx="1.01388889" ry="1.06666667"></ellipse>
                <ellipse id="Oval" transform="translate(212.133333, 16.855903) rotate(-90.000000) translate(-212.133333, -16.855903) " cx="212.133333" cy="16.8559028" rx="1.01388889" ry="1.06666667"></ellipse>
                <ellipse id="Oval" transform="translate(212.133333, 1.774306) rotate(-90.000000) translate(-212.133333, -1.774306) " cx="212.133333" cy="1.77430556" rx="1.01388889" ry="1.06666667"></ellipse>
                <ellipse id="Oval" transform="translate(227.350000, 227.364583) rotate(-90.000000) translate(-227.350000, -227.364583) " cx="227.35" cy="227.364583" rx="1.01388889" ry="1.2"></ellipse>
                <ellipse id="Oval" transform="translate(227.350000, 212.409722) rotate(-90.000000) translate(-227.350000, -212.409722) " cx="227.35" cy="212.409722" rx="1.01388889" ry="1.2"></ellipse>
                <ellipse id="Oval" transform="translate(227.350000, 197.328125) rotate(-90.000000) translate(-227.350000, -197.328125) " cx="227.35" cy="197.328125" rx="1.01388889" ry="1.2"></ellipse>
                <ellipse id="Oval" transform="translate(227.350000, 182.246528) rotate(-90.000000) translate(-227.350000, -182.246528) " cx="227.35" cy="182.246528" rx="1.01388889" ry="1.2"></ellipse>
                <ellipse id="Oval" transform="translate(227.350000, 167.291667) rotate(-90.000000) translate(-227.350000, -167.291667) " cx="227.35" cy="167.291667" rx="1.01388889" ry="1.2"></ellipse>
                <ellipse id="Oval" transform="translate(227.350000, 152.210069) rotate(-90.000000) translate(-227.350000, -152.210069) " cx="227.35" cy="152.210069" rx="1.01388889" ry="1.2"></ellipse>
                <ellipse id="Oval" transform="translate(227.350000, 137.128472) rotate(-90.000000) translate(-227.350000, -137.128472) " cx="227.35" cy="137.128472" rx="1.01388889" ry="1.2"></ellipse>
                <ellipse id="Oval" transform="translate(227.350000, 122.173611) rotate(-90.000000) translate(-227.350000, -122.173611) " cx="227.35" cy="122.173611" rx="1.01388889" ry="1.2"></ellipse>
                <ellipse id="Oval" transform="translate(227.350000, 107.092014) rotate(-90.000000) translate(-227.350000, -107.092014) " cx="227.35" cy="107.092014" rx="1.01388889" ry="1.2"></ellipse>
                <ellipse id="Oval" transform="translate(227.350000, 92.010417) rotate(-90.000000) translate(-227.350000, -92.010417) " cx="227.35" cy="92.0104167" rx="1.01388889" ry="1.2"></ellipse>
                <ellipse id="Oval" transform="translate(227.350000, 76.928819) rotate(-90.000000) translate(-227.350000, -76.928819) " cx="227.35" cy="76.9288194" rx="1.01388889" ry="1.2"></ellipse>
                <ellipse id="Oval" transform="translate(227.350000, 61.973958) rotate(-90.000000) translate(-227.350000, -61.973958) " cx="227.35" cy="61.9739583" rx="1.01388889" ry="1.2"></ellipse>
                <ellipse id="Oval" transform="translate(227.350000, 46.892361) rotate(-90.000000) translate(-227.350000, -46.892361) " cx="227.35" cy="46.8923611" rx="1.01388889" ry="1.2"></ellipse>
                <ellipse id="Oval" transform="translate(227.350000, 31.810764) rotate(-90.000000) translate(-227.350000, -31.810764) " cx="227.35" cy="31.8107639" rx="1.01388889" ry="1.2"></ellipse>
                <ellipse id="Oval" transform="translate(227.350000, 16.855903) rotate(-90.000000) translate(-227.350000, -16.855903) " cx="227.35" cy="16.8559028" rx="1.01388889" ry="1.2"></ellipse>
                <ellipse id="Oval" transform="translate(227.350000, 1.774306) rotate(-90.000000) translate(-227.350000, -1.774306) " cx="227.35" cy="1.77430556" rx="1.01388889" ry="1.2"></ellipse>
                <ellipse id="Oval" transform="translate(241.733333, 227.364583) rotate(-90.000000) translate(-241.733333, -227.364583) " cx="241.733333" cy="227.364583" rx="1.01388889" ry="1.06666667"></ellipse>
                <ellipse id="Oval" transform="translate(241.733333, 212.409722) rotate(-90.000000) translate(-241.733333, -212.409722) " cx="241.733333" cy="212.409722" rx="1.01388889" ry="1.06666667"></ellipse>
                <ellipse id="Oval" transform="translate(241.733333, 197.328125) rotate(-90.000000) translate(-241.733333, -197.328125) " cx="241.733333" cy="197.328125" rx="1.01388889" ry="1.06666667"></ellipse>
                <ellipse id="Oval" transform="translate(241.733333, 182.246528) rotate(-90.000000) translate(-241.733333, -182.246528) " cx="241.733333" cy="182.246528" rx="1.01388889" ry="1.06666667"></ellipse>
                <ellipse id="Oval" transform="translate(241.733333, 167.291667) rotate(-90.000000) translate(-241.733333, -167.291667) " cx="241.733333" cy="167.291667" rx="1.01388889" ry="1.06666667"></ellipse>
                <ellipse id="Oval" transform="translate(241.733333, 152.210069) rotate(-90.000000) translate(-241.733333, -152.210069) " cx="241.733333" cy="152.210069" rx="1.01388889" ry="1.06666667"></ellipse>
                <ellipse id="Oval" transform="translate(241.733333, 137.128472) rotate(-90.000000) translate(-241.733333, -137.128472) " cx="241.733333" cy="137.128472" rx="1.01388889" ry="1.06666667"></ellipse>
                <ellipse id="Oval" transform="translate(241.733333, 122.173611) rotate(-90.000000) translate(-241.733333, -122.173611) " cx="241.733333" cy="122.173611" rx="1.01388889" ry="1.06666667"></ellipse>
                <ellipse id="Oval" transform="translate(241.733333, 107.092014) rotate(-90.000000) translate(-241.733333, -107.092014) " cx="241.733333" cy="107.092014" rx="1.01388889" ry="1.06666667"></ellipse>
                <ellipse id="Oval" transform="translate(241.733333, 92.010417) rotate(-90.000000) translate(-241.733333, -92.010417) " cx="241.733333" cy="92.0104167" rx="1.01388889" ry="1.06666667"></ellipse>
                <ellipse id="Oval" transform="translate(241.733333, 76.928819) rotate(-90.000000) translate(-241.733333, -76.928819) " cx="241.733333" cy="76.9288194" rx="1.01388889" ry="1.06666667"></ellipse>
                <ellipse id="Oval" transform="translate(241.733333, 61.973958) rotate(-90.000000) translate(-241.733333, -61.973958) " cx="241.733333" cy="61.9739583" rx="1.01388889" ry="1.06666667"></ellipse>
                <ellipse id="Oval" transform="translate(241.733333, 46.892361) rotate(-90.000000) translate(-241.733333, -46.892361) " cx="241.733333" cy="46.8923611" rx="1.01388889" ry="1.06666667"></ellipse>
                <ellipse id="Oval" transform="translate(241.733333, 31.810764) rotate(-90.000000) translate(-241.733333, -31.810764) " cx="241.733333" cy="31.8107639" rx="1.01388889" ry="1.06666667"></ellipse>
                <ellipse id="Oval" transform="translate(241.733333, 16.855903) rotate(-90.000000) translate(-241.733333, -16.855903) " cx="241.733333" cy="16.8559028" rx="1.01388889" ry="1.06666667"></ellipse>
                <ellipse id="Oval" transform="translate(241.733333, 1.774306) rotate(-90.000000) translate(-241.733333, -1.774306) " cx="241.733333" cy="1.77430556" rx="1.01388889" ry="1.06666667"></ellipse>
                <ellipse id="Oval" transform="translate(257.266667, 227.364583) rotate(-90.000000) translate(-257.266667, -227.364583) " cx="257.266667" cy="227.364583" rx="1.01388889" ry="1.06666667"></ellipse>
                <ellipse id="Oval" transform="translate(257.266667, 212.409722) rotate(-90.000000) translate(-257.266667, -212.409722) " cx="257.266667" cy="212.409722" rx="1.01388889" ry="1.06666667"></ellipse>
                <ellipse id="Oval" transform="translate(257.266667, 197.328125) rotate(-90.000000) translate(-257.266667, -197.328125) " cx="257.266667" cy="197.328125" rx="1.01388889" ry="1.06666667"></ellipse>
                <ellipse id="Oval" transform="translate(257.266667, 182.246528) rotate(-90.000000) translate(-257.266667, -182.246528) " cx="257.266667" cy="182.246528" rx="1.01388889" ry="1.06666667"></ellipse>
                <ellipse id="Oval" transform="translate(257.266667, 167.291667) rotate(-90.000000) translate(-257.266667, -167.291667) " cx="257.266667" cy="167.291667" rx="1.01388889" ry="1.06666667"></ellipse>
                <ellipse id="Oval" transform="translate(257.266667, 152.210069) rotate(-90.000000) translate(-257.266667, -152.210069) " cx="257.266667" cy="152.210069" rx="1.01388889" ry="1.06666667"></ellipse>
                <ellipse id="Oval" transform="translate(257.266667, 137.128472) rotate(-90.000000) translate(-257.266667, -137.128472) " cx="257.266667" cy="137.128472" rx="1.01388889" ry="1.06666667"></ellipse>
                <ellipse id="Oval" transform="translate(257.266667, 122.173611) rotate(-90.000000) translate(-257.266667, -122.173611) " cx="257.266667" cy="122.173611" rx="1.01388889" ry="1.06666667"></ellipse>
                <ellipse id="Oval" transform="translate(257.266667, 107.092014) rotate(-90.000000) translate(-257.266667, -107.092014) " cx="257.266667" cy="107.092014" rx="1.01388889" ry="1.06666667"></ellipse>
                <ellipse id="Oval" transform="translate(257.266667, 92.010417) rotate(-90.000000) translate(-257.266667, -92.010417) " cx="257.266667" cy="92.0104167" rx="1.01388889" ry="1.06666667"></ellipse>
                <ellipse id="Oval" transform="translate(257.266667, 76.928819) rotate(-90.000000) translate(-257.266667, -76.928819) " cx="257.266667" cy="76.9288194" rx="1.01388889" ry="1.06666667"></ellipse>
                <ellipse id="Oval" transform="translate(257.266667, 61.973958) rotate(-90.000000) translate(-257.266667, -61.973958) " cx="257.266667" cy="61.9739583" rx="1.01388889" ry="1.06666667"></ellipse>
                <ellipse id="Oval" transform="translate(257.266667, 46.892361) rotate(-90.000000) translate(-257.266667, -46.892361) " cx="257.266667" cy="46.8923611" rx="1.01388889" ry="1.06666667"></ellipse>
                <ellipse id="Oval" transform="translate(257.266667, 31.810764) rotate(-90.000000) translate(-257.266667, -31.810764) " cx="257.266667" cy="31.8107639" rx="1.01388889" ry="1.06666667"></ellipse>
                <ellipse id="Oval" transform="translate(257.266667, 16.855903) rotate(-90.000000) translate(-257.266667, -16.855903) " cx="257.266667" cy="16.8559028" rx="1.01388889" ry="1.06666667"></ellipse>
                <ellipse id="Oval" transform="translate(257.266667, 1.774306) rotate(-90.000000) translate(-257.266667, -1.774306) " cx="257.266667" cy="1.77430556" rx="1.01388889" ry="1.06666667"></ellipse>
            </g>
        </g>
    </g>
</svg>