<?xml version="1.0" encoding="UTF-8"?>
<svg width="31px" height="31px" viewBox="0 0 31 31" version="1.1" xmlns="http://www.w3.org/2000/svg" xmlns:xlink="http://www.w3.org/1999/xlink">
    <!-- Generator: Sketch 47.1 (45422) - http://www.bohemiancoding.com/sketch -->
    <title>Fb</title>
    <desc>Created with Sketch.</desc>
    <defs></defs>
    <g id="Final---Version-1" stroke="none" stroke-width="1" fill="none" fill-rule="evenodd">
        <g id="Fb" fill-rule="nonzero">
            <g id="FB-Copy">
                <path d="M30.8579068,14.8847328 C30.8579068,15.2870229 30.8579068,15.7129771 30.8579068,16.1152672 C30.8579068,16.1625954 30.8342246,16.2099237 30.8342246,16.2572519 C30.763178,16.8251908 30.7394958,17.4167939 30.644767,17.9847328 C30.2184874,20.5877863 29.2001528,22.9305344 27.566081,24.989313 C24.842628,28.3969466 21.2902979,30.3374046 16.9564553,30.7633588 C14.5171887,31 12.1726509,30.6687023 9.89915966,29.7694656 C6.86783804,28.5625954 4.45225363,26.5984733 2.69977082,23.8770992 C0.402597403,20.3274809 -0.307868602,16.4938931 0.521008403,12.3763359 C1.23147441,8.89770992 2.98395722,6.03435115 5.68372804,3.7389313 C8.09931245,1.70381679 10.8938121,0.544274809 14.0435447,0.236641221 C14.3277311,0.212977099 14.6119175,0.189312977 14.8961039,0.165648855 C15.2987013,0.165648855 15.7249809,0.165648855 16.1275783,0.165648855 C16.4117647,0.189312977 16.7196333,0.212977099 17.0038197,0.236641221 C18.8036669,0.402290076 20.5324675,0.875572519 22.1665393,1.68015267 C24.9847212,3.05267176 27.1871658,5.11145038 28.7738732,7.80916031 C29.8869366,9.7259542 30.5500382,11.8083969 30.763178,14.0091603 C30.8105424,14.3167939 30.8342246,14.6007634 30.8579068,14.8847328 Z M13.3804431,26.0305344 C13.4278075,26.0305344 13.4751719,26.0305344 13.5225363,26.0305344 C14.5408709,26.0305344 15.5355233,26.0068702 16.5538579,26.0068702 C16.7196333,26.0068702 16.7196333,26.0068702 16.7196333,25.8412214 C16.6959511,22.5992366 16.6722689,19.3572519 16.6485867,16.1152672 C16.6485867,15.4763359 16.6249045,14.8374046 16.6249045,14.2221374 C16.6249045,13.9145038 16.8143621,13.7015267 17.1222307,13.6778626 C17.2169595,13.6778626 17.3116883,13.6778626 17.4064171,13.6541985 C18.0221543,13.6305344 18.6378915,13.6068702 19.2536287,13.6068702 C19.3483575,13.6068702 19.3957219,13.559542 19.3957219,13.4648855 C19.3957219,12.9442748 19.3957219,12.4 19.3957219,11.8793893 C19.3957219,11.5244275 19.3957219,11.5244275 19.0404889,11.5244275 C18.3063407,11.5244275 17.5721925,11.5480916 16.8617265,11.5717557 C16.7906799,11.5717557 16.6959511,11.5717557 16.6249045,11.5480916 C16.4354469,11.5007634 16.3170359,11.3824427 16.3170359,11.1931298 C16.2933537,10.4358779 16.3407181,9.70229008 16.6012223,8.99236641 C16.9090909,8.14045802 17.5248281,7.64351145 18.4247517,7.57251908 C18.9220779,7.52519084 19.3957219,7.61984733 19.8693659,7.73816794 C19.9877769,7.76183206 20.1061879,7.80916031 20.2245989,7.83282443 C20.2719633,7.69083969 20.3193277,7.57251908 20.3430099,7.45419847 C20.4614209,6.88625954 20.5798319,6.34198473 20.6982429,5.7740458 C20.7219251,5.65572519 20.6982429,5.58473282 20.5561497,5.5610687 C19.9877769,5.37175573 19.4194041,5.22977099 18.8273491,5.1351145 C17.8326967,4.99312977 16.8380443,4.99312977 15.8433919,5.27709924 C15.1092437,5.49007634 14.4461421,5.82137405 13.9014515,6.38931298 C13.3804431,6.93358779 13.1199389,7.61984733 12.9541635,8.32977099 C12.7883881,9.13435115 12.7410237,9.9389313 12.7173415,10.7435115 C12.7173415,11.1221374 12.5278839,11.3114504 12.1489687,11.3114504 C11.6042781,11.3351145 11.0832697,11.3351145 10.5385791,11.3351145 C10.4912147,11.3351145 10.4438503,11.3351145 10.3964859,11.3351145 C10.3964859,12.0687023 10.3964859,12.8022901 10.3964859,13.5358779 C10.4438503,13.5358779 10.4912147,13.5358779 10.5148969,13.5358779 C11.2490451,13.5358779 11.9831933,13.559542 12.6936593,13.559542 C13.0252101,13.559542 13.2383499,13.748855 13.2383499,14.0801527 C13.2857143,15.0977099 13.3330787,16.1152672 13.3330787,17.1328244 C13.3567609,20.0198473 13.3567609,22.8832061 13.3804431,25.770229 C13.3804431,25.8648855 13.3804431,25.9358779 13.3804431,26.0305344 Z" id="Shape" fill="#7A7977"></path>
                <path d="M13.3804431,26.0305344 C13.3804431,25.959542 13.3804431,25.8885496 13.3804431,25.8175573 C13.3804431,22.9305344 13.3567609,20.0671756 13.3330787,17.1801527 C13.3330787,16.1625954 13.2620321,15.1450382 13.2383499,14.1274809 C13.2383499,13.7961832 13.0252101,13.6068702 12.6936593,13.6068702 C11.9595111,13.6068702 11.2253629,13.5832061 10.5148969,13.5832061 C10.4675325,13.5832061 10.4438503,13.5832061 10.3964859,13.5832061 C10.3964859,12.8496183 10.3964859,12.1160305 10.3964859,11.3824427 C10.4438503,11.3824427 10.4912147,11.3824427 10.5385791,11.3824427 C11.0832697,11.3824427 11.6042781,11.3587786 12.1489687,11.3587786 C12.5278839,11.3587786 12.6936593,11.1694656 12.7173415,10.7908397 C12.7410237,9.98625954 12.7883881,9.18167939 12.9541635,8.37709924 C13.1199389,7.64351145 13.3804431,6.98091603 13.9014515,6.43664122 C14.4224599,5.86870229 15.1092437,5.53740458 15.8433919,5.32442748 C16.8143621,5.04045802 17.8090145,5.04045802 18.8273491,5.18244275 C19.4194041,5.27709924 19.9877769,5.41908397 20.5561497,5.60839695 C20.6745607,5.65572519 20.7219251,5.70305344 20.6982429,5.82137405 C20.5798319,6.38931298 20.4614209,6.93358779 20.3430099,7.50152672 C20.3193277,7.61984733 20.2719633,7.73816794 20.2245989,7.88015267 C20.1061879,7.85648855 19.9877769,7.80916031 19.8693659,7.78549618 C19.3957219,7.66717557 18.9220779,7.57251908 18.4247517,7.61984733 C17.5011459,7.69083969 16.9090909,8.21145038 16.6012223,9.03969466 C16.3407181,9.74961832 16.2933537,10.4832061 16.3170359,11.240458 C16.3170359,11.4061069 16.4354469,11.5480916 16.6249045,11.5954198 C16.6959511,11.619084 16.7906799,11.619084 16.8617265,11.619084 C17.5958747,11.619084 18.3300229,11.5954198 19.0404889,11.5717557 C19.3957219,11.5717557 19.3957219,11.5717557 19.3957219,11.9267176 C19.3957219,12.4473282 19.3957219,12.9916031 19.3957219,13.5122137 C19.3957219,13.6068702 19.3720397,13.6541985 19.2536287,13.6541985 C18.6378915,13.6778626 18.0221543,13.6778626 17.4064171,13.7015267 C17.3116883,13.7015267 17.2169595,13.7015267 17.1222307,13.7251908 C16.8143621,13.748855 16.6249045,13.9381679 16.6249045,14.2694656 C16.6249045,14.9083969 16.6485867,15.5473282 16.6485867,16.1625954 C16.6722689,19.4045802 16.6959511,22.6465649 16.7196333,25.8885496 C16.7196333,26.0541985 16.7196333,26.0541985 16.5538579,26.0541985 C15.5355233,26.0541985 14.5408709,26.0778626 13.5225363,26.0778626 C13.4751719,26.0305344 13.4514897,26.0305344 13.3804431,26.0305344 Z" id="Shape" fill="#1E1C17"></path>
            </g>
        </g>
    </g>
</svg>