<?xml version="1.0" encoding="UTF-8"?>
<svg width="32px" height="32px" viewBox="0 0 32 32" version="1.1" xmlns="http://www.w3.org/2000/svg" xmlns:xlink="http://www.w3.org/1999/xlink">
    <!-- Generator: Sketch 47.1 (45422) - http://www.bohemiancoding.com/sketch -->
    <title>Instagram</title>
    <desc>Created with Sketch.</desc>
    <defs></defs>
    <g id="Mobile---Version-1" stroke="none" stroke-width="1" fill="none" fill-rule="evenodd">
        <g id="Instagram" fill-rule="nonzero">
            <g id="instagram-icon-white-on-black-circle">
                <path d="M15.9911439,0.00885608856 C24.8177122,0.00885608856 31.9763838,7.16752768 31.9763838,15.9940959 C31.9763838,24.8206642 24.8177122,31.9793358 15.9911439,31.9793358 C7.16457565,31.9793358 0.00590405904,24.8206642 0.00590405904,15.9940959 C0.00590405904,7.16457565 7.16457565,0.00885608856 15.9911439,0.00885608856 Z M15.9616236,25.6295203 C16.900369,25.6295203 17.8420664,25.6383764 18.7808118,25.6265683 C19.6398524,25.6147601 20.504797,25.6088561 21.3490775,25.4228782 C23.5247232,24.9387454 24.8856089,23.6191882 25.399262,21.4464945 C25.6118081,20.5549815 25.6177122,19.6428044 25.6236162,18.7335793 C25.6354244,16.8944649 25.6354244,15.0553506 25.6236162,13.2132841 C25.6177122,12.3394834 25.6088561,11.4597786 25.4199262,10.600738 C24.9653137,8.5402214 23.7431734,7.19114391 21.700369,6.61254613 C20.8767528,6.37933579 20.0324723,6.33800738 19.1852399,6.33210332 C17.0420664,6.31734317 14.895941,6.3202952 12.7527675,6.33210332 C12.0206642,6.33505535 11.2856089,6.3704797 10.5682657,6.53284133 C8.56088561,6.98745387 7.22656827,8.17416974 6.63321033,10.1638376 C6.38523985,10.9933579 6.34095941,11.8494465 6.33210332,12.7055351 C6.31143911,14.5535055 6.30553506,16.404428 6.31439114,18.2523985 C6.31734317,19.2442804 6.33210332,20.2391144 6.49741697,21.2221402 C6.85756458,23.3387454 8.37785978,24.9387454 10.4738007,25.399262 C11.3653137,25.5940959 12.2686347,25.6147601 13.1719557,25.6295203 C14.101845,25.6413284 15.0317343,25.6295203 15.9616236,25.6295203 Z" id="Shape" fill="#FFFFFF"></path>
                <path d="M15.9793358,8.00885609 C17.3254613,8.03837638 18.6745387,8.05608856 20.0206642,8.09741697 C20.7439114,8.11808118 21.4523985,8.25092251 22.0929889,8.60811808 C22.9815498,9.10405904 23.5158672,9.87453875 23.701845,10.8605166 C23.8110701,11.4273063 23.8730627,12.0118081 23.8760148,12.5874539 C23.896679,14.8457565 23.8907749,17.101107 23.8789668,19.3594096 C23.8760148,19.9940959 23.8376384,20.6287823 23.6693727,21.2457565 C23.2856089,22.6509225 22.3527675,23.4715867 20.9387454,23.7343173 C20.4428044,23.8258303 19.9321033,23.8730627 19.4302583,23.8760148 C17.1247232,23.8907749 14.8162362,23.8878229 12.5107011,23.8789668 C11.902583,23.8760148 11.2915129,23.8346863 10.698155,23.6723247 C9.30774908,23.2885609 8.49889299,22.3675277 8.21254613,20.9682657 C8.0501845,20.1623616 8.0501845,19.3446494 8.04428044,18.5298893 C8.03542435,16.5431734 8.0501845,14.5564576 8.06789668,12.5697417 C8.07380074,11.9350554 8.10922509,11.300369 8.2804428,10.6833948 C8.66715867,9.29889299 9.58819188,8.49594096 10.9815498,8.21549815 C11.8612546,8.04132841 12.7527675,8.05904059 13.6413284,8.04428044 C14.4177122,8.0295203 15.197048,8.04132841 15.9734317,8.04132841 C15.9793358,8.0295203 15.9793358,8.02066421 15.9793358,8.00885609 Z M11.0140221,15.9645756 C11.0110701,18.7070111 13.2191882,20.9298893 15.9498155,20.9387454 C18.704059,20.9446494 20.9328413,18.7335793 20.9387454,15.9852399 C20.9446494,13.2369004 18.7335793,11.0228782 15.9704797,11.0140221 C13.2428044,11.0051661 11.0169742,13.2280443 11.0140221,15.9645756 Z M21.1306273,11.9793358 C21.7712177,11.9793358 22.2907749,11.4568266 22.2907749,10.8132841 C22.2878229,10.1815498 21.7623616,9.66199262 21.1306273,9.66494465 C20.4900369,9.66494465 19.9645756,10.1933579 19.9704797,10.8309963 C19.9763838,11.4627306 20.495941,11.9793358 21.1306273,11.9793358 Z" id="Shape" fill="#FFFFFF"></path>
                <path d="M15.9704797,12.7409594 C17.7476015,12.7350554 19.197048,14.1785978 19.2059041,15.9645756 C19.2147601,17.7535055 17.7741697,19.202952 15.9793358,19.2059041 C14.19631,19.2088561 12.7498155,17.7741697 12.7409594,15.9881919 C12.7291513,14.2051661 14.1815498,12.7468635 15.9704797,12.7409594 Z" id="Shape" fill="#FFFFFF"></path>
                <g id="Group-2" opacity="0" transform="translate(6.000000, 6.000000)" fill="#1E1C17">
                    <path d="M5.01402214,9.96457565 C5.01697417,7.22804428 7.24280443,5.00516605 9.9704797,5.01402214 C12.7335793,5.02287823 14.9446494,7.23690037 14.9387454,9.98523985 C14.9328413,12.7335793 12.7070111,14.9446494 9.9498155,14.9387454 C7.21918819,14.9298893 5.01107011,12.7070111 5.01402214,9.96457565 Z M9.9704797,6.74095941 C8.18154982,6.74686347 6.72915129,8.20516605 6.74095941,9.98819188 C6.75276753,11.7741697 8.19630996,13.2118081 9.97933579,13.2059041 C11.7741697,13.202952 13.2118081,11.7535055 13.2059041,9.96457565 C13.197048,8.17859779 11.7476015,6.73505535 9.9704797,6.74095941 Z" id="Shape"></path>
                    <path d="M15.1306273,5.97933579 C14.495941,5.97933579 13.9763838,5.46568266 13.9704797,4.83099631 C13.9645756,4.19335793 14.4900369,3.66494465 15.1306273,3.66494465 C15.7653137,3.66494465 16.2907749,4.18450185 16.2907749,4.81328413 C16.2907749,5.45387454 15.7712177,5.97638376 15.1306273,5.97933579 Z" id="Shape"></path>
                    <path d="M9.96162362,19.6295203 C9.03173432,19.6295203 8.10184502,19.6413284 7.17195572,19.6265683 C6.26863469,19.6147601 5.36236162,19.5940959 4.47380074,19.39631 C2.37785978,18.9357934 0.857564576,17.3357934 0.497416974,15.2191882 C0.329151292,14.2332103 0.317343173,13.2413284 0.314391144,12.2494465 C0.308487085,10.401476 0.311439114,8.55055351 0.332103321,6.70258303 C0.34095941,5.84649446 0.385239852,4.9904059 0.633210332,4.16088561 C1.22656827,2.17416974 2.56088561,0.984501845 4.56826568,0.529889299 C5.28856089,0.367527675 6.02066421,0.332103321 6.75276753,0.329151292 C8.89594096,0.317343173 11.0420664,0.314391144 13.1852399,0.329151292 C14.0295203,0.335055351 14.8767528,0.376383764 15.700369,0.609594096 C17.7461255,1.18819188 18.9653137,2.53726937 19.4199262,4.59778598 C19.6088561,5.45682657 19.6177122,6.33653137 19.6236162,7.2103321 C19.6354244,9.04944649 19.6354244,10.8885609 19.6236162,12.7306273 C19.6177122,13.6398524 19.6118081,14.5520295 19.399262,15.4435424 C18.8826568,17.6162362 17.5217712,18.9387454 15.3490775,19.4199262 C14.504797,19.6088561 13.6398524,19.6118081 12.7808118,19.6236162 C11.8420664,19.6383764 10.903321,19.6295203 9.96162362,19.6295203 Z M9.97933579,2.00885609 C9.97933579,2.01771218 9.97933579,2.0295203 9.97933579,2.03837638 C9.20295203,2.03837638 8.42361624,2.02656827 7.64723247,2.04132841 C6.75867159,2.05904059 5.86420664,2.03837638 4.98745387,2.21254613 C3.59409594,2.4900369 2.6701107,3.29594096 2.28634686,4.6804428 C2.11512915,5.29741697 2.07675277,5.93210332 2.07380074,6.56678967 C2.05608856,8.55350554 2.04132841,10.5402214 2.0501845,12.5269373 C2.05313653,13.3416974 2.05313653,14.1623616 2.21845018,14.9653137 C2.50184502,16.3645756 3.31070111,17.2856089 4.70405904,17.6693727 C5.29741697,17.8317343 5.90848708,17.8730627 6.51660517,17.8760148 C8.82214022,17.8848708 11.1306273,17.8878229 13.4361624,17.8730627 C13.9409594,17.8701107 14.4516605,17.8228782 14.9446494,17.7313653 C16.3586716,17.4686347 17.2915129,16.6509225 17.6752768,15.2428044 C17.8435424,14.6258303 17.8819188,13.9911439 17.8848708,13.3564576 C17.896679,11.098155 17.899631,8.84280443 17.8819188,6.58450185 C17.8760148,6.00885609 17.8140221,5.42435424 17.7077491,4.85756458 C17.5188192,3.87158672 16.9845018,3.10110701 16.098893,2.60516605 C15.4583026,2.24797048 14.7498155,2.11808118 14.0265683,2.09446494 C12.6745387,2.05904059 11.3254613,2.03837638 9.97933579,2.00885609 Z" id="Shape"></path>
                </g>
            </g>
        </g>
    </g>
</svg>