<?xml version="1.0" encoding="UTF-8"?>
<svg width="31px" height="31px" viewBox="0 0 31 31" version="1.1" xmlns="http://www.w3.org/2000/svg" xmlns:xlink="http://www.w3.org/1999/xlink">
    <!-- Generator: Sketch 47.1 (45422) - http://www.bohemiancoding.com/sketch -->
    <title>Insta</title>
    <desc>Created with Sketch.</desc>
    <defs></defs>
    <g id="Final---Version-1" stroke="none" stroke-width="1" fill="none" fill-rule="evenodd">
        <g id="Insta" fill-rule="nonzero">
            <g id="instagram-icon-white-on-black-circle-copy">
                <path d="M15.4914207,0.00857933579 C24.0421587,0.00857933579 30.9771218,6.94354244 30.9771218,15.4942804 C30.9771218,24.0450185 24.0421587,30.9799815 15.4914207,30.9799815 C6.94068266,30.9799815 0.0057195572,24.0450185 0.0057195572,15.4942804 C0.0057195572,6.94068266 6.94068266,0.00857933579 15.4914207,0.00857933579 Z M15.4628229,24.8285978 C16.3722325,24.8285978 17.2845018,24.8371771 18.1939114,24.825738 C19.026107,24.8142989 19.8640221,24.8085793 20.6819188,24.6284133 C22.7895756,24.1594096 24.1079336,22.8810886 24.6055351,20.7762915 C24.8114391,19.9126384 24.8171587,19.0289668 24.8228782,18.148155 C24.8343173,16.3665129 24.8343173,14.5848708 24.8228782,12.800369 C24.8171587,11.9538745 24.8085793,11.1016605 24.6255535,10.2694649 C24.1851476,8.27333948 23.0011993,6.96642066 21.0222325,6.40590406 C20.2243542,6.17998155 19.4064576,6.13994465 18.5857011,6.13422509 C16.5095018,6.1199262 14.4304428,6.12278598 12.3542435,6.13422509 C11.6450185,6.13708487 10.9329336,6.17140221 10.2380074,6.32869004 C8.29335793,6.76909594 7.00073801,7.91872694 6.42592251,9.84621771 C6.18570111,10.6498155 6.14280443,11.4791513 6.13422509,12.3084871 C6.11420664,14.0987085 6.10848708,15.8917897 6.11706642,17.6820111 C6.1199262,18.6428967 6.13422509,19.6066421 6.29437269,20.5589483 C6.64326568,22.6094096 8.11605166,24.1594096 10.1464945,24.6055351 C11.0101476,24.7942804 11.8852399,24.8142989 12.7603321,24.8285978 C13.6611624,24.8400369 14.5619926,24.8285978 15.4628229,24.8285978 Z" id="Shape" fill="#7A7977"></path>
                <path d="M15.4628229,24.8285978 C14.5619926,24.8285978 13.6611624,24.8400369 12.7603321,24.825738 C11.8852399,24.8142989 11.0072878,24.7942804 10.1464945,24.6026753 C8.11605166,24.1565498 6.64326568,22.6065498 6.29437269,20.5560886 C6.13136531,19.6009225 6.1199262,18.6400369 6.11706642,17.6791513 C6.11134686,15.8889299 6.11420664,14.0958487 6.13422509,12.3056273 C6.14280443,11.4762915 6.18570111,10.6469557 6.42592251,9.84335793 C7.00073801,7.91872694 8.29335793,6.76623616 10.2380074,6.32583026 C10.9357934,6.16854244 11.6450185,6.13422509 12.3542435,6.13136531 C14.4304428,6.1199262 16.5095018,6.11706642 18.5857011,6.13136531 C19.4035978,6.13708487 20.2243542,6.17712177 21.0222325,6.40304428 C23.004059,6.96356089 24.1851476,8.2704797 24.6255535,10.2666052 C24.8085793,11.0988007 24.8171587,11.9510148 24.8228782,12.7975092 C24.8343173,14.5791513 24.8343173,16.3607934 24.8228782,18.1452952 C24.8171587,19.026107 24.8114391,19.9097786 24.6055351,20.7734317 C24.1050738,22.8782288 22.7867159,24.1594096 20.6819188,24.6255535 C19.8640221,24.8085793 19.026107,24.8114391 18.1939114,24.8228782 C17.2845018,24.8371771 16.3750923,24.8285978 15.4628229,24.8285978 Z M15.4799815,7.75857934 C15.4799815,7.76715867 15.4799815,7.77859779 15.4799815,7.78717712 C14.7278598,7.78717712 13.9728782,7.77573801 13.2207565,7.7900369 C12.3599631,7.80719557 11.4934502,7.78717712 10.6440959,7.95590406 C9.29428044,8.22472325 8.39916974,9.0054428 8.02739852,10.346679 C7.86153137,10.9443727 7.82435424,11.5592251 7.82149446,12.1740775 C7.80433579,14.0987085 7.7900369,16.0233395 7.79861624,17.9479705 C7.80147601,18.7372694 7.80147601,19.5322878 7.96162362,20.3101476 C8.23616236,21.6656827 9.0197417,22.5579336 10.3695572,22.9297048 C10.9443727,23.0869926 11.5363469,23.1270295 12.1254613,23.1298893 C14.3589483,23.1384686 16.5952952,23.1413284 18.8287823,23.1270295 C19.3178044,23.1241697 19.8125461,23.0784133 20.2901292,22.9897601 C21.6599631,22.7352399 22.5636531,21.9430812 22.9354244,20.5789668 C23.0984317,19.9812731 23.1356089,19.3664207 23.1384686,18.7515683 C23.1499077,16.5638376 23.1527675,14.3789668 23.1356089,12.1912362 C23.1298893,11.6335793 23.0698339,11.0673432 22.9668819,10.5182657 C22.7838561,9.56309963 22.2662362,8.81669742 21.4083026,8.33625461 C20.7877306,7.9902214 20.1013838,7.86439114 19.400738,7.84151292 C18.0909594,7.80719557 16.7840406,7.78717712 15.4799815,7.75857934 Z" id="Shape" fill="#1E1C17"></path>
                <path d="M15.4799815,7.75857934 C16.7840406,7.78717712 18.0909594,7.80433579 19.3950185,7.84437269 C20.0956642,7.86439114 20.7820111,7.99308118 21.402583,8.33911439 C22.2633764,8.8195572 22.7809963,9.56595941 22.9611624,10.5211255 C23.0669742,11.070203 23.1270295,11.6364391 23.1298893,12.1940959 C23.1499077,14.3818266 23.1441882,16.5666974 23.1327491,18.754428 C23.1298893,19.3692804 23.0927122,19.9841328 22.9297048,20.5818266 C22.5579336,21.9430812 21.6542435,22.7380996 20.2844096,22.9926199 C19.8039668,23.0812731 19.3092251,23.1270295 18.8230627,23.1298893 C16.5895756,23.1441882 14.3532288,23.1413284 12.1197417,23.1327491 C11.5306273,23.1298893 10.9386531,23.0898524 10.3638376,22.9325646 C9.01688192,22.5607934 8.23330258,21.6685424 7.95590406,20.3130074 C7.79861624,19.5322878 7.79861624,18.7401292 7.79289668,17.9508303 C7.78431734,16.0261993 7.79861624,14.1015683 7.81577491,12.1769373 C7.82149446,11.5620849 7.85581181,10.9472325 8.02167897,10.3495387 C8.39630996,9.00830258 9.28856089,8.2304428 10.6383764,7.95876384 C11.4905904,7.7900369 12.3542435,7.80719557 13.2150369,7.79289668 C13.9671587,7.77859779 14.7221402,7.7900369 15.474262,7.7900369 C15.4799815,7.77859779 15.4799815,7.77001845 15.4799815,7.75857934 Z M10.6698339,15.4656827 C10.6669742,18.122417 12.8060886,20.2758303 15.4513838,20.2844096 C18.1195572,20.2901292 20.27869,18.148155 20.2844096,15.4857011 C20.2901292,12.8232472 18.148155,10.6784133 15.4714022,10.6698339 C12.8289668,10.6612546 10.6726937,12.8146679 10.6698339,15.4656827 Z M20.4702952,11.6049815 C21.0908672,11.6049815 21.5941882,11.0988007 21.5941882,10.475369 C21.5913284,9.86337638 21.0822878,9.36005535 20.4702952,9.36291513 C19.8497232,9.36291513 19.3406827,9.8748155 19.3464022,10.4925277 C19.3521218,11.1045203 19.8554428,11.6049815 20.4702952,11.6049815 Z" id="Shape" fill="#7A7977"></path>
                <path d="M10.6698339,15.4656827 C10.6726937,12.8146679 12.8289668,10.6612546 15.4714022,10.6698339 C18.148155,10.6784133 20.2901292,12.8232472 20.2844096,15.4857011 C20.27869,18.148155 18.122417,20.2901292 15.4513838,20.2844096 C12.8060886,20.2758303 10.6669742,18.122417 10.6698339,15.4656827 Z M15.4714022,12.3428044 C13.7383764,12.348524 12.3313653,13.7612546 12.3428044,15.4885609 C12.3542435,17.2187269 13.7526753,18.6114391 15.4799815,18.6057196 C17.2187269,18.6028598 18.6114391,17.1987085 18.6057196,15.4656827 C18.5971402,13.7355166 17.1929889,12.3370849 15.4714022,12.3428044 Z" id="Shape" fill="#1E1C17"></path>
                <path d="M20.4702952,11.6049815 C19.8554428,11.6049815 19.3521218,11.1073801 19.3464022,10.4925277 C19.3406827,9.8748155 19.8497232,9.36291513 20.4702952,9.36291513 C21.0851476,9.36291513 21.5941882,9.86623616 21.5941882,10.475369 C21.5941882,11.095941 21.0908672,11.6021218 20.4702952,11.6049815 Z" id="Shape" fill="#1E1C17"></path>
                <path d="M15.4714022,12.3428044 C17.1929889,12.3370849 18.5971402,13.7355166 18.6057196,15.4656827 C18.6142989,17.1987085 17.2187269,18.6028598 15.4799815,18.6057196 C13.7526753,18.6085793 12.3513838,17.2187269 12.3428044,15.4885609 C12.3313653,13.7612546 13.7383764,12.348524 15.4714022,12.3428044 Z" id="Shape" fill="#7A7977"></path>
            </g>
        </g>
    </g>
</svg>