<?xml version="1.0" encoding="UTF-8"?>
<svg width="32px" height="32px" viewBox="0 0 32 32" version="1.1" xmlns="http://www.w3.org/2000/svg" xmlns:xlink="http://www.w3.org/1999/xlink">
    <!-- Generator: Sketch 47.1 (45422) - http://www.bohemiancoding.com/sketch -->
    <title>Group Copy 17</title>
    <desc>Created with Sketch.</desc>
    <defs></defs>
    <g id="Mobile---Version-1" stroke="none" stroke-width="1" fill="none" fill-rule="evenodd">
        <g id="Artboard" fill-rule="nonzero" fill="#FFFFFF">
            <g id="Group-Copy-17">
                <path d="M15.7268261,0.170992366 C24.3334276,0.195419847 31.2618617,7.30381679 31.2378878,16.048855 C31.1899402,24.7938931 24.2375323,31.8534351 15.6549047,31.8290076 C7.09625081,31.8045802 0.143842922,24.6961832 0.191790562,15.9755725 C0.215764383,7.20610687 7.16817227,0.146564885 15.7268261,0.170992366 Z M24.4053491,23.4259542 C24.4053491,23.3282443 24.4293229,23.2549618 24.4293229,23.1572519 C24.4293229,21.1541985 24.4532967,19.151145 24.4053491,17.1480916 C24.3813752,16.4641221 24.28548,15.7557252 24.0936894,15.1206107 C23.6621606,13.6793893 22.7032078,12.751145 21.216831,12.4824427 C19.6585326,12.2137405 18.3159987,12.5801527 17.3570459,13.9480916 C17.3330721,13.9969466 17.2851244,14.0458015 17.1892292,14.1435115 L17.1892292,12.7022901 L13.7130252,12.7022901 L13.7130252,23.4503817 L17.213203,23.4503817 L17.213203,23.059542 L17.213203,17.3679389 C17.213203,16.8061069 17.3570459,16.3175573 17.7166532,15.9022901 C18.2201034,15.3160305 18.8673966,15.1206107 19.610585,15.3160305 C20.3058258,15.4870229 20.6414593,16 20.7853022,16.659542 C20.8572237,17.0503817 20.9051713,17.4656489 20.9051713,17.8564885 C20.9291451,19.5908397 20.9051713,21.3007634 20.9051713,23.0351145 L20.9051713,23.4503817 C22.1038623,23.4259542 23.2306319,23.4259542 24.4053491,23.4259542 Z M11.7231981,12.7022901 L8.24699418,12.7022901 L8.24699418,23.4259542 L11.7231981,23.4259542 L11.7231981,12.7022901 Z M9.99708306,11.1877863 C10.9080882,11.1877863 11.603329,10.7480916 11.867041,9.99083969 C12.2266484,9.01374046 11.7471719,7.9389313 10.7882191,7.59694656 C9.6854234,7.20610687 8.48673239,7.69465649 8.12712508,8.69618321 C7.69559632,9.99083969 8.58262767,11.2122137 9.99708306,11.1877863 Z" id="Shape"></path>
            </g>
        </g>
    </g>
</svg>