<?xml version="1.0" encoding="UTF-8"?>
<svg width="31px" height="31px" viewBox="0 0 31 31" version="1.1" xmlns="http://www.w3.org/2000/svg" xmlns:xlink="http://www.w3.org/1999/xlink">
    <!-- Generator: Sketch 47.1 (45422) - http://www.bohemiancoding.com/sketch -->
    <title>Artboard</title>
    <desc>Created with Sketch.</desc>
    <defs></defs>
    <g id="Final---Version-1" stroke="none" stroke-width="1" fill="none" fill-rule="evenodd">
        <g id="Artboard" fill-rule="nonzero">
            <g id="Group-Copy-17">
                <path d="M15.2353628,0.165648855 C23.573008,0.189312977 30.2849285,7.07557252 30.2617039,15.5473282 C30.2152546,24.019084 23.4801094,30.8580153 15.1656889,30.8343511 C6.87449297,30.810687 0.13934783,23.9244275 0.185797107,15.4763359 C0.209021746,6.98091603 6.94416689,0.141984733 15.2353628,0.165648855 Z M23.6426819,22.6938931 C23.6426819,22.5992366 23.6659065,22.5282443 23.6659065,22.4335878 C23.6659065,20.4931298 23.6891312,18.5526718 23.6426819,16.6122137 C23.6194573,15.9496183 23.5265587,15.2633588 23.3407616,14.6480916 C22.9227181,13.2519084 21.9937326,12.3526718 20.553805,12.0923664 C19.0442035,11.8320611 17.7436237,12.1870229 16.8146382,13.5122137 C16.7914136,13.559542 16.7449643,13.6068702 16.6520657,13.7015267 L16.6520657,12.3053435 L13.2844932,12.3053435 L13.2844932,22.7175573 L16.6752904,22.7175573 L16.6752904,22.3389313 L16.6752904,16.8251908 C16.6752904,16.280916 16.8146382,15.8076336 17.1630078,15.4053435 C17.6507252,14.8374046 18.2777904,14.6480916 18.9977542,14.8374046 C19.6712687,15.0030534 19.9964137,15.5 20.1357615,16.1389313 C20.2054354,16.5175573 20.2518847,16.9198473 20.2518847,17.2984733 C20.2751093,18.978626 20.2518847,20.6351145 20.2518847,22.3152672 L20.2518847,22.7175573 C21.4131166,22.6938931 22.5046746,22.6938931 23.6426819,22.6938931 Z M11.3568482,12.3053435 L7.98927561,12.3053435 L7.98927561,22.6938931 L11.3568482,22.6938931 L11.3568482,12.3053435 Z M9.68467422,10.8381679 C10.5672105,10.8381679 11.240725,10.4122137 11.496196,9.67862595 C11.8445656,8.73206107 11.3800728,7.69083969 10.4510873,7.35954198 C9.38275392,6.98091603 8.221522,7.45419847 7.87315242,8.42442748 C7.45510893,9.67862595 8.31442055,10.8618321 9.68467422,10.8381679 Z" id="Shape" fill="#7A7977"></path>
                <path d="M23.6426819,22.6938931 L20.2751093,22.6938931 L20.2751093,22.2916031 L20.2751093,17.2748092 C20.2751093,16.8961832 20.2518847,16.4938931 20.1589861,16.1152672 C20.0196383,15.4763359 19.6944934,14.9793893 19.0209789,14.8137405 C18.3010151,14.6480916 17.6739498,14.8137405 17.1862324,15.3816794 C16.8378628,15.7839695 16.698515,16.2572519 16.698515,16.8015267 L16.698515,22.3152672 L16.698515,22.6938931 L13.3077178,22.6938931 L13.3077178,12.2816794 L16.6752904,12.2816794 L16.6752904,13.6778626 C16.7681889,13.5832061 16.8146382,13.5358779 16.8378628,13.4885496 C17.7668484,12.1633588 19.0674281,11.8083969 20.5770296,12.0687023 C22.0169572,12.3290076 22.9459428,13.2282443 23.3639862,14.6244275 C23.5497834,15.2633588 23.6426819,15.9259542 23.6659065,16.5885496 C23.7123558,18.5290076 23.6891312,20.4694656 23.6891312,22.4099237 C23.6659065,22.5282443 23.6426819,22.5992366 23.6426819,22.6938931 Z" id="Shape" fill="#1E1C17"></path>
                <path d="M11.3568482,12.3053435 L11.3568482,22.6938931 L7.98927561,22.6938931 L7.98927561,12.3053435 C9.10405826,12.3053435 10.2188409,12.3053435 11.3568482,12.3053435 Z" id="Shape" fill="#1E1C17"></path>
                <path d="M9.68467422,10.8381679 C8.31442055,10.8381679 7.45510893,9.67862595 7.87315242,8.42442748 C8.19829736,7.45419847 9.38275392,6.98091603 10.4510873,7.35954198 C11.3800728,7.69083969 11.8445656,8.73206107 11.496196,9.67862595 C11.240725,10.4122137 10.5672105,10.8381679 9.68467422,10.8381679 Z" id="Shape" fill="#1E1C17"></path>
            </g>
        </g>
    </g>
</svg>