<?xml version="1.0" encoding="UTF-8"?>
<svg width="21px" height="21px" viewBox="0 0 21 21" version="1.1" xmlns="http://www.w3.org/2000/svg" xmlns:xlink="http://www.w3.org/1999/xlink">
    <!-- Generator: Sketch 47.1 (45422) - http://www.bohemiancoding.com/sketch -->
    <title>Tech - active</title>
    <desc>Created with Sketch.</desc>
    <defs>
        <linearGradient x1="20%" y1="140%" x2="127.5%" y2="100%" id="linearGradient-1">
            <stop stop-color="#5D33E5" offset="0%"></stop>
            <stop stop-color="#58A1FF" offset="100%"></stop>
        </linearGradient>
    </defs>
    <g id="Final---Version-1" stroke="none" stroke-width="1" fill="none" fill-rule="evenodd">
        <g id="Tech---active" fill="url(#linearGradient-1)">
            <g id="radio-on-copy-6">
                <path d="M10.5,5.5 C7.7,5.5 5.5,7.7 5.5,10.5 C5.5,13.3 7.7,15.5 10.5,15.5 C13.3,15.5 15.5,13.3 15.5,10.5 C15.5,7.7 13.3,5.5 10.5,5.5 L10.5,5.5 Z M10.5,0.5 C5,0.5 0.5,5 0.5,10.5 C0.5,16 5,20.5 10.5,20.5 C16,20.5 20.5,16 20.5,10.5 C20.5,5 16,0.5 10.5,0.5 L10.5,0.5 Z M10.5,18.5 C6.1,18.5 2.5,14.9 2.5,10.5 C2.5,6.1 6.1,2.5 10.5,2.5 C14.9,2.5 18.5,6.1 18.5,10.5 C18.5,14.9 14.9,18.5 10.5,18.5 L10.5,18.5 Z" id="Shape"></path>
            </g>
        </g>
    </g>
</svg>