<?xml version="1.0" encoding="UTF-8"?>
<svg width="32px" height="32px" viewBox="0 0 32 32" version="1.1" xmlns="http://www.w3.org/2000/svg" xmlns:xlink="http://www.w3.org/1999/xlink">
    <!-- Generator: Sketch 47.1 (45422) - http://www.bohemiancoding.com/sketch -->
    <title>FB</title>
    <desc>Created with Sketch.</desc>
    <defs></defs>
    <g id="Mobile---Version-1" stroke="none" stroke-width="1" fill="none" fill-rule="evenodd">
        <g id="FB" fill-rule="nonzero">
            <g id="Shape">
                <path d="M31.8533231,15.3648855 C31.8533231,15.7801527 31.8533231,16.2198473 31.8533231,16.6351145 C31.8533231,16.6839695 31.828877,16.7328244 31.828877,16.7816794 C31.7555386,17.3679389 31.7310924,17.978626 31.6333079,18.5648855 C31.1932773,21.2519084 30.1420932,23.670229 28.4553094,25.7954198 C25.6440031,29.3129771 21.9770817,31.3160305 17.5034377,31.7557252 C14.9854851,32 12.565317,31.6580153 10.2184874,30.729771 C7.08938121,29.4839695 4.59587471,27.4564885 2.7868602,24.6473282 C0.415584416,20.9832061 -0.317799847,17.0259542 0.537815126,12.7755725 C1.27119939,9.18473282 3.0802139,6.22900763 5.8670741,3.85954198 C8.3605806,1.75877863 11.2452254,0.561832061 14.4965623,0.244274809 C14.789916,0.219847328 15.0832697,0.195419847 15.3766234,0.170992366 C15.7922078,0.170992366 16.2322383,0.170992366 16.6478228,0.170992366 C16.9411765,0.195419847 17.2589763,0.219847328 17.55233,0.244274809 C19.4102368,0.415267176 21.1948052,0.903816794 22.881589,1.73435115 C25.7906799,3.15114504 28.0641711,5.27633588 29.7020626,8.0610687 C30.8510313,10.0396947 31.5355233,12.189313 31.7555386,14.4610687 C31.8044309,14.778626 31.828877,15.0717557 31.8533231,15.3648855 Z M13.8120703,26.870229 C13.8609626,26.870229 13.9098549,26.870229 13.9587471,26.870229 C15.0099312,26.870229 16.0366692,26.8458015 17.0878533,26.8458015 C17.2589763,26.8458015 17.2589763,26.8458015 17.2589763,26.6748092 C17.2345302,23.3282443 17.210084,19.9816794 17.1856379,16.6351145 C17.1856379,15.9755725 17.1611917,15.3160305 17.1611917,14.680916 C17.1611917,14.3633588 17.3567609,14.1435115 17.6745607,14.119084 C17.7723453,14.119084 17.8701299,14.119084 17.9679144,14.0946565 C18.6035141,14.070229 19.2391138,14.0458015 19.8747135,14.0458015 C19.9724981,14.0458015 20.0213904,13.9969466 20.0213904,13.8992366 C20.0213904,13.3618321 20.0213904,12.8 20.0213904,12.2625954 C20.0213904,11.8961832 20.0213904,11.8961832 19.6546982,11.8961832 C18.8968678,11.8961832 18.1390374,11.9206107 17.4056532,11.9450382 C17.3323147,11.9450382 17.2345302,11.9450382 17.1611917,11.9206107 C16.9656226,11.8717557 16.8433919,11.7496183 16.8433919,11.5541985 C16.8189458,10.7725191 16.867838,10.0152672 17.1367456,9.28244275 C17.4545455,8.40305344 18.0901451,7.89007634 19.0190985,7.81679389 C19.5324675,7.76793893 20.0213904,7.86564885 20.5103132,7.98778626 C20.6325439,8.01221374 20.7547746,8.0610687 20.8770053,8.08549618 C20.9258976,7.9389313 20.9747899,7.81679389 20.9992361,7.69465649 C21.1214668,7.10839695 21.2436975,6.54656489 21.3659282,5.96030534 C21.3903743,5.83816794 21.3659282,5.7648855 21.2192513,5.74045802 C20.6325439,5.54503817 20.0458365,5.39847328 19.434683,5.30076336 C18.407945,5.15419847 17.381207,5.15419847 16.3544691,5.44732824 C15.5966387,5.66717557 14.9121467,6.00916031 14.3498854,6.59541985 C13.8120703,7.15725191 13.5431627,7.86564885 13.3720397,8.59847328 C13.2009167,9.42900763 13.1520244,10.259542 13.1275783,11.0900763 C13.1275783,11.480916 12.9320092,11.6763359 12.5408709,11.6763359 C11.9786096,11.7007634 11.4407945,11.7007634 10.8785332,11.7007634 C10.8296409,11.7007634 10.7807487,11.7007634 10.7318564,11.7007634 C10.7318564,12.4580153 10.7318564,13.2152672 10.7318564,13.9725191 C10.7807487,13.9725191 10.8296409,13.9725191 10.8540871,13.9725191 C11.6119175,13.9725191 12.3697479,13.9969466 13.1031322,13.9969466 C13.4453782,13.9969466 13.6653934,14.1923664 13.6653934,14.5343511 C13.7142857,15.5847328 13.763178,16.6351145 13.763178,17.6854962 C13.7876241,20.6656489 13.7876241,23.621374 13.8120703,26.6015267 C13.8120703,26.6992366 13.8120703,26.7725191 13.8120703,26.870229 Z" fill="#FFFFFF"></path>
                <path d="M13.8120703,26.870229 C13.8120703,26.7969466 13.8120703,26.7236641 13.8120703,26.6503817 C13.8120703,23.670229 13.7876241,20.7145038 13.763178,17.7343511 C13.763178,16.6839695 13.6898396,15.6335878 13.6653934,14.5832061 C13.6653934,14.2412214 13.4453782,14.0458015 13.1031322,14.0458015 C12.3453018,14.0458015 11.5874714,14.021374 10.8540871,14.021374 C10.8051948,14.021374 10.7807487,14.021374 10.7318564,14.021374 C10.7318564,13.2641221 10.7318564,12.5068702 10.7318564,11.7496183 C10.7807487,11.7496183 10.8296409,11.7496183 10.8785332,11.7496183 C11.4407945,11.7496183 11.9786096,11.7251908 12.5408709,11.7251908 C12.9320092,11.7251908 13.1031322,11.529771 13.1275783,11.1389313 C13.1520244,10.3083969 13.2009167,9.4778626 13.3720397,8.64732824 C13.5431627,7.89007634 13.8120703,7.20610687 14.3498854,6.64427481 C14.8877005,6.05801527 15.5966387,5.71603053 16.3544691,5.49618321 C17.3567609,5.20305344 18.3834989,5.20305344 19.434683,5.34961832 C20.0458365,5.44732824 20.6325439,5.59389313 21.2192513,5.78931298 C21.341482,5.83816794 21.3903743,5.8870229 21.3659282,6.00916031 C21.2436975,6.59541985 21.1214668,7.15725191 20.9992361,7.74351145 C20.9747899,7.86564885 20.9258976,7.98778626 20.8770053,8.13435115 C20.7547746,8.10992366 20.6325439,8.0610687 20.5103132,8.03664122 C20.0213904,7.91450382 19.5324675,7.81679389 19.0190985,7.86564885 C18.065699,7.9389313 17.4545455,8.47633588 17.1367456,9.33129771 C16.867838,10.0641221 16.8189458,10.821374 16.8433919,11.6030534 C16.8433919,11.7740458 16.9656226,11.9206107 17.1611917,11.9694656 C17.2345302,11.9938931 17.3323147,11.9938931 17.4056532,11.9938931 C18.1634836,11.9938931 18.921314,11.9694656 19.6546982,11.9450382 C20.0213904,11.9450382 20.0213904,11.9450382 20.0213904,12.3114504 C20.0213904,12.848855 20.0213904,13.410687 20.0213904,13.9480916 C20.0213904,14.0458015 19.9969442,14.0946565 19.8747135,14.0946565 C19.2391138,14.119084 18.6035141,14.119084 17.9679144,14.1435115 C17.8701299,14.1435115 17.7723453,14.1435115 17.6745607,14.1679389 C17.3567609,14.1923664 17.1611917,14.3877863 17.1611917,14.729771 C17.1611917,15.389313 17.1856379,16.048855 17.1856379,16.6839695 C17.210084,20.0305344 17.2345302,23.3770992 17.2589763,26.7236641 C17.2589763,26.8946565 17.2589763,26.8946565 17.0878533,26.8946565 C16.0366692,26.8946565 15.0099312,26.919084 13.9587471,26.919084 C13.9098549,26.870229 13.8854087,26.870229 13.8120703,26.870229 Z" fill-opacity="0" fill="#1E1C17"></path>
            </g>
        </g>
    </g>
</svg>