<?xml version="1.0" encoding="UTF-8"?>
<svg width="32px" height="32px" viewBox="0 0 32 32" version="1.1" xmlns="http://www.w3.org/2000/svg" xmlns:xlink="http://www.w3.org/1999/xlink">
    <!-- Generator: Sketch 47.1 (45422) - http://www.bohemiancoding.com/sketch -->
    <title>Medium</title>
    <desc>Created with Sketch.</desc>
    <defs></defs>
    <g id="Mobile---Version-1" stroke="none" stroke-width="1" fill="none" fill-rule="evenodd">
        <g id="Medium" fill-rule="nonzero">
            <g id="M">
                <path d="M31.8700508,16.1142857 C31.8538071,24.8816327 24.7228426,31.9836735 15.9837563,31.9836735 C7.11472081,31.9673469 0.129949239,24.8 0.146192893,15.722449 C0.162436548,7.16734694 7.39086294,0.0816326531 16.0324873,0.114285714 C24.8690355,0.146938776 31.9025381,7.24897959 31.8700508,16.1142857 Z M12.4588832,17.355102 C12.4588832,15.3959184 12.4588832,13.4367347 12.4588832,11.477551 C12.4588832,11.1673469 12.5076142,10.8571429 12.1177665,10.6612245 C10.4609137,9.86122449 8.82030457,9.02857143 7.19593909,8.19591837 C6.85482234,8.03265306 6.74111675,8.06530612 6.74111675,8.47346939 C6.75736041,12.4081633 6.75736041,16.3591837 6.74111675,20.2938776 C6.74111675,20.6693878 6.87106599,20.8816327 7.21218274,21.044898 C8.80406091,21.8285714 10.3959391,22.644898 11.9878173,23.444898 C12.377665,23.6408163 12.4751269,23.5428571 12.4751269,23.1183673 C12.4426396,21.2081633 12.4588832,19.2816327 12.4588832,17.355102 Z M24.9502538,10.9061224 C24.9502538,10.644898 24.7228426,10.6122449 24.5766497,10.5306122 C22.9685279,9.71428571 21.3279188,8.91428571 19.719797,8.08163265 C19.3624365,7.90204082 19.2,7.98367347 19.0050761,8.29387755 C17.884264,10.155102 16.7472081,12 15.5939086,13.844898 C15.3989848,14.155102 15.4314721,14.3673469 15.6101523,14.644898 C16.6984772,16.3918367 17.786802,18.1387755 18.8426396,19.9183673 C19.151269,20.4408163 19.2812183,20.1795918 19.4761421,19.8530612 C21.2304569,16.9795918 22.9685279,14.1061224 24.7228426,11.2326531 C24.8203046,11.1346939 24.8852792,11.0204082 24.9502538,10.9061224 Z M25.1939086,17.7959184 C25.1939086,16.0653061 25.1939086,14.3183673 25.1939086,12.5877551 C25.1939086,12.4408163 25.2913706,12.2285714 25.080203,12.1795918 C25.0152284,12.1632653 24.9015228,12.3428571 24.8365482,12.4571429 C23.1959391,15.1346939 21.5553299,17.8122449 19.8984772,20.4897959 C19.671066,20.8489796 19.7522843,20.9632653 20.093401,21.1265306 C21.6040609,21.8612245 23.0984772,22.5959184 24.5766497,23.3795918 C25.2101523,23.722449 25.2101523,23.444898 25.2101523,22.9387755 C25.177665,21.2081633 25.1939086,19.5102041 25.1939086,17.7959184 Z M13.1898477,11.9510204 C13.1573604,12.1795918 13.1248731,12.2612245 13.1248731,12.3591837 C13.1248731,14.0244898 13.1248731,15.6734694 13.1248731,17.3387755 C13.1248731,17.6163265 13.2873096,17.7142857 13.4822335,17.8122449 C14.8142132,18.4653061 16.1461929,19.1346939 17.4781726,19.8040816 C17.6243655,19.8693878 17.7705584,20.0163265 17.9167513,19.8857143 C17.9654822,19.8367347 17.8680203,19.6081633 17.8030457,19.4938776 C16.3573604,17.1102041 14.8954315,14.7265306 13.4497462,12.3428571 C13.3847716,12.244898 13.319797,12.1632653 13.1898477,11.9510204 Z" id="Shape" fill="#FFFFFF"></path>
                <g id="Group-3" opacity="0" transform="translate(6.000000, 8.000000)" fill="#1E1C17">
                    <path d="M6.45888325,9.35510204 C6.45888325,11.2816327 6.44263959,13.2081633 6.45888325,15.1510204 C6.45888325,15.5755102 6.36142132,15.6897959 5.9715736,15.477551 C4.37969543,14.6612245 2.78781726,13.8612245 1.19593909,13.077551 C0.854822335,12.9142857 0.724873096,12.6857143 0.724873096,12.3265306 C0.741116751,8.39183673 0.741116751,4.44081633 0.724873096,0.506122449 C0.724873096,0.0816326531 0.83857868,0.0489795918 1.17969543,0.228571429 C2.82030457,1.06122449 4.46091371,1.89387755 6.10152284,2.69387755 C6.50761421,2.88979592 6.44263959,3.2 6.44263959,3.51020408 C6.45888325,5.43673469 6.45888325,7.39591837 6.45888325,9.35510204 Z" id="Shape"></path>
                    <path d="M18.9502538,2.90612245 C18.8852792,3.02040816 18.8040609,3.13469388 18.7390863,3.24897959 C16.9847716,6.12244898 15.2304569,8.99591837 13.4923858,11.8693878 C13.2974619,12.1795918 13.1837563,12.4408163 12.8588832,11.9346939 C11.8030457,10.1714286 10.7147208,8.40816327 9.62639594,6.66122449 C9.44771574,6.38367347 9.43147208,6.15510204 9.61015228,5.86122449 C10.7634518,4.01632653 11.9005076,2.17142857 13.0213198,0.310204082 C13.2162437,8.17314966e-15 13.3786802,-0.0816326531 13.7360406,0.0979591837 C15.3441624,0.930612245 16.9685279,1.73061224 18.5928934,2.54693878 C18.7390863,2.6122449 18.9664975,2.64489796 18.9502538,2.90612245 Z" id="Shape"></path>
                    <path d="M19.1939086,9.79591837 C19.1939086,11.5102041 19.177665,13.2244898 19.1939086,14.922449 C19.1939086,15.4285714 19.1939086,15.7061224 18.5604061,15.3632653 C17.0822335,14.5795918 15.5878173,13.844898 14.0771574,13.1102041 C13.7360406,12.9469388 13.6548223,12.8326531 13.8822335,12.4734694 C15.5390863,9.8122449 17.1634518,7.11836735 18.8203046,4.44081633 C18.8852792,4.32653061 18.9989848,4.14693878 19.0639594,4.16326531 C19.2751269,4.2122449 19.177665,4.4244898 19.177665,4.57142857 C19.1939086,6.31836735 19.1939086,8.06530612 19.1939086,9.79591837 Z" id="Shape"></path>
                    <path d="M7.18984772,3.95102041 C7.31979695,4.16326531 7.38477157,4.24489796 7.43350254,4.32653061 C8.89543147,6.71020408 10.3411168,9.09387755 11.786802,11.477551 C11.8517766,11.5918367 11.9492386,11.8204082 11.9005076,11.8693878 C11.7705584,12 11.6081218,11.8693878 11.4619289,11.7877551 C10.1299492,11.1183673 8.79796954,10.4653061 7.46598985,9.79591837 C7.27106599,9.69795918 7.10862944,9.6 7.10862944,9.32244898 C7.1248731,7.65714286 7.10862944,6.00816327 7.10862944,4.34285714 C7.1248731,4.26122449 7.15736041,4.17959184 7.18984772,3.95102041 Z" id="Shape"></path>
                </g>
            </g>
        </g>
    </g>
</svg>