<?xml version="1.0" encoding="UTF-8"?>
<svg width="31px" height="31px" viewBox="0 0 31 31" version="1.1" xmlns="http://www.w3.org/2000/svg" xmlns:xlink="http://www.w3.org/1999/xlink">
    <!-- Generator: Sketch 47.1 (45422) - http://www.bohemiancoding.com/sketch -->
    <title>Medium</title>
    <desc>Created with Sketch.</desc>
    <defs></defs>
    <g id="Final---Version-1" stroke="none" stroke-width="1" fill="none" fill-rule="evenodd">
        <g id="Medium" fill-rule="nonzero">
            <g id="M-Copy">
                <path d="M30.8741117,15.6107143 C30.8583756,24.1040816 23.9502538,30.9841837 15.484264,30.9841837 C6.89238579,30.9683673 0.125888325,24.025 0.141624365,15.2311224 C0.157360406,6.94336735 7.15989848,0.0790816327 15.5314721,0.110714286 C24.0918782,0.142346939 30.9055838,7.02244898 30.8741117,15.6107143 Z M12.0695431,16.8127551 C12.0695431,14.9147959 12.0695431,13.0168367 12.0695431,11.1188776 C12.0695431,10.8183673 12.1167513,10.5178571 11.7390863,10.3280612 C10.1340102,9.55306122 8.54467005,8.74642857 6.97106599,7.93979592 C6.64060914,7.78163265 6.53045685,7.81326531 6.53045685,8.20867347 C6.54619289,12.0204082 6.54619289,15.8479592 6.53045685,19.6596939 C6.53045685,20.0234694 6.65634518,20.2290816 6.98680203,20.3872449 C8.52893401,21.1464286 10.071066,21.9372449 11.613198,22.7122449 C11.9908629,22.9020408 12.0852792,22.8071429 12.0852792,22.3959184 C12.0538071,20.5454082 12.0695431,18.6790816 12.0695431,16.8127551 Z M24.1705584,10.5653061 C24.1705584,10.3122449 23.9502538,10.2806122 23.8086294,10.2015306 C22.2507614,9.41071429 20.6614213,8.63571429 19.1035533,7.82908163 C18.7573604,7.65510204 18.6,7.73418367 18.4111675,8.03469388 C17.3253807,9.8377551 16.2238579,11.625 15.106599,13.4122449 C14.9177665,13.7127551 14.9492386,13.9183673 15.122335,14.1872449 C16.1766497,15.8795918 17.2309645,17.5719388 18.2538071,19.2959184 C18.5527919,19.8020408 18.6786802,19.5489796 18.8675127,19.2326531 C20.5670051,16.4489796 22.2507614,13.6653061 23.9502538,10.8816327 C24.0446701,10.7867347 24.1076142,10.6760204 24.1705584,10.5653061 Z M24.406599,17.2397959 C24.406599,15.5632653 24.406599,13.8709184 24.406599,12.1943878 C24.406599,12.0520408 24.5010152,11.8464286 24.2964467,11.7989796 C24.2335025,11.7831633 24.1233503,11.9571429 24.0604061,12.0678571 C22.471066,14.6617347 20.8817259,17.2556122 19.2766497,19.8494898 C19.0563452,20.197449 19.1350254,20.3081633 19.4654822,20.4663265 C20.928934,21.1780612 22.3766497,21.8897959 23.8086294,22.6489796 C24.422335,22.9811224 24.422335,22.7122449 24.422335,22.2219388 C24.3908629,20.5454082 24.406599,18.9005102 24.406599,17.2397959 Z M12.777665,11.577551 C12.7461929,11.7989796 12.7147208,11.8780612 12.7147208,11.9729592 C12.7147208,13.5862245 12.7147208,15.1836735 12.7147208,16.7969388 C12.7147208,17.0658163 12.8720812,17.1607143 13.0609137,17.2556122 C14.351269,17.8882653 15.6416244,18.5367347 16.9319797,19.1852041 C17.0736041,19.2484694 17.2152284,19.3908163 17.3568528,19.2642857 C17.4040609,19.2168367 17.3096447,18.9954082 17.2467005,18.8846939 C15.8461929,16.5755102 14.4299492,14.2663265 13.0294416,11.9571429 C12.9664975,11.8622449 12.9035533,11.7831633 12.777665,11.577551 Z" id="Shape" fill="#7A7977"></path>
                <path d="M12.0695431,16.8127551 C12.0695431,18.6790816 12.0538071,20.5454082 12.0695431,22.427551 C12.0695431,22.8387755 11.9751269,22.9494898 11.5974619,22.7438776 C10.0553299,21.9530612 8.51319797,21.1780612 6.97106599,20.4188776 C6.64060914,20.2607143 6.51472081,20.0392857 6.51472081,19.6913265 C6.53045685,15.8795918 6.53045685,12.0520408 6.51472081,8.24030612 C6.51472081,7.82908163 6.6248731,7.79744898 6.95532995,7.97142857 C8.54467005,8.77806122 10.1340102,9.58469388 11.7233503,10.3596939 C12.1167513,10.5494898 12.0538071,10.85 12.0538071,11.1505102 C12.0695431,13.0168367 12.0695431,14.9147959 12.0695431,16.8127551 Z" id="Shape" fill="#1E1C17"></path>
                <path d="M24.1705584,10.5653061 C24.1076142,10.6760204 24.028934,10.7867347 23.9659898,10.897449 C22.2664975,13.6811224 20.5670051,16.4647959 18.8832487,19.2484694 C18.6944162,19.5489796 18.584264,19.8020408 18.2695431,19.3117347 C17.2467005,17.6035714 16.1923858,15.8954082 15.1380711,14.2030612 C14.9649746,13.9341837 14.9492386,13.7127551 15.122335,13.4280612 C16.2395939,11.6408163 17.3411168,9.85357143 18.4269036,8.0505102 C18.615736,7.75 18.7730964,7.67091837 19.1192893,7.84489796 C20.6771574,8.65153061 22.2507614,9.42653061 23.8243655,10.2173469 C23.9659898,10.2806122 24.1862944,10.3122449 24.1705584,10.5653061 Z" id="Shape" fill="#1E1C17"></path>
                <path d="M24.406599,17.2397959 C24.406599,18.9005102 24.3908629,20.5612245 24.406599,22.2061224 C24.406599,22.6964286 24.406599,22.9653061 23.7928934,22.6331633 C22.3609137,21.8739796 20.913198,21.1622449 19.4497462,20.4505102 C19.1192893,20.2923469 19.0406091,20.1816327 19.2609137,19.8336735 C20.8659898,17.2556122 22.4395939,14.6459184 24.0446701,12.0520408 C24.1076142,11.9413265 24.2177665,11.7673469 24.2807107,11.7831633 C24.4852792,11.8306122 24.3908629,12.0362245 24.3908629,12.1785714 C24.406599,13.8709184 24.406599,15.5632653 24.406599,17.2397959 Z" id="Shape" fill="#1E1C17"></path>
                <path d="M12.777665,11.577551 C12.9035533,11.7831633 12.9664975,11.8622449 13.0137056,11.9413265 C14.4299492,14.2505102 15.8304569,16.5596939 17.2309645,18.8688776 C17.2939086,18.9795918 17.3883249,19.2010204 17.3411168,19.2484694 C17.2152284,19.375 17.057868,19.2484694 16.9162437,19.1693878 C15.6258883,18.5209184 14.335533,17.8882653 13.0451777,17.2397959 C12.8563452,17.144898 12.6989848,17.05 12.6989848,16.7811224 C12.7147208,15.1678571 12.6989848,13.5704082 12.6989848,11.9571429 C12.7147208,11.8780612 12.7461929,11.7989796 12.777665,11.577551 Z" id="Shape" fill="#1E1C17"></path>
            </g>
        </g>
    </g>
</svg>