<?xml version="1.0" encoding="UTF-8"?>
<svg width="360px" height="244px" viewBox="0 0 360 244" version="1.1" xmlns="http://www.w3.org/2000/svg" xmlns:xlink="http://www.w3.org/1999/xlink">
    <!-- Generator: Sketch 47.1 (45422) - http://www.bohemiancoding.com/sketch -->
    <title>M - 2 Design Copy 3</title>
    <desc>Created with Sketch.</desc>
    <defs>
        <linearGradient x1="46.5222222%" y1="35.4538462%" x2="5.81777778%" y2="-8.17902098%" id="linearGradient-1">
            <stop stop-color="#FFFFFF" offset="0%"></stop>
            <stop stop-color="#CCCBCB" offset="100%"></stop>
        </linearGradient>
        <linearGradient x1="80.635%" y1="74.0853659%" x2="21.96%" y2="43.3682927%" id="linearGradient-2">
            <stop stop-color="#FFFFFF" offset="0%"></stop>
            <stop stop-color="#CCCBCB" offset="100%"></stop>
        </linearGradient>
        <linearGradient x1="44.8981928%" y1="30.0632653%" x2="-3.46686747%" y2="-159.361224%" id="linearGradient-3">
            <stop stop-color="#FFFFFF" offset="0%"></stop>
            <stop stop-color="#CCCBCB" offset="100%"></stop>
        </linearGradient>
        <linearGradient x1="46.4379121%" y1="35.3454704%" x2="6.17417582%" y2="-8.1402439%" id="linearGradient-4">
            <stop stop-color="#FFFFFF" offset="0%"></stop>
            <stop stop-color="#CCCBCB" offset="100%"></stop>
        </linearGradient>
        <linearGradient x1="80.3146417%" y1="73.8018519%" x2="21.8155763%" y2="42.7024691%" id="linearGradient-5">
            <stop stop-color="#FFFFFF" offset="0%"></stop>
            <stop stop-color="#CCCBCB" offset="100%"></stop>
        </linearGradient>
        <linearGradient x1="44.865512%" y1="30.1341709%" x2="-3.50512048%" y2="-156.459799%" id="linearGradient-6">
            <stop stop-color="#FFFFFF" offset="0%"></stop>
            <stop stop-color="#CCCBCB" offset="100%"></stop>
        </linearGradient>
    </defs>
    <g id="Mobile" stroke="none" stroke-width="1" fill="none" fill-rule="evenodd">
        <g id="M---2-Design-Copy-3">
            <g id="Dots" transform="translate(51.000000, 1.000000)" fill-rule="nonzero" fill="#CCCCCE">
                <ellipse id="Oval" cx="1.06436196" cy="150.915575" rx="1" ry="1"></ellipse>
                <ellipse id="Oval" cx="1.06436196" cy="139.46361" rx="1" ry="1"></ellipse>
                <ellipse id="Oval" cx="1.06436196" cy="128.011645" rx="1" ry="1"></ellipse>
                <ellipse id="Oval" cx="1.06436196" cy="116.55968" rx="1" ry="1"></ellipse>
                <ellipse id="Oval" cx="1.06436196" cy="105.107715" rx="1" ry="1"></ellipse>
                <ellipse id="Oval" cx="0.81436196" cy="93.774068" rx="1" ry="1"></ellipse>
                <ellipse id="Oval-Copy" cx="0.81436196" cy="46.774068" rx="1" ry="1"></ellipse>
                <ellipse id="Oval" cx="0.81436196" cy="81.774068" rx="1" ry="1"></ellipse>
                <ellipse id="Oval-Copy-2" cx="0.81436196" cy="34.774068" rx="1" ry="1"></ellipse>
                <ellipse id="Oval" cx="0.81436196" cy="70.774068" rx="1" ry="1"></ellipse>
                <ellipse id="Oval-Copy-3" cx="0.81436196" cy="23.774068" rx="1" ry="1"></ellipse>
                <ellipse id="Oval" cx="0.81436196" cy="58.774068" rx="1" ry="1"></ellipse>
                <ellipse id="Oval-Copy-4" cx="0.81436196" cy="11.774068" rx="1" ry="1"></ellipse>
                <ellipse id="Oval-Copy-5" cx="0.81436196" cy="0.774068009" rx="1" ry="1"></ellipse>
                <ellipse id="Oval" cx="12.6181223" cy="150.915575" rx="1" ry="1"></ellipse>
                <ellipse id="Oval" cx="12.6181223" cy="139.46361" rx="1" ry="1"></ellipse>
                <ellipse id="Oval" cx="12.6181223" cy="128.011645" rx="1" ry="1"></ellipse>
                <ellipse id="Oval" cx="12.6181223" cy="116.55968" rx="1" ry="1"></ellipse>
                <ellipse id="Oval" cx="12.6181223" cy="105.107715" rx="1" ry="1"></ellipse>
                <ellipse id="Oval" cx="12.9161572" cy="93.774068" rx="1" ry="1"></ellipse>
                <ellipse id="Oval-Copy-6" cx="12.9161572" cy="46.774068" rx="1" ry="1"></ellipse>
                <ellipse id="Oval" cx="12.9161572" cy="81.774068" rx="1" ry="1"></ellipse>
                <ellipse id="Oval-Copy-7" cx="12.9161572" cy="34.774068" rx="1" ry="1"></ellipse>
                <ellipse id="Oval" cx="12.9161572" cy="70.774068" rx="1" ry="1"></ellipse>
                <ellipse id="Oval-Copy-8" cx="12.9161572" cy="23.774068" rx="1" ry="1"></ellipse>
                <ellipse id="Oval" cx="12.9161572" cy="58.774068" rx="1" ry="1"></ellipse>
                <ellipse id="Oval-Copy-9" cx="12.9161572" cy="11.774068" rx="1" ry="1"></ellipse>
                <ellipse id="Oval-Copy-10" cx="12.9161572" cy="0.774068009" rx="1" ry="1"></ellipse>
                <ellipse id="Oval" cx="23.9682921" cy="150.915575" rx="1" ry="1"></ellipse>
                <ellipse id="Oval" cx="23.9682921" cy="139.46361" rx="1" ry="1"></ellipse>
                <ellipse id="Oval" cx="23.9682921" cy="128.011645" rx="1" ry="1"></ellipse>
                <ellipse id="Oval" cx="23.9682921" cy="116.55968" rx="1" ry="1"></ellipse>
                <ellipse id="Oval" cx="23.9682921" cy="105.107715" rx="1" ry="1"></ellipse>
                <ellipse id="Oval" cx="23.814362" cy="93.774068" rx="1" ry="1"></ellipse>
                <ellipse id="Oval-Copy-11" cx="23.814362" cy="46.774068" rx="1" ry="1"></ellipse>
                <ellipse id="Oval" cx="23.814362" cy="81.774068" rx="1" ry="1"></ellipse>
                <ellipse id="Oval-Copy-12" cx="23.814362" cy="34.774068" rx="1" ry="1"></ellipse>
                <ellipse id="Oval" cx="23.814362" cy="70.774068" rx="1" ry="1"></ellipse>
                <ellipse id="Oval-Copy-13" cx="23.814362" cy="23.774068" rx="1" ry="1"></ellipse>
                <ellipse id="Oval" cx="23.814362" cy="58.774068" rx="1" ry="1"></ellipse>
                <ellipse id="Oval-Copy-14" cx="23.814362" cy="11.774068" rx="1" ry="1"></ellipse>
                <ellipse id="Oval-Copy-15" cx="23.814362" cy="0.774068009" rx="1" ry="1"></ellipse>
                <ellipse id="Oval" cx="35.5220524" cy="150.915575" rx="1" ry="1"></ellipse>
                <ellipse id="Oval" cx="35.5220524" cy="139.46361" rx="1" ry="1"></ellipse>
                <ellipse id="Oval" cx="35.5220524" cy="128.011645" rx="1" ry="1"></ellipse>
                <ellipse id="Oval" cx="35.5220524" cy="116.55968" rx="1" ry="1"></ellipse>
                <ellipse id="Oval" cx="35.5220524" cy="105.107715" rx="1" ry="1"></ellipse>
                <ellipse id="Oval" cx="35.9161572" cy="93.774068" rx="1" ry="1"></ellipse>
                <ellipse id="Oval-Copy-16" cx="35.9161572" cy="46.774068" rx="1" ry="1"></ellipse>
                <ellipse id="Oval" cx="35.9161572" cy="81.774068" rx="1" ry="1"></ellipse>
                <ellipse id="Oval-Copy-17" cx="35.9161572" cy="34.774068" rx="1" ry="1"></ellipse>
                <ellipse id="Oval" cx="35.9161572" cy="70.774068" rx="1" ry="1"></ellipse>
                <ellipse id="Oval-Copy-18" cx="35.9161572" cy="23.774068" rx="1" ry="1"></ellipse>
                <ellipse id="Oval" cx="35.9161572" cy="58.774068" rx="1" ry="1"></ellipse>
                <ellipse id="Oval-Copy-19" cx="35.9161572" cy="11.774068" rx="1" ry="1"></ellipse>
                <ellipse id="Oval-Copy-20" cx="35.9161572" cy="0.774068009" rx="1" ry="1"></ellipse>
                <ellipse id="Oval" cx="47.7374818" cy="150.915575" rx="1" ry="1"></ellipse>
                <ellipse id="Oval" cx="47.7374818" cy="139.46361" rx="1" ry="1"></ellipse>
                <ellipse id="Oval" cx="47.7374818" cy="128.011645" rx="1" ry="1"></ellipse>
                <ellipse id="Oval" cx="47.7374818" cy="116.55968" rx="1" ry="1"></ellipse>
                <ellipse id="Oval" cx="47.7374818" cy="105.107715" rx="1" ry="1"></ellipse>
                <ellipse id="Oval" cx="47.9161572" cy="93.774068" rx="1" ry="1"></ellipse>
                <ellipse id="Oval-Copy-21" cx="47.9161572" cy="46.774068" rx="1" ry="1"></ellipse>
                <ellipse id="Oval" cx="47.9161572" cy="81.774068" rx="1" ry="1"></ellipse>
                <ellipse id="Oval-Copy-22" cx="47.9161572" cy="34.774068" rx="1" ry="1"></ellipse>
                <ellipse id="Oval" cx="47.9161572" cy="70.774068" rx="1" ry="1"></ellipse>
                <ellipse id="Oval-Copy-23" cx="47.9161572" cy="23.774068" rx="1" ry="1"></ellipse>
                <ellipse id="Oval" cx="47.9161572" cy="58.774068" rx="1" ry="1"></ellipse>
                <ellipse id="Oval-Copy-24" cx="47.9161572" cy="11.774068" rx="1" ry="1"></ellipse>
                <ellipse id="Oval-Copy-25" cx="47.9161572" cy="0.774068009" rx="1" ry="1"></ellipse>
                <ellipse id="Oval" cx="58.3241873" cy="150.915575" rx="1" ry="1"></ellipse>
                <ellipse id="Oval" cx="58.3241873" cy="139.46361" rx="1" ry="1"></ellipse>
                <ellipse id="Oval" cx="58.3241873" cy="128.011645" rx="1" ry="1"></ellipse>
                <ellipse id="Oval" cx="58.3241873" cy="116.55968" rx="1" ry="1"></ellipse>
                <ellipse id="Oval" cx="58.3241873" cy="105.107715" rx="1" ry="1"></ellipse>
                <ellipse id="Oval" cx="58.814362" cy="93.774068" rx="1" ry="1"></ellipse>
                <ellipse id="Oval-Copy-26" cx="58.814362" cy="46.774068" rx="1" ry="1"></ellipse>
                <ellipse id="Oval" cx="58.814362" cy="81.774068" rx="1" ry="1"></ellipse>
                <ellipse id="Oval-Copy-27" cx="58.814362" cy="34.774068" rx="1" ry="1"></ellipse>
                <ellipse id="Oval" cx="58.814362" cy="70.774068" rx="1" ry="1"></ellipse>
                <ellipse id="Oval-Copy-28" cx="58.814362" cy="23.774068" rx="1" ry="1"></ellipse>
                <ellipse id="Oval" cx="58.814362" cy="58.774068" rx="1" ry="1"></ellipse>
                <ellipse id="Oval-Copy-29" cx="58.814362" cy="11.774068" rx="1" ry="1"></ellipse>
                <ellipse id="Oval-Copy-30" cx="58.814362" cy="0.774068009" rx="1" ry="1"></ellipse>
                <ellipse id="Oval" cx="69.8779476" cy="150.915575" rx="1" ry="1"></ellipse>
                <ellipse id="Oval" cx="69.8779476" cy="139.46361" rx="1" ry="1"></ellipse>
                <ellipse id="Oval" cx="69.8779476" cy="128.011645" rx="1" ry="1"></ellipse>
                <ellipse id="Oval" cx="69.8779476" cy="116.55968" rx="1" ry="1"></ellipse>
                <ellipse id="Oval" cx="69.8779476" cy="105.107715" rx="1" ry="1"></ellipse>
                <ellipse id="Oval" cx="69.9161572" cy="93.774068" rx="1" ry="1"></ellipse>
                <ellipse id="Oval-Copy-31" cx="69.9161572" cy="46.774068" rx="1" ry="1"></ellipse>
                <ellipse id="Oval" cx="69.9161572" cy="81.774068" rx="1" ry="1"></ellipse>
                <ellipse id="Oval-Copy-32" cx="69.9161572" cy="34.774068" rx="1" ry="1"></ellipse>
                <ellipse id="Oval" cx="69.9161572" cy="70.774068" rx="1" ry="1"></ellipse>
                <ellipse id="Oval-Copy-33" cx="69.9161572" cy="23.774068" rx="1" ry="1"></ellipse>
                <ellipse id="Oval" cx="69.9161572" cy="58.774068" rx="1" ry="1"></ellipse>
                <ellipse id="Oval-Copy-34" cx="69.9161572" cy="11.774068" rx="1" ry="1"></ellipse>
                <ellipse id="Oval-Copy-35" cx="69.9161572" cy="0.774068009" rx="1" ry="1"></ellipse>
                <ellipse id="Oval" cx="81.2281174" cy="150.915575" rx="1" ry="1"></ellipse>
                <ellipse id="Oval" cx="81.2281174" cy="139.46361" rx="1" ry="1"></ellipse>
                <ellipse id="Oval" cx="81.2281174" cy="128.011645" rx="1" ry="1"></ellipse>
                <ellipse id="Oval" cx="81.2281174" cy="116.55968" rx="1" ry="1"></ellipse>
                <ellipse id="Oval" cx="81.2281174" cy="105.107715" rx="1" ry="1"></ellipse>
                <ellipse id="Oval" cx="80.814362" cy="93.774068" rx="1" ry="1"></ellipse>
                <ellipse id="Oval-Copy-36" cx="80.814362" cy="46.774068" rx="1" ry="1"></ellipse>
                <ellipse id="Oval" cx="80.814362" cy="81.774068" rx="1" ry="1"></ellipse>
                <ellipse id="Oval-Copy-37" cx="80.814362" cy="34.774068" rx="1" ry="1"></ellipse>
                <ellipse id="Oval" cx="80.814362" cy="70.774068" rx="1" ry="1"></ellipse>
                <ellipse id="Oval-Copy-38" cx="80.814362" cy="23.774068" rx="1" ry="1"></ellipse>
                <ellipse id="Oval" cx="80.814362" cy="58.774068" rx="1" ry="1"></ellipse>
                <ellipse id="Oval-Copy-39" cx="80.814362" cy="11.774068" rx="1" ry="1"></ellipse>
                <ellipse id="Oval" cx="80.814362" cy="46.774068" rx="1" ry="1"></ellipse>
                <ellipse id="Oval-Copy-40" cx="80.814362" cy="0.774068009" rx="1" ry="1"></ellipse>
                <ellipse id="Oval" cx="92.7818777" cy="150.915575" rx="1" ry="1"></ellipse>
                <ellipse id="Oval" cx="92.7818777" cy="139.46361" rx="1" ry="1"></ellipse>
                <ellipse id="Oval" cx="92.7818777" cy="128.011645" rx="1" ry="1"></ellipse>
                <ellipse id="Oval" cx="92.7818777" cy="116.55968" rx="1" ry="1"></ellipse>
                <ellipse id="Oval" cx="92.7818777" cy="105.107715" rx="1" ry="1"></ellipse>
                <ellipse id="Oval" cx="92.9161572" cy="93.774068" rx="1" ry="1"></ellipse>
                <ellipse id="Oval-Copy-41" cx="92.9161572" cy="46.774068" rx="1" ry="1"></ellipse>
                <ellipse id="Oval" cx="92.9161572" cy="81.774068" rx="1" ry="1"></ellipse>
                <ellipse id="Oval-Copy-42" cx="92.9161572" cy="34.774068" rx="1" ry="1"></ellipse>
                <ellipse id="Oval" cx="92.9161572" cy="70.774068" rx="1" ry="1"></ellipse>
                <ellipse id="Oval-Copy-43" cx="92.9161572" cy="23.774068" rx="1" ry="1"></ellipse>
                <ellipse id="Oval" cx="92.9161572" cy="58.774068" rx="1" ry="1"></ellipse>
                <ellipse id="Oval-Copy-44" cx="92.9161572" cy="11.774068" rx="1" ry="1"></ellipse>
                <ellipse id="Oval-Copy-45" cx="92.9161572" cy="0.774068009" rx="1" ry="1"></ellipse>
                <ellipse id="Oval" cx="104.233843" cy="150.915575" rx="1" ry="1"></ellipse>
                <ellipse id="Oval" cx="104.233843" cy="139.46361" rx="1" ry="1"></ellipse>
                <ellipse id="Oval" cx="104.233843" cy="128.011645" rx="1" ry="1"></ellipse>
                <ellipse id="Oval" cx="104.233843" cy="116.55968" rx="1" ry="1"></ellipse>
                <ellipse id="Oval" cx="104.233843" cy="105.107715" rx="1" ry="1"></ellipse>
                <ellipse id="Oval" cx="103.916157" cy="93.774068" rx="1" ry="1"></ellipse>
                <ellipse id="Oval-Copy-46" cx="103.916157" cy="46.774068" rx="1" ry="1"></ellipse>
                <ellipse id="Oval" cx="103.916157" cy="81.774068" rx="1" ry="1"></ellipse>
                <ellipse id="Oval-Copy-47" cx="103.916157" cy="34.774068" rx="1" ry="1"></ellipse>
                <ellipse id="Oval" cx="103.916157" cy="70.774068" rx="1" ry="1"></ellipse>
                <ellipse id="Oval-Copy-48" cx="103.916157" cy="23.774068" rx="1" ry="1"></ellipse>
                <ellipse id="Oval" cx="103.916157" cy="58.774068" rx="1" ry="1"></ellipse>
                <ellipse id="Oval-Copy-49" cx="103.916157" cy="11.774068" rx="1" ry="1"></ellipse>
                <ellipse id="Oval" cx="103.916157" cy="46.774068" rx="1" ry="1"></ellipse>
                <ellipse id="Oval-Copy-50" cx="103.916157" cy="0.774068009" rx="1" ry="1"></ellipse>
            </g>
            <g id="Group-6" transform="translate(43.000000, 33.000000)">
                <g id="MAc">
                    <path d="M243.490833,135.677403 L243.490833,137.29094" id="Shape" stroke="#939598" stroke-width="0.5" opacity="0.3" stroke-linecap="round"></path>
                    <g id="Group" fill-rule="nonzero">
                        <g>
                            <path d="M274.007725,150.550003 L249.453904,150.550003 C249.594211,149.848466 249.734519,149.146928 249.734519,148.375236 L249.734519,8.769222 C249.734519,3.99876523 245.876061,0.140307552 241.105605,0.140307552 L34.0818116,0.140307552 C29.3113548,0.140307552 25.4528971,3.99876523 25.4528971,8.769222 L25.4528971,148.375236 C25.4528971,149.146928 25.5230509,149.848466 25.7335122,150.550003 L0.688614192,150.550003 C0.407999088,150.550003 0.127383984,150.760465 0.127383984,151.111234 L0.127383984,151.60231 C0.127383984,151.882925 0.19753776,152.023233 0.407999088,152.233694 C0.478152864,152.303848 0.688614192,152.514309 1.46030573,152.865078 C2.16184349,153.145693 3.35445768,153.566616 5.52922474,154.057692 C8.19506822,154.618922 11.702757,155.250306 15.6313685,155.741383 C24.6110518,156.933997 34.572888,157.635535 42.710726,157.635535 L225.952389,157.635535 C242.929603,157.635535 254.57513,156.44292 261.380046,155.460768 C268.114808,154.478615 273.446495,153.145693 274.358494,152.233694 C274.358494,152.233694 274.358494,152.233694 274.428648,152.16354 C274.498802,152.093386 274.568956,151.882925 274.568956,151.742617 L274.568956,151.111234 C274.568956,150.830618 274.288341,150.550003 274.007725,150.550003 Z" id="Shape" fill="#FFFFFF"></path>
                            <g id="Mock-up---Mac-Copy_2_" fill="#FE5068">
                                <path d="M138.751245,7.43630026 C138.751245,6.66460872 138.119861,6.03322474 137.34817,6.03322474 C136.576478,6.03322474 135.945094,6.66460872 135.945094,7.43630026 C135.945094,8.20799179 136.576478,8.83937578 137.34817,8.83937578 C138.190015,8.769222 138.751245,8.20799179 138.751245,7.43630026 Z M136.576478,7.43630026 C136.576478,7.0153776 136.997401,6.59445494 137.418324,6.59445494 C137.839246,6.59445494 138.260169,7.0153776 138.260169,7.43630026 C138.260169,7.85722291 137.839246,8.27814557 137.418324,8.27814557 C136.997401,8.27814557 136.576478,7.85722291 136.576478,7.43630026 Z" id="Shape-Copy_2_"></path>
                                <path d="M26.2947424,150.690311 C26.0842811,149.988773 25.9439736,149.146928 25.9439736,148.375236 L25.9439736,8.769222 C25.9439736,4.27938034 29.5218161,0.70153776 34.0116578,0.70153776 L241.105605,0.70153776 C245.595446,0.70153776 249.173289,4.27938034 249.173289,8.769222 L249.173289,148.375236 C249.173289,149.217082 249.103135,149.988773 248.82252,150.690311 L249.38375,150.690311 C249.594211,149.988773 249.734519,149.146928 249.734519,148.375236 L249.734519,8.769222 C249.734519,3.99876523 245.805908,0.140307552 241.105605,0.140307552 L34.0116578,0.140307552 C29.241201,0.140307552 25.3827433,4.06891901 25.3827433,8.769222 L25.3827433,148.375236 C25.3827433,149.217082 25.4528971,149.988773 25.7335122,150.690311 L26.2947424,150.690311 Z" id="Shape-Copy-3_2_"></path>
                                <path d="M274.568956,151.742617 L274.568956,151.111234 C274.568956,150.830618 274.358494,150.550003 274.007725,150.550003 L159.236148,150.550003 C159.09584,150.550003 159.025687,150.620157 158.885379,150.690311 L114.12727,150.690311 C114.057116,150.620157 113.916809,150.550003 113.776501,150.550003 L0.618460416,150.550003 C0.337845312,150.550003 0.057230208,150.760465 0.057230208,151.111234 L0.057230208,151.60231 C0.057230208,151.812771 0.127383984,152.023233 0.337845312,152.233694 L0.337845312,152.233694 C0.54830664,152.444155 1.17969062,153.075539 5.38891718,154.057692 C8.05476067,154.618922 11.4922957,155.250306 15.4910609,155.741383 C24.4707443,156.933997 34.4325804,157.635535 42.5704185,157.635535 L225.812081,157.635535 C242.719141,157.635535 254.434822,156.44292 261.239738,155.460768 C267.974501,154.478615 273.306188,153.145693 274.218187,152.233694 L274.218187,152.233694 L274.218187,152.233694 C274.218187,152.233694 274.218187,152.233694 274.288341,152.16354 L274.288341,152.16354 C274.498802,152.093386 274.568956,151.953079 274.568956,151.742617 Z M274.007725,151.742617 C274.007725,151.812771 274.007725,151.812771 273.937572,151.812771 L159.797378,151.812771 L159.797378,151.181387 L159.797378,151.04108 L274.007725,151.04108 C274.007725,151.111234 274.007725,151.60231 274.007725,151.742617 Z M159.236148,151.251541 C159.236148,151.462002 159.236148,151.60231 159.236148,151.882925 C158.955533,152.16354 158.53461,152.374001 157.692765,152.374001 C156.991227,152.374001 149.344466,152.374001 142.539549,152.374001 C142.539549,152.374001 136.716786,152.374001 130.543254,152.374001 C123.738337,152.374001 116.372191,152.374001 115.670653,152.374001 C114.828808,152.374001 114.057116,152.16354 113.776501,151.882925 L113.776501,151.882925 C113.776501,151.532156 113.776501,151.391849 113.776501,151.251541 L159.236148,151.251541 Z M0.618460416,151.111234 L113.215271,151.111234 L113.215271,151.251541 L113.215271,151.882925 L0.758767968,151.882925 C0.688614192,151.812771 0.618460416,151.672464 0.618460416,151.672464 C0.618460416,151.462002 0.618460416,151.111234 0.618460416,151.111234 Z M225.952389,157.144458 C225.952389,157.144458 49.3753347,157.144458 42.710726,157.144458 C26.2245887,157.144458 6.58153138,154.338307 1.74092083,152.444155 L1.74092083,152.444155 L113.56604,152.444155 C114.12727,152.794924 114.969115,152.935232 115.670653,152.935232 L130.543254,152.935232 L142.539549,152.935232 L157.692765,152.935232 C158.394303,152.935232 159.025687,152.794924 159.446609,152.444155 L272.885265,152.444155 C268.746192,153.987538 253.312362,157.144458 225.952389,157.144458 Z" id="Shape-Copy-4_2_"></path>
                            </g>
                        </g>
                        <rect id="Rectangle-path" fill="#FE5068" opacity="0.1" x="37.3088853" y="12.1366032" width="201.551798" height="125.575259"></rect>
                    </g>
                    <rect id="Rectangle-path" fill="#FE6757" fill-rule="nonzero" opacity="0.12" x="40.9568816" y="14.8024467" width="62.0860918" height="38.3039617"></rect>
                    <rect id="Rectangle-path" fill="#FE6757" fill-rule="nonzero" opacity="0.2" x="107.041739" y="14.8024467" width="62.0860918" height="38.3039617"></rect>
                    <rect id="Rectangle-path" fill="#FE6757" fill-rule="nonzero" opacity="0.2" x="107.041739" y="55.4916368" width="62.0860918" height="38.3039617"></rect>
                    <rect id="Rectangle-path" fill="#FE6757" fill-rule="nonzero" opacity="0.2" x="40.9568816" y="55.4916368" width="62.0860918" height="38.3039617"></rect>
                    <rect id="Rectangle-path" fill="#FE6757" fill-rule="nonzero" opacity="0.12" x="173.056442" y="14.8024467" width="62.0860918" height="38.3039617"></rect>
                    <rect id="Rectangle-path" fill="#FE6757" fill-rule="nonzero" opacity="0.2" x="173.056442" y="55.4916368" width="62.0860918" height="38.3039617"></rect>
                    <g id="Group" transform="translate(102.622051, 11.926142)" stroke="#FE6757" stroke-width="0.5">
                        <path d="M0.491076432,0.210461328 L0.491076432,0.561230208" id="Shape"></path>
                        <path d="M0.491076432,1.26276797 L0.491076432,125.084183" id="Shape" stroke-dasharray="0.6976090908050537,0.6976090908050537"></path>
                        <path d="M0.491076432,125.434951 L0.491076432,125.78572" id="Shape"></path>
                    </g>
                    <g id="Group" transform="translate(106.831277, 11.926142)" stroke="#FE6757" stroke-width="0.5">
                        <path d="M0.210461328,0.210461328 L0.210461328,0.561230208" id="Shape"></path>
                        <path d="M0.210461328,1.26276797 L0.210461328,125.084183" id="Shape" stroke-dasharray="0.6976090908050537,0.6976090908050537"></path>
                        <path d="M0.210461328,125.434951 L0.210461328,125.78572" id="Shape"></path>
                    </g>
                    <path d="M37.3088853,53.0362547 L172.84598,52.8257933" id="Shape" stroke="#FE6757" stroke-width="0.5" stroke-dasharray="0.7015378296375275"></path>
                    <path d="M172.84598,55.4916368 L37.3088853,55.4916368" id="Shape" stroke="#FE5068" stroke-width="0.5" stroke-dasharray="0.7015378296375275"></path>
                    <path d="M37.3088853,14.8024467 L172.84598,14.8024467" id="Shape" stroke="#FE6757" stroke-width="0.5" stroke-dasharray="0.7015378296375275"></path>
                    <path d="M37.3088853,93.7254447 L172.84598,93.7254447" id="Shape" stroke="#FE5068" stroke-width="0.5" stroke-dasharray="0.7015378296375275"></path>
                    <path d="M40.9568816,137.711862 L40.9568816,12.1366032" id="Shape" stroke="#FE5068" stroke-width="0.5" stroke-dasharray="0.7015378296375275"></path>
                    <path d="M169.12783,12.1366032 L169.12783,138.273092" id="Shape" stroke="#FE6757" stroke-width="0.5" stroke-dasharray="0.7015378296375275"></path>
                    <path d="M172.84598,12.1366032 L172.84598,138.273092" id="Shape" stroke="#FE6757" stroke-width="0.5" stroke-dasharray="0.7015378296375275"></path>
                    <path d="M103.393742,53.0362547 L238.860684,52.8257933" id="Shape" stroke="#FE5068" stroke-width="0.5" stroke-dasharray="0.7015378296375275"></path>
                    <path d="M238.860684,55.4916368 L103.393742,55.4916368" id="Shape" stroke="#FE5068" stroke-width="0.5" stroke-dasharray="0.7015378296375275"></path>
                    <path d="M103.393742,14.8024467 L238.860684,14.8024467" id="Shape" stroke="#FE6757" stroke-width="0.5" stroke-dasharray="0.7015378296375275"></path>
                    <path d="M103.393742,93.7254447 L238.860684,93.7254447" id="Shape" stroke="#FE5068" stroke-width="0.5" stroke-dasharray="0.7015378296375275"></path>
                    <path d="M235.212687,12.1366032 L235.212687,138.273092" id="Shape" stroke="#FE6757" stroke-width="0.5" stroke-dasharray="0.7015378296375275"></path>
                    <rect id="Rectangle-path" fill="#FE6757" fill-rule="nonzero" opacity="0.15" x="107.2522" y="96.1808269" width="62.0860918" height="38.3039617"></rect>
                    <rect id="Rectangle-path" fill="#FE6757" fill-rule="nonzero" opacity="0.12" x="41.2374967" y="96.1808269" width="62.0860918" height="38.3039617"></rect>
                    <rect id="Rectangle-path" fill="#FE6757" fill-rule="nonzero" opacity="0.12" x="172.986288" y="96.1808269" width="62.0860918" height="38.3039617"></rect>
                    <path d="M37.5895004,93.7254447 L173.056442,93.5851372" id="Shape" stroke="#FE6757" stroke-width="0.5" stroke-dasharray="0.7015378296375275"></path>
                    <path d="M173.056442,96.1808269 L37.5895004,96.1808269" id="Shape" stroke="#FE6757" stroke-width="0.5" stroke-dasharray="0.7015378296375275"></path>
                    <path d="M37.5895004,55.4916368 L173.056442,55.4916368" id="Shape" stroke="#FE6757" stroke-width="0.5" stroke-dasharray="0.7015378296375275"></path>
                    <path d="M37.5895004,134.414635 L173.056442,134.414635" id="Shape" stroke="#FE5068" stroke-width="0.5" stroke-dasharray="0.7015378296375275"></path>
                    <path d="M103.604204,93.7254447 L239.141299,93.5851372" id="Shape" stroke="#FE6757" stroke-width="0.5" stroke-dasharray="0.7015378296375275"></path>
                    <path d="M239.141299,96.1808269 L103.604204,96.1808269" id="Shape" stroke="#FE6757" stroke-width="0.5" stroke-dasharray="0.7015378296375275"></path>
                    <path d="M103.604204,55.4916368 L239.141299,55.4916368" id="Shape" stroke="#FE5068" stroke-width="0.5" stroke-dasharray="0.7015378296375275"></path>
                    <path d="M103.604204,134.414635 L239.141299,134.414635" id="Shape" stroke="#FE6757" stroke-width="0.5" stroke-dasharray="0.7015378296375275"></path>
                    <rect id="Rectangle-path" fill="#FE6757" fill-rule="nonzero" opacity="0.2" x="107.041739" y="103.336512" width="62.3667069" height="17.3981364"></rect>
                    <rect id="Rectangle-path" fill="#FE6757" fill-rule="nonzero" opacity="0.12" x="107.041739" y="122.207878" width="19.7132111" height="12.206757"></rect>
                    <rect id="Rectangle-path" fill="#FE6757" fill-rule="nonzero" opacity="0.1" x="107.041739" y="96.1808269" width="19.7132111" height="5.89291718"></rect>
                    <rect id="Rectangle-path" fill="#FE6757" fill-rule="nonzero" opacity="0.1" x="128.368487" y="122.207878" width="19.7132111" height="12.206757"></rect>
                    <rect id="Rectangle-path" fill="#FE6757" fill-rule="nonzero" opacity="0.1" x="128.368487" y="96.1808269" width="41.039959" height="5.89291718"></rect>
                    <rect id="Rectangle-path" fill="#FE6757" fill-rule="nonzero" opacity="0.12" x="149.625081" y="122.207878" width="19.7132111" height="12.206757"></rect>
                    <rect id="Rectangle-path" fill="#6D6E71" fill-rule="nonzero" opacity="0.1" x="138.190015" y="103.266358" width="31.1482765" height="17.3981364"></rect>
                    <rect id="Rectangle-path" fill="#414042" fill-rule="nonzero" opacity="0.08" x="107.041739" y="103.336512" width="6.17353229" height="17.3981364"></rect>
                    <rect id="Rectangle-path" fill="#F1F2F2" fill-rule="nonzero" opacity="0.3" x="117.28419" y="114.982039" width="15.7845996" height="3.29722747"></rect>
                    <rect id="Rectangle-path" stroke="#F1F2F2" stroke-width="0.5" stroke-linecap="round" x="129.701408" y="97.4435949" width="26.3778198" height="3.29722747"></rect>
                    <rect id="Rectangle-path" fill="#FE5068" fill-rule="nonzero" opacity="0.07" x="149.625081" y="122.207878" width="6.10337851" height="12.206757"></rect>
                    <rect id="Rectangle-path" fill="#6D6E71" fill-rule="nonzero" opacity="0.1" x="120.721725" y="122.278032" width="6.10337851" height="12.206757"></rect>
                    <path d="M110.97035,107.124816 L134.19125,107.124816" id="Shape" stroke="#F1F2F2" stroke-width="2.10461328" opacity="0.6" stroke-linecap="round"></path>
                    <path d="M114.828808,110.983274 L130.262638,110.983274" id="Shape" stroke="#F1F2F2" stroke-width="0.70153776" opacity="0.7" stroke-linecap="round"></path>
                    <path d="M114.828808,112.456503 L127.526641,112.456503" id="Shape" stroke="#F1F2F2" stroke-width="0.70153776" opacity="0.7" stroke-linecap="round"></path>
                    <path d="M109.146352,131.047254 L117.28419,131.047254" id="Shape" stroke="#F1F2F2" stroke-width="0.52615332" opacity="0.7" stroke-linecap="round"></path>
                    <path d="M109.146352,132.169714 L115.810961,132.169714" id="Shape" stroke="#F1F2F2" stroke-width="0.52615332" opacity="0.7" stroke-linecap="round"></path>
                    <path d="M157.903226,130.766638 L165.97091,130.766638" id="Shape" stroke="#F1F2F2" stroke-width="0.52615332" opacity="0.7" stroke-linecap="round"></path>
                    <path d="M157.903226,132.169714 L164.567835,132.169714" id="Shape" stroke="#F1F2F2" stroke-width="0.52615332" opacity="0.7" stroke-linecap="round"></path>
                    <path d="M120.862032,116.665729 L129.210332,116.665729" id="Shape" stroke="#939598" stroke-width="0.70153776" opacity="0.3" stroke-linecap="round"></path>
                    <path d="M157.41215,98.4257477 L165.549988,98.4257477" id="Shape" stroke="#939598" stroke-width="0.52615332" opacity="0.3" stroke-linecap="round"></path>
                    <path d="M157.41215,99.898977 L167.794909,99.898977" id="Shape" stroke="#939598" stroke-width="0.52615332" opacity="0.3" stroke-linecap="round"></path>
                    <path d="M113.706347,99.1272855 L125.492182,99.1272855" id="Shape" stroke="#939598" stroke-width="0.52615332" opacity="0.3" stroke-linecap="round"></path>
                    <path d="M138.190015,120.734648 L169.408445,103.266358" id="Shape" stroke="#F1F2F2" stroke-width="0.5"></path>
                    <path d="M169.408445,120.734648 L138.190015,103.266358" id="Shape" stroke="#F1F2F2" stroke-width="0.5"></path>
                    <path d="M129.210332,124.522952 L138.049708,124.522952" id="Shape" stroke="#939598" stroke-width="0.52615332" opacity="0.3" stroke-linecap="round"></path>
                    <path d="M138.190015,124.522952 L147.029391,124.522952" id="Shape" stroke="#F1F2F2" stroke-width="0.52615332" stroke-linecap="round"></path>
                    <path d="M138.049708,127.82018 L138.049708,131.889099" id="Shape" stroke="#F1F2F2" stroke-width="0.5" stroke-linecap="round"></path>
                    <text id="&gt;" fill="#F1F2F2" font-family="Helvetica" font-size="2.70765514" font-weight="normal">
                        <tspan x="145.443495" y="130.514309">&gt;</tspan>
                    </text>
                    <text id="&lt;" fill="#F1F2F2" font-family="Helvetica" font-size="2.70765514" font-weight="normal">
                        <tspan x="128.964232" y="130.514309">&lt;</tspan>
                    </text>
                    <path d="M120.721725,122.278032 L126.825103,134.414635" id="Shape" stroke="#F1F2F2" stroke-width="0.5" stroke-linecap="round"></path>
                    <path d="M126.825103,122.278032 L120.721725,134.414635" id="Shape" stroke="#F1F2F2" stroke-width="0.5" stroke-linecap="round"></path>
                    <path d="M155.728459,122.207878 L149.625081,134.414635" id="Shape" stroke="#F1F2F2" stroke-width="0.5" stroke-linecap="round"></path>
                    <path d="M149.625081,122.207878 L155.728459,134.414635" id="Shape" stroke="#F1F2F2" stroke-width="0.5" stroke-linecap="round"></path>
                    <circle id="Oval" stroke="#FE5068" stroke-width="0.5" opacity="0.15" cx="110.198659" cy="99.1974393" r="2.0344595"></circle>
                    <ellipse id="Oval" fill="#6D6E71" fill-rule="nonzero" opacity="0.18" cx="110.198659" cy="99.1974393" rx="1.54338307" ry="1.61353685"></ellipse>
                    <path d="M110.198659,96.1808269 L110.198659,97.092826" id="Shape" stroke="#939598" stroke-width="0.5" opacity="0.3" stroke-linecap="round"></path>
                    <path d="M110.198659,97.5839024 L110.198659,100.740822" id="Shape" stroke="#F1F2F2" stroke-width="0.5" stroke-linecap="round"></path>
                    <path d="M110.198659,101.231899 L110.198659,102.073744" id="Shape" stroke="#939598" stroke-width="0.5" opacity="0.3" stroke-linecap="round"></path>
                    <path d="M107.041739,99.1974393 L108.094045,99.1974393" id="Shape" stroke="#939598" stroke-width="0.5" opacity="0.3" stroke-linecap="round"></path>
                    <path d="M108.585122,99.1272855 L111.742042,99.1272855" id="Shape" stroke="#F1F2F2" stroke-width="0.5" stroke-linecap="round"></path>
                    <path d="M108.023891,118.630035 L112.233118,118.630035" id="Shape" stroke="#F1F2F2" stroke-width="0.5" opacity="0.7" stroke-linecap="round"></path>
                    <path d="M108.023891,117.858344 L111.461426,117.858344" id="Shape" stroke="#F1F2F2" stroke-width="0.5" opacity="0.7" stroke-linecap="round"></path>
                    <path d="M132.998636,118.91065 L130.262638,118.91065" id="Shape" stroke="#F1F2F2" stroke-width="0.5" opacity="0.7" stroke-linecap="round"></path>
                    <path d="M163.866297,124.10203 L168.075524,124.10203" id="Shape" stroke="#F1F2F2" stroke-width="0.5" opacity="0.7" stroke-linecap="round"></path>
                    <path d="M164.637989,123.330338 L168.075524,123.330338" id="Shape" stroke="#F1F2F2" stroke-width="0.5" opacity="0.7" stroke-linecap="round"></path>
                    <path d="M108.935891,124.873721 C109.286659,124.873721 109.286659,125.78572 109.637428,125.78572 C109.988197,125.78572 109.988197,124.873721 110.338966,124.873721 C110.689735,124.873721 110.689735,125.78572 111.040504,125.78572 C111.391273,125.78572 111.391273,124.873721 111.742042,124.873721 C112.09281,124.873721 112.09281,125.78572 112.443579,125.78572" id="Shape" stroke="#FE6757" stroke-width="0.5" opacity="0.1"></path>
                    <rect id="Rectangle-path" stroke="#FFFFFF" stroke-width="0.5" x="45.5870308" y="18.0295204" width="18.3101355" height="3.85845768"></rect>
                    <path d="M48.042413,19.9236724 L61.8627069,19.9236724" id="Shape" stroke="#939598" stroke-width="0.5" opacity="0.3" stroke-linecap="round"></path>
                    <rect id="Rectangle-path" stroke="#FFFFFF" stroke-width="0.5" x="109.146352" y="87.5519124" width="18.3101355" height="3.85845768"></rect>
                    <path d="M111.601734,89.5162182 L125.422028,89.5162182" id="Shape" stroke="#939598" stroke-width="0.5" opacity="0.3" stroke-linecap="round"></path>
                    <path d="M191.015808,29.3242784 L218.445935,29.3242784" id="Shape" stroke="#F1F2F2" stroke-width="1.05230664" opacity="0.7" stroke-linecap="round"></path>
                    <path d="M181.615202,33.5335049 L227.846541,33.5335049" id="Shape" stroke="#F1F2F2" stroke-width="1.05230664" opacity="0.7" stroke-linecap="round"></path>
                    <circle id="Oval" stroke="#FE6757" stroke-width="0.5" opacity="0.15" cx="138.119861" cy="75.6257705" r="13.2590637"></circle>
                    <circle id="Oval" fill="#FE6757" fill-rule="nonzero" opacity="0.18" cx="138.119861" cy="75.6257705" r="10.4529126"></circle>
                    <path d="M138.119861,55.7722519 L138.119861,61.9457842" id="Shape" stroke="#6D6E71" stroke-width="0.5" opacity="0.75" stroke-linecap="round"></path>
                    <path d="M138.119861,65.1728579 L138.119861,86.0786832" id="Shape" stroke="#F1F2F2" stroke-width="0.5" stroke-linecap="round"></path>
                    <path d="M138.119861,89.3057568 L138.119861,94.56729" id="Shape" stroke="#6D6E71" stroke-width="0.5" opacity="0.75" stroke-linecap="round"></path>
                    <path d="M107.2522,75.6257705 L124.510029,75.6257705" id="Shape" stroke="#6D6E71" stroke-width="0.5" opacity="0.75" stroke-linecap="round"></path>
                    <path d="M151.729694,76.2571545 L169.408445,76.2571545" id="Shape" stroke="#6D6E71" stroke-width="0.5" opacity="0.75" stroke-linecap="round"></path>
                    <path d="M127.807256,75.485463 L148.50262,75.485463" id="Shape" stroke="#F1F2F2" stroke-width="0.5" stroke-linecap="round"></path>
                    <g id="Group" opacity="0.7" transform="translate(132.086637, 68.750700)" fill-rule="nonzero">
                        <g id="Shape">
                            <polygon fill="url(#linearGradient-1)" points="6.03322474 4.70030299 3.85845768 4.41968789 2.87630482 12.0664495 6.03322474 14.4516779"></polygon>
                            <polygon fill="url(#linearGradient-2)" points="6.03322474 4.70030299 0.420922656 3.92861146 1.61353685 1.82399818"></polygon>
                            <polygon fill="url(#linearGradient-3)" points="1.61353685 1.82399818 0.420922656 3.92861146 10.03199 3.92861146 12.0664495 0.491076432"></polygon>
                        </g>
                    </g>
                    <rect id="Rectangle-path" stroke="#58595B" stroke-width="0.5" opacity="0.15" stroke-linecap="round" x="180.352435" y="41.6011892" width="6.52430117" height="6.52430117"></rect>
                    <path d="M186.876736,41.6011892 L180.352435,48.1254903" id="Shape" stroke="#58595B" stroke-width="0.5" opacity="0.15" stroke-linecap="round"></path>
                    <path d="M180.352435,41.6011892 L186.876736,48.1254903" id="Shape" stroke="#58595B" stroke-width="0.5" opacity="0.15" stroke-linecap="round"></path>
                    <rect id="Rectangle-path" stroke="#58595B" stroke-width="0.5" opacity="0.15" stroke-linecap="round" x="194.032421" y="41.6011892" width="6.52430117" height="6.52430117"></rect>
                    <path d="M200.556722,41.6011892 L194.032421,48.1254903" id="Shape" stroke="#58595B" stroke-width="0.5" opacity="0.15" stroke-linecap="round"></path>
                    <path d="M194.032421,41.6011892 L200.556722,48.1254903" id="Shape" stroke="#58595B" stroke-width="0.5" opacity="0.15" stroke-linecap="round"></path>
                    <rect id="Rectangle-path" stroke="#58595B" stroke-width="0.5" opacity="0.15" stroke-linecap="round" x="207.642253" y="41.6011892" width="6.52430117" height="6.52430117"></rect>
                    <path d="M214.166555,41.6011892 L207.642253,48.1254903" id="Shape" stroke="#58595B" stroke-width="0.5" opacity="0.15" stroke-linecap="round"></path>
                    <path d="M207.642253,41.6011892 L214.166555,48.1254903" id="Shape" stroke="#58595B" stroke-width="0.5" opacity="0.15" stroke-linecap="round"></path>
                    <rect id="Rectangle-path" stroke="#58595B" stroke-width="0.5" opacity="0.15" stroke-linecap="round" x="221.32224" y="41.6011892" width="6.52430117" height="6.52430117"></rect>
                    <path d="M227.846541,41.6011892 L221.32224,48.1254903" id="Shape" stroke="#58595B" stroke-width="0.5" opacity="0.15" stroke-linecap="round"></path>
                    <path d="M221.32224,41.6011892 L227.846541,48.1254903" id="Shape" stroke="#58595B" stroke-width="0.5" opacity="0.15" stroke-linecap="round"></path>
                    <rect id="Rectangle-path" stroke="#58595B" stroke-width="0.5" opacity="0.15" stroke-linecap="round" x="215.148707" y="118.34942" width="6.52430117" height="6.52430117"></rect>
                    <path d="M221.673009,118.34942 L215.148707,124.873721" id="Shape" stroke="#58595B" stroke-width="0.5" opacity="0.15" stroke-linecap="round"></path>
                    <path d="M215.148707,118.34942 L221.673009,124.873721" id="Shape" stroke="#58595B" stroke-width="0.5" opacity="0.15" stroke-linecap="round"></path>
                    <rect id="Rectangle-path" stroke="#58595B" stroke-width="0.5" opacity="0.15" stroke-linecap="round" x="215.148707" y="102.775282" width="6.52430117" height="6.52430117"></rect>
                    <path d="M221.673009,102.775282 L215.148707,109.299583" id="Shape" stroke="#58595B" stroke-width="0.5" opacity="0.15" stroke-linecap="round"></path>
                    <path d="M215.148707,102.775282 L221.673009,109.299583" id="Shape" stroke="#58595B" stroke-width="0.5" opacity="0.15" stroke-linecap="round"></path>
                    <path d="M176.143208,17.6787516 L180.352435,17.6787516" id="Shape" stroke="#FFFFFF" stroke-width="0.5"></path>
                    <path d="M227.846541,17.6787516 L232.055767,17.6787516" id="Shape" stroke="#FFFFFF" stroke-width="0.5"></path>
                    <rect id="Rectangle-path" fill="#FE6757" fill-rule="nonzero" opacity="0.05" x="40.9568816" y="55.5617906" width="18.801212" height="17.8190591"></rect>
                    <rect id="Rectangle-path" fill="#FE6757" fill-rule="nonzero" opacity="0.07" x="62.6343984" y="55.5617906" width="18.801212" height="17.8190591"></rect>
                    <rect id="Rectangle-path" fill="#FE6757" fill-rule="nonzero" opacity="0.12" x="41.0270354" y="75.0645403" width="62.0860918" height="18.6609044"></rect>
                    <rect id="Rectangle-path" fill="#FE6757" fill-rule="nonzero" opacity="0.05" x="84.3119152" y="55.5617906" width="18.801212" height="17.8190591"></rect>
                    <rect id="Rectangle-path" fill="#FE6757" fill-rule="nonzero" opacity="0.05" x="84.3119152" y="55.5617906" width="9.40060598" height="17.8190591"></rect>
                    <path d="M45.8676459,80.185766 L95.7469807,80.185766" id="Shape" stroke="#F1F2F2" stroke-width="0.52615332" opacity="0.6" stroke-linecap="round"></path>
                    <path d="M45.8676459,82.5709944 L86.9076049,82.5709944" id="Shape" stroke="#F1F2F2" stroke-width="0.52615332" opacity="0.6" stroke-linecap="round"></path>
                    <path d="M72.0350044,60.6830162 L72.0350044,69.3119307" id="Shape" stroke="#F1F2F2" stroke-width="0.5" stroke-linecap="round"></path>
                    <text id="&gt;" fill="#F1F2F2" font-family="Helvetica" font-size="2.9028931" font-weight="normal">
                        <tspan x="78.1630069" y="65.9153094">&gt;</tspan>
                    </text>
                    <text id="&lt;" fill="#F1F2F2" font-family="Helvetica" font-size="2.9028931" font-weight="normal">
                        <tspan x="63.5790891" y="65.9153094">&lt;</tspan>
                    </text>
                    <rect id="Rectangle-path" fill="#6D6E71" fill-rule="nonzero" opacity="0.08" x="50.3574876" y="55.5617906" width="9.40060598" height="17.8190591"></rect>
                    <path d="M93.7125212,55.5617906 L84.3119152,73.3808497" id="Shape" stroke="#F1F2F2" stroke-width="0.5"></path>
                    <path d="M84.3119152,55.5617906 L93.7125212,73.3808497" id="Shape" stroke="#F1F2F2" stroke-width="0.5"></path>
                    <rect id="Rectangle-path" fill="#FE5068" fill-rule="nonzero" opacity="0.05" x="224.549313" y="102.564821" width="7.43630026" height="28.0615104"></rect>
                    <path d="M232.055767,102.564821 L224.549313,130.626331" id="Shape" stroke="#F1F2F2" stroke-width="0.5" opacity="0.8"></path>
                    <path d="M224.549313,102.564821 L232.055767,130.626331" id="Shape" stroke="#F1F2F2" stroke-width="0.5" opacity="0.8"></path>
                    <path d="M59.7580936,55.5617906 L50.3574876,73.3808497" id="Shape" stroke="#F1F2F2" stroke-width="0.5"></path>
                    <path d="M50.3574876,55.5617906 L59.7580936,73.3808497" id="Shape" stroke="#F1F2F2" stroke-width="0.5"></path>
                    <path d="M95.1155967,57.7365576 L101.49959,57.7365576" id="Shape" stroke="#F1F2F2" stroke-width="0.5"></path>
                    <path d="M96.2380571,56.9648661 L101.49959,56.9648661" id="Shape" stroke="#F1F2F2" stroke-width="0.5"></path>
                    <path d="M95.3962118,71.1359289 L101.780205,71.1359289" id="Shape" stroke="#F1F2F2" stroke-width="0.5" opacity="0.7" stroke-linecap="round"></path>
                    <path d="M95.3962118,69.7328533 L100.587591,69.7328533" id="Shape" stroke="#F1F2F2" stroke-width="0.5" opacity="0.7" stroke-linecap="round"></path>
                    <path d="M45.8676459,89.5162182 L79.3309971,89.5162182" id="Shape" stroke="#F1F2F2" stroke-width="0.5" opacity="0.6" stroke-linecap="round"></path>
                    <path d="M45.8676459,87.7623738 L73.2276186,87.7623738" id="Shape" stroke="#F1F2F2" stroke-width="0.5" opacity="0.6" stroke-linecap="round"></path>
                    <path d="M45.8676459,31.2885841 L70.0005449,31.2885841" id="Shape" stroke="#F1F2F2" stroke-width="0.5" opacity="0.6" stroke-linecap="round"></path>
                    <path d="M45.8676459,29.5347397 L65.580857,29.5347397" id="Shape" stroke="#F1F2F2" stroke-width="0.5" opacity="0.6" stroke-linecap="round"></path>
                    <path d="M42.2898034,71.6270053 L48.673797,71.6270053" id="Shape" stroke="#F1F2F2" stroke-width="0.5" opacity="0.7" stroke-linecap="round"></path>
                    <path d="M42.2898034,70.2239298 L47.5513366,70.2239298" id="Shape" stroke="#F1F2F2" stroke-width="0.5" opacity="0.7" stroke-linecap="round"></path>
                    <path d="M42.3599571,60.3322474 C42.8510336,60.3322474 42.8510336,61.2442464 43.2719562,61.2442464 C43.7630327,61.2442464 43.7630327,60.3322474 44.1839553,60.3322474 C44.604878,60.3322474 44.6750317,61.2442464 45.0959544,61.2442464 C45.5168771,61.2442464 45.5870308,60.3322474 46.0079535,60.3322474 C46.4990299,60.3322474 46.4990299,61.2442464 46.9199526,61.2442464" id="Shape" stroke="#5D33E5" stroke-width="0.5" opacity="0.1"></path>
                    <path d="M63.4060899,57.3857888 L71.8245431,57.3857888" id="Shape" stroke="#939598" stroke-width="0.5" opacity="0.3" stroke-linecap="round"></path>
                    <path d="M72.0350044,57.315635 L80.4534575,57.315635" id="Shape" stroke="#F1F2F2" stroke-width="0.5" stroke-linecap="round"></path>
                    <path d="M98.9740544,31.639353 L98.9740544,44.1968789" id="Shape" stroke="#F1F2F2" stroke-width="0.5" stroke-linecap="round"></path>
                    <text id="&lt;" fill="#F1F2F2" font-family="Helvetica" font-size="4.20922656" font-weight="normal">
                        <tspan x="89.2101921" y="38.7957117">&lt;</tspan>
                    </text>
                    <rect id="Rectangle-path" fill="#6D6E71" fill-rule="nonzero" opacity="0.08" x="73.9291563" y="24.7642829" width="10.8738353" height="25.8867433"></rect>
                    <path d="M84.8029916,24.7642829 L73.9291563,50.6510263" id="Shape" stroke="#F1F2F2" stroke-width="0.5"></path>
                    <path d="M73.9291563,24.7642829 L84.8029916,50.6510263" id="Shape" stroke="#F1F2F2" stroke-width="0.5"></path>
                    <path d="M64.5987041,48.0553366 L71.9648506,48.0553366" id="Shape" stroke="#F1F2F2" stroke-width="0.5" opacity="0.7" stroke-linecap="round"></path>
                    <path d="M64.5987041,46.0910308 L70.6319289,46.0910308" id="Shape" stroke="#F1F2F2" stroke-width="0.5" opacity="0.7" stroke-linecap="round"></path>
                    <path d="M64.5987041,31.639353 C65.1599343,31.639353 65.1599343,32.9722747 65.6510108,32.9722747 C66.212241,32.9722747 66.212241,31.639353 66.7033174,31.639353 C67.1943938,31.639353 67.2645476,32.9722747 67.755624,32.9722747 C68.2467005,32.9722747 68.3168543,31.639353 68.8079307,31.639353 C69.2990071,31.639353 69.3691609,32.9722747 69.8602373,32.9722747" id="Shape" stroke="#FE5068" stroke-width="0.5" opacity="0.1"></path>
                    <path d="M108.795583,73.9420799 L116.231883,73.9420799" id="Shape" stroke="#F1F2F2" stroke-width="0.5" opacity="0.7" stroke-linecap="round"></path>
                    <path d="M108.795583,71.9076204 L114.828808,71.9076204" id="Shape" stroke="#F1F2F2" stroke-width="0.5" opacity="0.7" stroke-linecap="round"></path>
                    <path d="M108.865737,57.5260963 C109.426967,57.5260963 109.426967,58.8590181 109.918043,58.8590181 C110.40912,58.8590181 110.479274,57.5260963 110.97035,57.5260963 C111.461426,57.5260963 111.53158,58.8590181 112.022657,58.8590181 C112.513733,58.8590181 112.583887,57.5260963 113.074963,57.5260963 C113.636194,57.5260963 113.636194,58.8590181 114.12727,58.8590181" id="Shape" stroke="#FE5068" stroke-width="0.5" opacity="0.26"></path>
                    <path d="M95.326058,100.109438 C95.8872882,100.109438 95.8872882,101.44236 96.3783647,101.44236 C96.8694411,101.44236 96.9395949,100.109438 97.4306713,100.109438 C97.9217477,100.109438 97.9919015,101.44236 98.4829779,101.44236 C99.0442081,101.44236 99.0442081,100.109438 99.5352846,100.109438 C100.026361,100.109438 100.096515,101.44236 100.587591,101.44236" id="Shape" stroke="#FE5068" stroke-width="0.5" opacity="0.2"></path>
                    <path d="M89.0122182,26.8688962 L98.763593,26.8688962" id="Shape" stroke="#939598" stroke-width="0.52615332" opacity="0.2" stroke-linecap="round"></path>
                    <path d="M166.181372,79.3439207 L166.181372,91.9014466" id="Shape" stroke="#F1F2F2" stroke-width="0.5" stroke-linecap="round"></path>
                    <text id="&lt;" fill="#F1F2F2" font-family="Helvetica" font-size="4.20922656" font-weight="normal">
                        <tspan x="156.441502" y="86.4861083">&lt;</tspan>
                    </text>
                    <path d="M156.219536,74.5734639 L166.041064,74.5734639" id="Shape" stroke="#939598" stroke-width="0.52615332" opacity="0.2" stroke-linecap="round"></path>
                    <rect id="Rectangle-path" fill="#414042" fill-rule="nonzero" opacity="0.08" x="179.300128" y="102.564821" width="6.87507005" height="28.0615104"></rect>
                    <rect id="Rectangle-path" fill="#F1F2F2" fill-rule="nonzero" opacity="0.3" x="190.875501" y="121.366032" width="17.7489053" height="5.33168698"></rect>
                    <path d="M183.649662,108.738353 L209.81702,108.738353" id="Shape" stroke="#F1F2F2" stroke-width="2.10461328" opacity="0.6" stroke-linecap="round"></path>
                    <path d="M188.420119,114.07004 L205.818255,114.07004" id="Shape" stroke="#F1F2F2" stroke-width="0.5" opacity="0.6" stroke-linecap="round"></path>
                    <path d="M188.420119,116.314961 L202.731489,116.314961" id="Shape" stroke="#F1F2F2" stroke-width="0.5" opacity="0.6" stroke-linecap="round"></path>
                    <path d="M194.94442,124.031876 L204.345026,124.031876" id="Shape" stroke="#939598" stroke-width="0.52615332" opacity="0.3" stroke-linecap="round"></path>
                    <rect id="Rectangle-path" fill="#FE6757" fill-rule="nonzero" opacity="0.07" x="47.6214903" y="105.581433" width="25.8867433" height="20.2744413"></rect>
                    <path d="M73.4380799,105.581433 L47.6214903,125.855874" id="Shape" stroke="#F1F2F2" stroke-width="0.5" opacity="0.6"></path>
                    <path d="M47.6214903,105.581433 L73.4380799,125.855874" id="Shape" stroke="#F1F2F2" stroke-width="0.5" opacity="0.6"></path>
                    <path d="M77.2965376,112.877426 L85.294068,112.877426" id="Shape" stroke="#F1F2F2" stroke-width="0.5"></path>
                    <path d="M78.7697669,111.965426 L85.294068,111.965426" id="Shape" stroke="#F1F2F2" stroke-width="0.5"></path>
                    <path d="M157.903226,59.490402 L165.97091,59.490402" id="Shape" stroke="#F1F2F2" stroke-width="0.5" opacity="0.7"></path>
                    <path d="M159.376456,58.578403 L165.97091,58.578403" id="Shape" stroke="#F1F2F2" stroke-width="0.5" opacity="0.7"></path>
                    <path d="M78.0682291,123.260184 L95.7469807,123.260184" id="Shape" stroke="#F1F2F2" stroke-width="0.5" opacity="0.7" stroke-linecap="round"></path>
                    <path d="M78.0682291,121.716801 L92.519907,121.716801" id="Shape" stroke="#F1F2F2" stroke-width="0.5" opacity="0.7" stroke-linecap="round"></path>
                    <rect id="Rectangle-path" fill="#FE5068" fill-rule="nonzero" opacity="0.1" x="173.337057" y="55.4916368" width="61.8756304" height="6.59445494"></rect>
                    <rect id="Rectangle-path" fill="#FE6757" fill-rule="nonzero" opacity="0.1" x="173.337057" y="63.7697824" width="61.8756304" height="6.59445494"></rect>
                    <rect id="Rectangle-path" fill="#FE6757" fill-rule="nonzero" opacity="0.1" x="173.337057" y="72.047928" width="61.8756304" height="6.59445494"></rect>
                    <rect id="Rectangle-path" fill="#FE6757" fill-rule="nonzero" opacity="0.18" x="173.337057" y="80.3962273" width="61.8756304" height="12.9784486"></rect>
                    <path d="M176.985053,59.0694794 L188.06935,59.0694794" id="Shape" stroke="#F1F2F2" stroke-width="0.5" opacity="0.7" stroke-linecap="round"></path>
                    <path d="M176.985053,60.5427087 L186.105044,60.5427087" id="Shape" stroke="#F1F2F2" stroke-width="0.5" opacity="0.7" stroke-linecap="round"></path>
                    <path d="M208.063176,75.3451554 L219.147473,75.3451554" id="Shape" stroke="#F1F2F2" stroke-width="0.5" opacity="0.7" stroke-linecap="round"></path>
                    <path d="M208.063176,76.8183847 L217.183167,76.8183847" id="Shape" stroke="#F1F2F2" stroke-width="0.5" opacity="0.7" stroke-linecap="round"></path>
                    <path d="M177.616437,84.3248388 L226.653927,84.3248388" id="Shape" stroke="#F1F2F2" stroke-width="0.5" stroke-linecap="round"></path>
                    <path d="M177.616437,86.1488369 L217.954858,86.1488369" id="Shape" stroke="#F1F2F2" stroke-width="0.5" stroke-linecap="round"></path>
                    <text id="&gt;" fill="#F1F2F2" font-family="Helvetica" font-size="5.24329322" font-weight="normal">
                        <tspan x="227.851592" y="67.8934214">&gt;</tspan>
                    </text>
                    <text id="&lt;" fill="#F1F2F2" font-family="Helvetica" font-size="5.24329322" font-weight="normal">
                        <tspan x="176.316628" y="67.8934214">&lt;</tspan>
                    </text>
                    <path d="M204.274872,64.4713201 L204.274872,69.3820845" id="Shape" stroke="#F1F2F2" stroke-width="0.5"></path>
                    <rect id="Rectangle-path" fill="#FE6757" fill-rule="nonzero" opacity="0.07" x="173.617672" y="72.047928" width="30.6572001" height="6.59445494"></rect>
                    <rect id="Rectangle-path" fill="#6D6E71" fill-rule="nonzero" opacity="0.18" x="204.274872" y="55.4916368" width="30.9378152" height="6.66460872"></rect>
                    <path d="M235.212687,55.4916368 L204.274872,62.0860918" id="Shape" stroke="#F1F2F2" stroke-width="0.5" stroke-linecap="round"></path>
                    <path d="M204.274872,55.4916368 L235.212687,62.0860918" id="Shape" stroke="#F1F2F2" stroke-width="0.5" stroke-linecap="round"></path>
                    <path d="M204.274872,72.047928 L173.617672,78.6423829" id="Shape" stroke="#F1F2F2" stroke-width="0.5" stroke-linecap="round"></path>
                    <path d="M173.617672,72.047928 L204.274872,78.6423829" id="Shape" stroke="#F1F2F2" stroke-width="0.5" stroke-linecap="round"></path>
                    <path d="M193.260729,56.8947123 C194.032421,56.8947123 194.032421,58.0171728 194.804112,58.0171728 C195.575804,58.0171728 195.575804,56.8947123 196.347495,56.8947123 C197.119187,56.8947123 197.119187,58.0171728 197.890879,58.0171728 C198.66257,58.0171728 198.66257,56.8947123 199.434262,56.8947123 C200.205953,56.8947123 200.205953,58.0171728 200.977645,58.0171728" id="Shape" stroke="#FE6757" stroke-width="0.5" opacity="0.1"></path>
                    <rect id="Rectangle-path" fill="#FE6757" fill-rule="nonzero" opacity="0.12" x="107.392507" y="26.93905" width="61.7353229" height="26.0270509"></rect>
                    <rect id="Rectangle-path" fill="#FE6757" fill-rule="nonzero" opacity="0.1" x="107.392507" y="14.732293" width="19.6430573" height="10.7335277"></rect>
                    <rect id="Rectangle-path" fill="#FE6757" fill-rule="nonzero" opacity="0.1" x="128.43864" y="14.732293" width="40.6891901" height="10.7335277"></rect>
                    <rect id="Rectangle-path" fill="#6D6E71" fill-rule="nonzero" opacity="0.1" x="128.929717" y="26.8688962" width="40.1981136" height="26.2375122"></rect>
                    <path d="M128.929717,53.0362547 L169.12783,26.8688962" id="Shape" stroke="#F1F2F2" stroke-width="0.5" stroke-linecap="round"></path>
                    <path d="M169.12783,53.0362547 L128.929717,26.8688962" id="Shape" stroke="#F1F2F2" stroke-width="0.5" stroke-linecap="round"></path>
                    <path d="M111.040504,44.4073402 L125.702643,44.4073402" id="Shape" stroke="#F1F2F2" stroke-width="0.5" opacity="0.7" stroke-linecap="round"></path>
                    <path d="M111.040504,47.6344139 L123.106953,47.6344139" id="Shape" stroke="#F1F2F2" stroke-width="0.5" opacity="0.7" stroke-linecap="round"></path>
                    <circle id="Oval" stroke="#FE6757" stroke-width="0.5" opacity="0.15" cx="117.634959" cy="20.4147488" r="3.29722747"></circle>
                    <path d="M117.705113,14.8024467 L117.705113,16.3458298" id="Shape" stroke="#939598" stroke-width="0.5" opacity="0.3" stroke-linecap="round"></path>
                    <path d="M117.354344,24.2030527 L117.354344,25.4658207" id="Shape" stroke="#939598" stroke-width="0.5" opacity="0.3" stroke-linecap="round"></path>
                    <path d="M107.392507,20.4147488 L112.583887,20.4147488" id="Shape" stroke="#939598" stroke-width="0.5" opacity="0.3" stroke-linecap="round"></path>
                    <path d="M121.984493,20.344595 L126.684796,20.344595" id="Shape" stroke="#939598" stroke-width="0.5" opacity="0.3" stroke-linecap="round"></path>
                    <path d="M132.507559,18.169828 L157.903226,18.169828" id="Shape" stroke="#6D6E71" stroke-width="0.5" opacity="0.3" stroke-linecap="round"></path>
                    <path d="M132.507559,20.1341337 L164.988758,20.1341337" id="Shape" stroke="#6D6E71" stroke-width="0.5" opacity="0.3" stroke-linecap="round"></path>
                    <rect id="Rectangle-path" stroke="#FE6757" stroke-width="0.5" opacity="0.3" x="37.2387315" y="12.1366032" width="201.621952" height="125.575259"></rect>
                </g>
                <g id="ipad" transform="translate(75.600000, 54.432000)">
                    <g id="Mock-up---Pad-Copy_2_" fill-rule="nonzero">
                        <path d="M6.03322474,0.490373388 L88.323604,0.490373388 C91.5506777,0.490373388 94.1463674,3.08234701 94.1463674,6.3048007 L94.1463674,126.866601 C94.1463674,130.089054 91.5506777,132.681028 88.323604,132.681028 L6.03322474,132.681028 C2.80615104,132.681028 0.210461328,130.089054 0.210461328,126.866601 L0.210461328,6.3048007 C0.140307552,3.08234701 2.80615104,0.490373388 6.03322474,0.490373388 Z" id="Rectangle-4_2_" fill="#FFFFFF"></path>
                        <g id="Group-7_2_" fill="#FE5068">
                            <path d="M92.3223692,2.10160023 C91.2700626,1.05080012 89.8669871,0.490373388 88.323604,0.490373388 L5.5421483,0.490373388 C4.06891901,0.490373388 2.73599726,1.05080012 1.68369062,2.10160023 C0.631383984,3.15240035 0.070153776,4.55346717 0.070153776,6.02458733 L0.070153776,127.427027 C0.070153776,130.509374 2.73599726,132.961241 6.03322474,132.961241 L87.9026813,132.961241 C89.5162182,132.961241 90.9894475,132.400815 92.1119079,131.350015 C93.2343683,130.299214 93.8657523,128.758041 93.8657523,127.146814 L93.8657523,5.95453399 C94.0060598,4.55346717 93.4448296,3.08234701 92.3223692,2.10160023 Z M93.5851372,127.076761 C93.5851372,130.229161 91.0596012,132.400815 88.0429889,132.400815 L6.17353229,132.400815 C3.08676614,132.400815 0.631383984,130.089054 0.631383984,127.286921 L0.631383984,5.95453399 C0.631383984,3.15240035 2.94645859,0.840640093 5.61230208,0.840640093 L88.3937578,0.840640093 C91.3402164,0.840640093 93.5851372,3.15240035 93.5851372,5.95453399 L93.5851372,127.076761 L93.5851372,127.076761 Z" id="Shape-Copy-10_2_"></path>
                            <path d="M47.2134912,7.8459742 C47.6344139,7.8459742 47.9851828,7.4957075 47.9851828,7.07538745 C47.9851828,6.6550674 47.6344139,6.3048007 47.2134912,6.3048007 C46.7925686,6.3048007 46.4417997,6.6550674 46.4417997,7.07538745 C46.3716459,7.56576084 46.7224148,7.8459742 47.2134912,7.8459742 Z M47.2134912,6.58501406 C47.4239526,6.58501406 47.7045677,6.79517409 47.7045677,7.07538745 C47.7045677,7.28554747 47.4941064,7.56576084 47.2134912,7.56576084 C47.0030299,7.56576084 46.7224148,7.35560082 46.7224148,7.07538745 C46.7224148,6.86522743 46.9328761,6.58501406 47.2134912,6.58501406 Z" id="Shape-Copy-12_2_"></path>
                            <ellipse id="Oval-Copy-6_2_" cx="44.8984166" cy="6.72512075" rx="1" ry="1"></ellipse>
                            <path d="M47.1433375,123.433987 C45.3894931,123.433987 43.9864176,124.835054 43.9864176,126.586387 C43.9864176,126.656441 43.9864176,126.656441 43.9864176,126.656441 C44.0565713,128.337721 45.4596468,129.738788 47.1433375,129.738788 C48.8971819,129.738788 50.3002574,128.337721 50.3002574,126.586387 C50.3002574,124.835054 48.8971819,123.433987 47.1433375,123.433987 Z M47.1433375,129.318468 C46.4417997,129.318468 45.740262,129.038254 45.2491855,128.547881 C44.6879553,128.057508 44.4073402,127.356974 44.4073402,126.656441 L44.4073402,126.586387 L44.4073402,126.516334 C44.4073402,124.975161 45.5999544,123.784254 47.1433375,123.784254 C48.6867205,123.784254 49.8793347,124.975161 49.8793347,126.516334 C49.8793347,128.127561 48.6165668,129.318468 47.1433375,129.318468 Z" id="Shape-Copy-13_2_"></path>
                            <path d="M47.7045677,125.395481 L46.4417997,125.395481 C46.1611846,125.395481 45.8805695,125.605641 45.8805695,125.955907 L45.8805695,127.216867 C45.8805695,127.497081 46.0910308,127.777294 46.4417997,127.777294 L47.7045677,127.777294 C47.9851828,127.777294 48.2657979,127.567134 48.2657979,127.216867 L48.2657979,125.955907 C48.2657979,125.675694 47.9851828,125.395481 47.7045677,125.395481 Z M47.8448752,127.216867 C47.8448752,127.286921 47.7747215,127.286921 47.7747215,127.286921 L46.5119535,127.286921 C46.4417997,127.286921 46.4417997,127.216867 46.4417997,127.216867 L46.4417997,125.955907 C46.4417997,125.885854 46.5119535,125.885854 46.5119535,125.885854 L47.7747215,125.885854 C47.8448752,125.885854 47.8448752,125.955907 47.8448752,125.955907 L47.8448752,127.216867 Z" id="Shape-Copy-14_2_"></path>
                        </g>
                    </g>
                    <rect id="Rectangle-path" fill="#FE5068" fill-rule="nonzero" opacity="0.1" x="6.66460872" y="12.2593347" width="80.8873037" height="109.002999"></rect>
                    <rect id="Rectangle-path" fill="#FE6757" fill-rule="nonzero" opacity="0.3" x="6.66460872" y="12.2593347" width="80.8873037" height="108.582679"></rect>
                    <g id="Group" opacity="0.8" transform="translate(16.135368, 39.229871)" fill-rule="nonzero">
                        <g id="Shape">
                            <polygon fill="url(#linearGradient-4)" points="22.7999772 17.3031753 14.100909 16.1823218 10.03199 46.5854718 22.7999772 56.3929396"></polygon>
                            <polygon fill="url(#linearGradient-5)" points="22.7999772 17.3031753 0.280615104 14.3609349 5.19137942 5.95453399"></polygon>
                            <polygon fill="url(#linearGradient-6)" points="5.19137942 5.95453399 0.280615104 14.3609349 38.8651919 14.3609349 46.8627224 0.420320047"></polygon>
                        </g>
                    </g>
                    <rect id="Rectangle-path" fill="#FE6757" fill-rule="nonzero" opacity="0.2" x="47.2134912" y="62.1373136" width="33.2528898" height="33.2052837"></rect>
                    <g id="Group" transform="translate(38.584577, 53.240539)" stroke-width="0.5">
                        <rect id="Rectangle-path" stroke="#FE6757" opacity="0.45" x="0.35076888" y="33.7657104" width="8.13783802" height="8.33634759"></rect>
                        <rect id="Rectangle-path" stroke="#FE6757" opacity="0.4" x="0.35076888" y="25.3593095" width="8.13783802" height="8.33634759"></rect>
                        <rect id="Rectangle-path" stroke="#FE5068" opacity="0.35" x="0.35076888" y="17.0229619" width="8.13783802" height="8.33634759"></rect>
                        <rect id="Rectangle-path" stroke="#FE6757" opacity="0.3" x="0.35076888" y="8.6866143" width="8.13783802" height="8.33634759"></rect>
                        <rect id="Rectangle-path" stroke="#FE6757" opacity="0.3" x="0.35076888" y="0.280213364" width="8.13783802" height="8.33634759"></rect>
                    </g>
                    <g id="Group" transform="translate(13.329217, 39.733871)">
                        <g opacity="0.8" transform="translate(33.673812, 21.913069)" id="Shape" fill-rule="nonzero" fill="#FFFFFF">
                            <g>
                                <g>
                                    <polygon points="8.41845312 0.490373388 8.41845312 2.80213364 5.61230208 2.80213364 4.48984166 2.80213364 5.61230208 3.50266706 5.61230208 15.5518417 2.94645859 15.5518417 2.94645859 2.80213364 0.140307552 2.80213364 0.140307552 0.490373388"></polygon>
                                    <path d="M12.4172184,9.80746775 L12.4172184,15.4817884 L9.75137486,15.4817884 L9.75137486,0.490373388 L14.1710628,0.490373388 C15.3636769,0.490373388 16.275676,0.770586752 16.90706,1.33101348 C17.538444,1.89144021 17.8892129,2.7320803 17.8892129,3.78288042 L17.8892129,6.37485404 C17.8892129,8.05613423 17.2578289,9.10693434 16.0652147,9.59730773 L15.4338307,9.80746775 L16.3458298,10.3678945 L18.4504431,15.5518417 L15.5741383,15.5518417 L13.469525,9.8775211 L12.4172184,9.8775211 L12.4172184,9.80746775 Z M12.4172184,2.7320803 L12.4172184,7.70586752 L13.9606014,7.70586752 C14.4516779,7.70586752 14.8024467,7.56576084 15.0129081,7.35560082 C15.2233694,7.14544079 15.3636769,6.79517409 15.3636769,6.3048007 L15.3636769,3.9229871 C15.3636769,3.08234701 14.9427543,2.66202696 14.0307552,2.66202696 L12.4172184,2.66202696 L12.4172184,2.7320803 Z"></path>
                                    <polygon points="20.1341337 0.490373388 22.7999772 0.490373388 22.7999772 15.4817884 20.1341337 15.4817884"></polygon>
                                    <path d="M25.1852056,0.490373388 L29.6048935,0.490373388 C30.7975077,0.490373388 31.7095068,0.770586752 32.3408907,1.40106682 C32.9722747,1.96149355 33.3230436,2.80213364 33.3230436,3.85293376 L33.3230436,7.4957075 C33.3230436,8.54650761 32.9722747,9.38714771 32.3408907,9.94757444 C31.7095068,10.5080012 30.7975077,10.8582679 29.6048935,10.8582679 L27.8510491,10.8582679 L27.8510491,15.4817884 L25.1852056,15.4817884 L25.1852056,0.490373388 Z M30.7273539,4.06309378 C30.7273539,3.15240035 30.2362775,2.7320803 29.3242784,2.7320803 L27.8510491,2.7320803 L27.8510491,8.54650761 L29.3242784,8.54650761 C30.2362775,8.54650761 30.7273539,8.12618757 30.7273539,7.21549413 L30.7273539,4.06309378 Z"></path>
                                    <polygon points="3.01661237 18.6341887 5.68245586 18.6341887 5.68245586 33.6256037 3.01661237 33.6256037"></polygon>
                                    <path d="M14.4516779,18.6341887 L17.0473676,18.6341887 L17.0473676,33.6256037 L14.3815241,33.6256037 C12.206757,28.1614431 11.0141428,24.9389894 10.663374,24.028296 C10.3827588,23.1176026 10.1722975,22.6272292 10.1722975,22.5571758 C10.1722975,22.5571758 10.2424513,22.8373892 10.3126051,23.3978159 C10.5230664,24.7288294 10.5932202,26.3400563 10.5932202,28.3015498 L10.5932202,33.6256037 L7.99753046,33.6256037 L7.99753046,18.6341887 L10.7335277,18.6341887 C12.6276797,23.3277626 13.6799863,26.0598429 13.9606014,26.900483 C14.2412165,27.7411231 14.4516779,28.3716031 14.5919854,28.7919232 C14.732293,29.2122432 14.8024467,29.4924566 14.8726005,29.5625099 C14.8726005,29.4924566 14.8024467,29.2122432 14.732293,28.7218699 C14.5218316,27.2507497 14.4516779,25.5694695 14.4516779,23.7480826 L14.4516779,18.6341887 L14.4516779,18.6341887 Z"></path>
                                </g>
                            </g>
                        </g>
                        <g transform="translate(0.000000, -0.000000)">
                            <g transform="translate(2.806151, -0.000000)" id="Shape" stroke="#6D6E71" stroke-width="0.5" opacity="0.5">
                                <path d="M38.6547306,13.9269883 L5.19137942,5.59064068"></path>
                                <path d="M46.652261,0.12648007 L0.35076888,13.9269883"></path>
                                <path d="M17.7489053,8.67298768 L17.7489053,52.0360058"></path>
                            </g>
                            <g transform="translate(1.403076, -0.000000)" stroke-width="0.5">
                                <polyline id="Shape" stroke="#FE6757" opacity="0.8" points="7.71691536 13.8569349 6.59445494 5.59064068 48.1254903 0.12648007"></polyline>
                                <rect id="Rectangle-path" stroke="#FE6757" opacity="0.8" transform="translate(7.791278, 11.830992) rotate(-59.999272) translate(-7.791278, -11.830992) " x="2.98585043" y="7.66291021" width="9.61085587" height="8.33616419"></rect>
                                <polyline id="Shape" stroke="#FE6757" opacity="0.7" points="47.283645 18.1301887 40.0578061 13.9269883 48.0553366 0.0564267288"></polyline>
                                <path d="M66.1550108,13.9269883 L0.35076888,13.9269883" id="Shape" stroke="#FE5068" opacity="0.7"></path>
                            </g>
                            <path d="M3.15691992,13.9269883 L27.570434,20.441949" id="Shape" stroke="#FE6757" stroke-width="0.5" opacity="0.7"></path>
                            <path d="M3.15691992,13.9269883 L28.201818,17.2194953" id="Shape" stroke="#FE5068" stroke-width="0.5" opacity="0.5"></path>
                            <text id="15" fill="#58595B" opacity="0.6" font-family="Helvetica" font-size="2.96764503" font-weight="normal">
                                <tspan x="1.72269612" y="18.2659878">15</tspan>
                            </text>
                            <text id="60" fill="#58595B" opacity="0.6" font-family="Helvetica" font-size="2.96764503" font-weight="normal">
                                <tspan x="45.4625933" y="12.9374505">60</tspan>
                            </text>
                            <text id="60" fill="#58595B" opacity="0.6" font-family="Helvetica" font-size="2.96764503" font-weight="normal">
                                <tspan x="0.0305168926" y="12.9374505">60</tspan>
                            </text>
                            <text id="7.5" fill="#58595B" opacity="0.6" font-family="Helvetica" font-size="2.96764503" font-weight="normal">
                                <tspan x="9.73278411" y="4.52145225">7.5</tspan>
                            </text>
                            <path d="M25.4658207,16.8692286 L7.99753046,5.59064068" id="Shape" stroke="#FE6757" stroke-width="0.5" opacity="0.7"></path>
                            <path d="M49.4584121,0.12648007 L40.5488825,15.4681618" id="Shape" stroke="#FE6757" stroke-width="0.5" opacity="0.5" stroke-linecap="round" stroke-linejoin="round"></path>
                        </g>
                    </g>
                    <rect id="Rectangle-path" stroke="#FE6757" stroke-width="0.5" opacity="0.3" x="6.66460872" y="12.2593347" width="80.8873037" height="108.582679"></rect>
                </g>
                <g id="phone" transform="translate(181.944000, 118.944000)">
                    <g id="Mock-up---Phone-Copy_2_" fill-rule="nonzero">
                        <path d="M7.02413793,1.61593043 L37.8179586,1.61593043 C41.0209655,1.61593043 43.6620414,4.23485217 43.6620414,7.4109913 L43.6620414,83.1925565 C43.6620414,86.3686957 41.0209655,88.9876174 37.8179586,88.9876174 L7.02413793,88.9876174 C3.82113103,88.9876174 1.18005517,86.3686957 1.18005517,83.1925565 L1.18005517,7.4109913 C1.18005517,4.23485217 3.82113103,1.61593043 7.02413793,1.61593043 Z" id="Rectangle-5_2_" fill="#FFFFFF"></path>
                        <path d="M42.0886345,3.00897391 C41.2457379,2.00598261 39.6161379,0.835826087 36.8064828,0.835826087 L36.8064828,0.835826087 L36.8064828,0.61293913 C36.8064828,0.334330435 36.5255172,0.0557217391 36.2445517,0.0557217391 L29.8385379,0.0557217391 C29.5575724,0.0557217391 29.2766069,0.334330435 29.2766069,0.61293913 L29.2766069,0.835826087 L8.42896552,0.835826087 L7.97942069,0.835826087 C5.16976552,0.835826087 3.54016552,2.00598261 2.69726897,3.00897391 C1.74198621,4.1234087 1.12386207,5.68361739 1.12386207,7.24382609 L1.12386207,9.19408696 L1.12386207,12.9274435 L0.899089655,12.9274435 C0.674317241,12.9274435 0.449544828,13.0946087 0.449544828,13.3732174 L0.449544828,16.9951304 C0.449544828,17.2180174 0.618124138,17.4409043 0.899089655,17.4409043 L1.12386207,17.4409043 L1.12386207,19.3354435 L0.899089655,19.3354435 C0.674317241,19.3354435 0.393351724,19.5583304 0.393351724,19.8369391 L0.393351724,25.5205565 C0.393351724,25.7434435 0.618124138,26.0220522 0.842896552,26.0220522 L1.12386207,26.0220522 L1.12386207,27.5265391 L0.842896552,27.5265391 C0.618124138,27.5265391 0.393351724,27.7494261 0.393351724,27.972313 L0.393351724,33.6559304 C0.393351724,33.9345391 0.674317241,34.1017043 0.899089655,34.1017043 L1.18005517,34.1017043 L1.18005517,81.0751304 L1.18005517,83.0253913 C1.18005517,84.5856 1.74198621,86.090087 2.75346207,87.2602435 C3.59635862,88.2632348 5.22595862,89.4333913 8.03561379,89.4333913 L8.48515862,89.4333913 L36.3569379,89.4333913 L36.8064828,89.4333913 C39.6161379,89.4333913 41.2457379,88.2632348 42.0886345,87.2602435 C43.0439172,86.1458087 43.6620414,84.5856 43.6620414,83.0253913 L43.6620414,81.0751304 L43.6620414,9.19408696 L43.6620414,7.24382609 C43.6620414,5.68361739 43.0439172,4.17913043 42.0886345,3.00897391 Z M43.1563034,9.19408696 L43.1563034,81.0751304 L43.1563034,83.0253913 C43.1563034,84.4741565 42.5943724,85.8672 41.6952828,86.925913 C40.8523862,87.8731826 39.3913655,88.9318957 36.7502897,88.9318957 L36.3007448,88.9318957 L8.42896552,88.9318957 L7.97942069,88.9318957 C5.33834483,88.9318957 3.82113103,87.8731826 3.03442759,86.925913 C2.07914483,85.8672 1.5734069,84.4741565 1.5734069,83.0253913 L1.5734069,81.0751304 L1.5734069,9.19408696 L1.5734069,7.24382609 C1.5734069,5.79506087 2.13533793,4.40201739 3.03442759,3.34330435 C3.87732414,2.39603478 5.33834483,1.33732174 7.97942069,1.33732174 L8.42896552,1.33732174 L36.3007448,1.33732174 L36.7502897,1.33732174 C39.3913655,1.33732174 40.9085793,2.39603478 41.6952828,3.34330435 C42.6505655,4.40201739 43.1563034,5.79506087 43.1563034,7.24382609 L43.1563034,9.19408696 L43.1563034,9.19408696 Z" id="Shape-Copy-21_2_" fill="#FE5068"></path>
                        <path d="M22.3648552,6.18511304 C22.8705931,6.18511304 23.3201379,5.73933913 23.3201379,5.23784348 C23.3201379,4.73634783 22.8705931,4.29057391 22.3648552,4.29057391 C21.8591172,4.29057391 21.4095724,4.73634783 21.4095724,5.23784348 C21.4657655,5.79506087 21.8591172,6.18511304 22.3648552,6.18511304 Z M22.3648552,4.68062609 C22.7020138,4.68062609 22.9829793,4.95923478 22.9829793,5.29356522 C22.9829793,5.62789565 22.7020138,5.90650435 22.3648552,5.90650435 C22.0276966,5.90650435 21.746731,5.62789565 21.746731,5.29356522 C21.746731,4.95923478 22.0276966,4.68062609 22.3648552,4.68062609 Z" id="Shape-Copy-22_2_" fill="#FE5068"></path>
                        <ellipse id="Oval-Copy-8_2_" fill="#FE5068" cx="22.1962759" cy="5.46073043" rx="1" ry="1"></ellipse>
                        <path d="M19.2180414,9.52841739 L25.2868966,9.52841739 C25.7364414,9.52841739 26.1297931,9.13836522 26.1297931,8.6925913 C26.1297931,8.24681739 25.7364414,7.85676522 25.2868966,7.85676522 L19.2180414,7.85676522 C18.7684966,7.85676522 18.3751448,8.24681739 18.3751448,8.6925913 C18.3189517,9.13836522 18.7123034,9.52841739 19.2180414,9.52841739 Z M19.2180414,8.24681739 L25.2868966,8.24681739 C25.511669,8.24681739 25.7364414,8.41398261 25.7364414,8.6925913 C25.7364414,8.9712 25.5678621,9.13836522 25.2868966,9.13836522 L19.2180414,9.13836522 C18.993269,9.13836522 18.7684966,8.9712 18.7684966,8.6925913 C18.7684966,8.41398261 18.9370759,8.24681739 19.2180414,8.24681739 Z" id="Shape-Copy-23_2_" fill="#FE5068"></path>
                        <path d="M22.252469,78.9577043 C20.117131,78.9577043 18.3751448,80.6850783 18.3751448,82.8025043 C18.3751448,84.9199304 20.117131,86.6473043 22.252469,86.6473043 C24.3878069,86.6473043 26.1297931,84.9199304 26.1297931,82.8025043 C26.1297931,80.6850783 24.3878069,78.9577043 22.252469,78.9577043 Z M22.252469,86.2572522 C20.3419034,86.2572522 18.7684966,84.6970435 18.7684966,82.8025043 C18.7684966,80.9079652 20.3419034,79.3477565 22.252469,79.3477565 C24.1630345,79.3477565 25.7364414,80.9079652 25.7364414,82.8025043 C25.6802483,84.7527652 24.1630345,86.2572522 22.252469,86.2572522 Z" id="Shape-Copy-24_2_" fill="#FE5068"></path>
                        <path d="M22.9829793,81.2980174 L21.4095724,81.2980174 C21.0162207,81.2980174 20.6790621,81.6323478 20.6790621,82.0224 L20.6790621,83.5826087 C20.6790621,83.9726609 21.0162207,84.3069913 21.4095724,84.3069913 L22.9829793,84.3069913 C23.376331,84.3069913 23.7134897,83.9726609 23.7134897,83.5826087 L23.7134897,82.0224 C23.7134897,81.6323478 23.376331,81.2980174 22.9829793,81.2980174 Z M23.2639448,83.5826087 C23.2639448,83.7497739 23.1515586,83.8612174 22.9829793,83.8612174 L21.4095724,83.8612174 C21.2409931,83.8612174 21.1286069,83.7497739 21.1286069,83.5826087 L21.1286069,82.0224 C21.1286069,81.8552348 21.2409931,81.7437913 21.4095724,81.7437913 L22.9829793,81.7437913 C23.1515586,81.7437913 23.2639448,81.8552348 23.2639448,82.0224 L23.2639448,83.5826087 Z" id="Shape-Copy-25_2_" fill="#FE5068"></path>
                    </g>
                    <rect id="Rectangle-path" fill="#FE6757" fill-rule="nonzero" opacity="0.25" x="4.55164138" y="13.6518261" width="35.7388138" height="63.021287"></rect>
                    <polygon id="Shape" fill="#FFFFFF" fill-rule="nonzero" points="21.6343448 14.7662609 21.6343448 19.001113 16.4645793 19.001113 14.3854345 19.001113 16.5207724 20.282713 16.5207724 42.3485217 11.6319724 42.3485217 11.6319724 18.9453913 6.4622069 18.9453913 6.4622069 14.7105391 21.6343448 14.7105391"></polygon>
                    <path d="M28.9394483,31.9285565 L28.9394483,42.2928 L24.0506483,42.2928 L24.0506483,14.7105391 L32.2548414,14.7105391 C34.4463724,14.7105391 36.1321655,15.2677565 37.3684138,16.3264696 C38.548469,17.3851826 39.1665931,18.8896696 39.1665931,20.8399304 L39.1665931,25.5205565 C39.1665931,28.6409739 38.042731,30.5912348 35.7388138,31.3713391 L34.6149517,31.7056696 L36.2445517,32.7086609 L40.0656828,42.2370783 L34.7273379,42.2370783 L30.8500138,31.8728348 L28.9394483,31.8728348 L28.9394483,31.9285565 Z M28.9394483,18.8896696 L28.9394483,28.0280348 L31.8052966,28.0280348 C32.7043862,28.0280348 33.3225103,27.8608696 33.7158621,27.4708174 C34.1092138,27.0807652 34.2777931,26.4678261 34.2777931,25.5762783 L34.2777931,21.2857043 C34.2777931,19.7254957 33.4348966,18.9453913 31.7491034,18.9453913 L28.9394483,18.9453913 L28.9394483,18.8896696 Z" id="Shape" fill="#FFFFFF" fill-rule="nonzero"></path>
                    <polygon id="Shape" fill="#FFFFFF" fill-rule="nonzero" points="11.5757793 48.1435826 16.4645793 48.1435826 16.4645793 75.7258435 11.5757793 75.7258435"></polygon>
                    <path d="M32.7605793,48.1435826 L37.5931862,48.1435826 L37.5931862,75.7258435 L32.7043862,75.7258435 C28.7146759,65.6402087 26.4669517,59.7894261 25.9050207,58.1734957 C25.3430897,56.5018435 25.005931,55.6102957 24.9497379,55.4431304 C24.9497379,55.4988522 25.005931,56.0003478 25.1745103,56.9476174 C25.511669,59.3993739 25.6802483,62.4083478 25.6802483,65.9745391 L25.6802483,75.7258435 L20.9038345,75.7258435 L20.9038345,48.1435826 L25.9050207,48.1435826 C29.3328,56.7804522 31.3557517,61.8511304 31.8614897,63.3556174 C32.4234207,64.8601043 32.8167724,66.0859826 33.0415448,66.866087 C33.3225103,67.701913 33.4348966,68.147687 33.4910897,68.3148522 C33.4910897,68.2034087 33.4348966,67.701913 33.2663172,66.8103652 C32.9291586,64.1357217 32.7605793,61.0710261 32.7605793,57.672 L32.7605793,48.1435826 L32.7605793,48.1435826 Z" id="Shape" fill="#FFFFFF" fill-rule="nonzero"></path>
                    <ellipse id="Oval" fill="#F78D8B" fill-rule="nonzero" opacity="0.5" cx="33.0415448" cy="66.3645913" rx="3.09062069" ry="3.06469565"></ellipse>
                    <ellipse id="Oval" fill="#F78D8B" fill-rule="nonzero" opacity="0.5" cx="25.4554759" cy="57.3376696" rx="3.09062069" ry="3.06469565"></ellipse>
                    <ellipse id="Oval" fill="#F78D8B" fill-rule="nonzero" opacity="0.5" cx="36.5817103" cy="32.0957217" rx="3.09062069" ry="3.06469565"></ellipse>
                    <ellipse id="Oval" fill="#F78D8B" fill-rule="nonzero" opacity="0.5" cx="16.4645793" cy="20.1155478" rx="3.09062069" ry="3.06469565"></ellipse>
                    <rect id="Rectangle-path" x="0.337158621" y="15.0448696" width="48.5508414" height="57.7834435"></rect>
                    <rect id="Rectangle-path" fill="#FE6757" fill-rule="nonzero" opacity="0.1" x="4.55164138" y="13.6518261" width="35.7388138" height="63.2441739"></rect>
                    <rect id="Rectangle-path" stroke="#FE5068" stroke-width="0.5" opacity="0.3" x="4.55164138" y="13.6518261" width="35.7388138" height="63.021287"></rect>
                </g>
            </g>
        </g>
    </g>
</svg>