<?xml version="1.0" encoding="UTF-8"?>
<svg width="1280px" height="345px" viewBox="0 0 1280 345" version="1.1" xmlns="http://www.w3.org/2000/svg" xmlns:xlink="http://www.w3.org/1999/xlink">
    <!-- Generator: Sketch 47.1 (45422) - http://www.bohemiancoding.com/sketch -->
    <title>Tech Icons</title>
    <desc>Created with Sketch.</desc>
    <defs></defs>
    <g id="Final---Version-1" stroke="none" stroke-width="1" fill="none" fill-rule="evenodd" opacity="0.4">
        <g id="Tech-Icons">
            <polygon id="Shape-Copy" stroke="#1E1C17" stroke-width="1.8" fill-rule="nonzero" points="161.125604 176.300448 169.792271 171.636771 169.917874 163.242152 174.439614 161.026906 178.333333 163.70852 178.458937 171.636771 187 177 187 158.2287 174.062802 151 161 158.811659"></polygon>
            <text id="Node-JS-Copy" fill="#000000" font-family="Helvetica" font-size="10.8" font-weight="normal">
                <tspan x="154.788574" y="191">Node JS</tspan>
            </text>
            <g id="Group-Copy-4" transform="translate(297.000000, 148.000000)" stroke-width="1.8">
                <polygon id="Shape" stroke="#070707" fill-rule="nonzero" points="0.6336 5.84888889 14.31936 0.746666667 29.1456 5.72444444 26.73792 24.2666667 14.31936 30.9866667 2.78784 24.3911111"></polygon>
                <g id="Group" transform="translate(7.336000, 7.466667)" stroke="#1E1C17">
                    <polyline id="Shape" points="0.14048 16.3022222 2.8016 10.08 6.98336 0.373333333 11.79872 10.08 14.45984 15.5555556"></polyline>
                    <path d="M11.54528,9.58222222 L3.05504,9.58222222" id="Shape"></path>
                </g>
            </g>
            <text id="Angular-JS-Copy" fill="#000000" font-family="Helvetica" font-size="10.8" font-weight="normal">
                <tspan x="285.585352" y="192">Angular JS</tspan>
            </text>
            <g id="Group-Copy-5" transform="translate(425.000000, 153.000000)" stroke-width="1.8" stroke="#000000">
                <polygon id="Shape" points="6.48672087 0.346320346 15.5681301 14.7763348 24.0598374 0.346320346 29.9568564 0.346320346 14.9784282 24.3578644 0.471761518 0.346320346"></polygon>
                <polyline id="Shape" points="24.0598374 0.346320346 18.8704607 0.346320346 15.2143089 5.65656566 11.5581572 0.346320346 6.48672087 0.346320346"></polyline>
            </g>
            <text id="Vue-JS-Copy" fill="#000000" font-family="Helvetica" font-size="10.8" font-weight="normal">
                <tspan x="423.2875" y="193">Vue JS</tspan>
            </text>
            <g id="Group-Copy-6" transform="translate(554.000000, 152.000000)">
                <rect id="Rectangle-path" fill="#000000" fill-rule="nonzero" x="13.1640437" y="11.7462451" width="3.14004712" height="3.10930016"></rect>
                <polygon id="Shape" stroke="#000000" stroke-width="1.8" points="8.09165988 13.012997 11.4732491 8.17630784 17.7533433 8.17630784 21.1349325 13.5887933 17.7533433 18.655801 11.4732491 18.655801"></polygon>
                <polyline id="Shape" stroke="#000000" stroke-width="1.8" points="11.4732491 8.17630784 14.4925252 4.60637061 17.7533433 8.17630784"></polyline>
                <polyline id="Shape" stroke="#000000" stroke-width="1.8" points="11.5940201 18.655801 14.4925252 22.2257382 17.8741144 18.655801"></polyline>
                <polyline id="Shape" stroke="#000000" stroke-width="1.8" points="7.97088884 13.2433155 6.1593232 17.5042083 11.5940201 18.5406417"></polyline>
                <polyline id="Shape" stroke="#000000" stroke-width="1.8" points="8.33320197 13.3584748 6.40086528 9.21274122 11.231707 8.17630784"></polyline>
                <polyline id="Shape" stroke="#000000" stroke-width="1.8" points="21.3764746 13.3584748 23.3088113 17.5042083 17.7533433 18.5406417"></polyline>
                <polyline id="Shape" stroke="#000000" stroke-width="1.8" points="21.1349325 13.473634 22.9464982 9.21274122 18.1156565 8.17630784"></polyline>
                <polyline id="Shape" stroke="#000000" stroke-width="1.8" points="14.4925252 4.60637061 18.4779696 1.72738898 21.3764746 1.26675192 23.6711244 2.9941409 24.0334376 5.642804 22.9464982 9.21274122"></polyline>
                <polyline id="Shape" stroke="#000000" stroke-width="1.8" points="14.7340673 22.571216 18.7195117 25.4501976 21.6180167 25.9108347 23.9126665 24.1834457 24.5165217 21.5347826 23.5503534 17.9648454"></polyline>
                <polyline id="Shape" stroke="#000000" stroke-width="1.8" points="14.7340673 4.26089282 10.6278518 1.38191118 7.72934676 0.921274122 5.55546798 2.6486631 5.19315485 5.2973262 6.1593232 8.98242269"></polyline>
                <polyline id="Shape" stroke="#000000" stroke-width="1.8" points="14.8548383 22.3408975 10.8693939 25.2198791 7.97088884 25.6805162 5.67623902 23.9531272 4.95161277 21.3044641 6.03855215 17.6193676"></polyline>
                <polyline id="Shape" stroke="#000000" stroke-width="1.8" points="22.8257271 8.6369449 27.4150268 10.5946524 29.2265924 12.7826784 28.8642793 15.4313415 26.6904005 17.0435713 22.7049561 17.9648454"></polyline>
                <polyline id="Shape" stroke="#000000" stroke-width="1.8" points="6.88394945 18.1951639 2.29464982 16.2374564 0.483084172 14.0494304 0.845397301 11.285608 3.01927608 9.44305975 6.88394945 8.52178563"></polyline>
            </g>
            <text id="React-JS-Copy" fill="#000000" font-family="Helvetica" font-size="10.8" font-weight="normal">
                <tspan x="548" y="193">React JS</tspan>
            </text>
            <g id="Group-Copy-2" transform="translate(696.000000, 151.000000)" stroke-width="1.8" stroke="#000000">
                <polygon id="Shape" points="3.55882353 23.6363636 7.54901961 23.6363636 11 17.2481572 11 8.41113841 5.5 0 0 7.87878788 0 17.4610975"></polygon>
                <path d="M5.01111111,26 L4.88888889,0" id="Shape"></path>
            </g>
            <text id="Mongo-DB" fill="#000000" font-family="Helvetica" font-size="10.8" font-weight="normal">
                <tspan x="675.487109" y="193">Mongo DB</tspan>
            </text>
            <g id="Group-Copy-9" transform="translate(804.000000, 141.000000)">
                <polyline id="Shape" stroke="#000000" stroke-width="1.8" points="0.764367816 30.1584046 0.764367816 19.9475783 3.21034483 19.9475783 7.03218391 29.2831909 9.17241379 29.2831909 13.4528736 19.9475783 15.2873563 19.9475783 15.2873563 30.0125356"></polyline>
                <polyline id="Shape" stroke="#000000" stroke-width="1.8" points="20.637931 21.5521368 20.637931 27.0951567 22.1666667 28.4079772 30.7275862 28.4079772"></polyline>
                <polyline id="Shape" stroke="#000000" stroke-width="1.8" points="30.4218391 21.4062678 30.4218391 30.1584046 28.7402299 31.617094 19.5678161 31.617094"></polyline>
                <polyline id="Shape" stroke="#000000" stroke-width="1.8" points="43.8747126 19.0723647 35.7724138 19.0723647 34.0908046 19.9475783 34.0908046 23.448433 36.2310345 24.6153846 41.7344828 24.6153846 43.8747126 25.4905983 43.8747126 27.9703704 41.7344828 28.6997151 33.3264368 28.6997151"></polyline>
                <polygon id="Shape" stroke="#000000" stroke-width="1.8" points="47.3908046 19.8017094 49.0724138 18.4888889 54.2701149 18.4888889 55.9517241 19.8017094 55.9517241 27.2410256 53.9643678 28.845584 49.2252874 28.845584 47.3908046 27.8245014"></polygon>
                <path d="M51.6712644,25.4905983 L57.1747126,30.1584046" id="Shape" stroke="#000000" stroke-width="1.8"></path>
                <path d="M49.8034134,0.711111111 C51.01031,1.18518519 51.9758272,2.01481481 53.4241031,2.25185185 C55.8378962,2.48888889 57.5275514,4.14814815 59.0965169,5.80740741 C60.0620341,6.87407407 60.9068617,8.17777778 61.51031,9.48148148 C61.9930686,10.5481481 62.4758272,11.6148148 63.0792755,12.6814815 C63.3206548,13.037037 63.5620341,13.2740741 63.9241031,13.3925926 C65.6137583,13.9851852 67.0620341,15.0518519 68.3896203,16.3555556 C68.51031,16.4740741 68.6309997,16.5925926 68.6309997,16.7111111 C67.6654824,17.1851852 66.5792755,17.0666667 65.4930686,17.5407407 C66.4585859,18.6074074 68.0275514,19.0814815 68.7516893,20.3851852 C67.1827238,19.437037 65.1309997,19.0814815 64.2861721,17.0666667 C65.2516893,16.4740741 66.4585859,16.4740741 67.6654824,16.237037 C66.3378962,15.2888889 65.372379,14.4592593 63.9241031,14.1037037 C62.8378962,13.8666667 62.2344479,13.1555556 61.872379,12.3259259 C61.3896203,11.1407407 60.9068617,9.95555556 60.3034134,8.77037037 C58.9758272,6.16296296 57.0447928,4.26666667 54.3896203,2.96296296 C54.148241,2.84444444 54.0275514,2.72592593 53.9068617,2.72592593 C52.4585859,2.72592593 51.1309997,1.8962963 49.8034134,1.3037037 C49.5620341,1.06666667 49.1999652,1.06666667 48.8378962,1.18518519 C48.5965169,1.65925926 48.8378962,2.01481481 49.0792755,2.37037037 C50.0447928,3.43703704 50.648241,4.74074074 51.01031,6.04444444 C51.2516893,6.63703704 51.372379,7.11111111 51.8551376,7.46666667 C52.4585859,8.05925926 52.4585859,8.53333333 52.0965169,9.12592593 C51.4930686,10.5481481 51.4930686,11.9703704 52.0965169,13.3925926 C52.2172065,13.7481481 52.3378962,14.1037037 52.8206548,14.3407407 C53.0620341,13.2740741 52.9413445,12.0888889 54.0275514,11.2592593 C54.6309997,12.9185185 55.4758272,14.2222222 56.3206548,15.6444444 C55.3551376,15.0518519 54.51031,14.1037037 54.148241,12.9185185 C53.9068617,13.2740741 53.9068617,13.7481481 53.9068617,13.9851852 C53.7861721,14.4592593 53.6654824,14.8148148 53.3034134,14.9333333 C52.9413445,15.0518519 52.4585859,14.6962963 52.2172065,14.4592593 C51.4930686,13.6296296 51.2516893,12.6814815 51.2516893,11.6148148 C51.1309997,10.4296296 51.4930686,9.24444444 51.8551376,8.05925926 C51.1309997,7.22962963 50.648241,6.4 50.4068617,5.33333333 C50.1654824,4.38518519 49.5620341,3.43703704 48.9585859,2.60740741 C48.7172065,2.37037037 48.7172065,2.13333333 48.4758272,2.01481481 C47.9930686,1.18518519 48.4758272,0.711111111 48.9585859,0 C49.0792755,0.711111111 49.4413445,0.711111111 49.8034134,0.711111111 Z" id="Shape_92_" fill="#1E1C17" fill-rule="nonzero"></path>
                <polyline id="Shape" stroke="#000000" stroke-width="1.8" points="60.2321839 17.4678063 60.2321839 27.3868946 62.0666667 28.845584 68.7931034 28.845584"></polyline>
            </g>
            <text id="MySQL-Copy" fill="#000000" font-family="Helvetica" font-size="10.8" font-weight="normal">
                <tspan x="820.496484" y="193">MySQL</tspan>
            </text>
            <g id="Group-2" transform="translate(960.000000, 153.000000)">
                <polygon id="Shape" fill="#1E1C17" fill-rule="nonzero" points="0.894308943 14 0.894308943 16.7272727 13.8308943 22.1818182 16.1528455 22.1818182 29.6422764 16.7272727 29.6422764 14 16.0422764 19.3454545 13.7203252 19.3454545"></polygon>
                <polygon id="Shape" fill="#1E1C17" fill-rule="nonzero" points="0.894308943 10.1818182 0.894308943 12.9090909 13.8308943 18.3636364 16.1528455 18.3636364 29.6422764 12.9090909 29.6422764 10.1818182 16.0422764 15.5272727 13.7203252 15.5272727"></polygon>
                <polygon id="Shape" fill="#1E1C17" fill-rule="nonzero" points="0.894308943 6.14545455 0.894308943 8.76363636 13.8308943 14.2181818 16.1528455 14.2181818 29.6422764 8.76363636 29.6422764 6.03636364 16.0422764 11.4909091 13.7203252 11.3818182"></polygon>
                <polygon id="Shape" stroke="#1E1C17" stroke-width="1.8" fill-rule="nonzero" points="3.07317073 4.52976142 13.780863 0.09356232 15.90394 0.09356232 27.0731707 4.42893871 15.7193246 9.47007404 13.780863 9.36925134"></polygon>
                <g id="Group-3" transform="translate(8.400000, 1.400000)" fill="#1E1C17">
                    <polygon id="Shape_95_-path" points="6.10169492 6 3.6 4.43076923 7.2 3.6"></polygon>
                    <polygon id="Shape_95_-path" points="13.2 3.56129032 10.9297297 4.64516129 10.6702703 4.8 8.4 3.63870968 10.9297297 2.4"></polygon>
                    <polygon id="Shape_95_-path" points="5.62622951 0 6.68852459 0.509090909 7.69180328 0.0727272727 7.39672131 0.872727273 8.4 1.38181818 7.10163934 1.52727273 6.80655738 2.4 6.33442623 1.45454545 4.8 1.30909091 5.92131148 0.8"></polygon>
                    <path d="M1.8,2.4 C2.75625,2.4 3.6,2.7 3.6,3 C3.6,3.3 2.8125,3.6 1.8,3.6 C0.7875,3.6 0,3.3 0,3 C0,2.6 0.7875,2.4 1.8,2.4 Z" id="Shape_95_-path"></path>
                </g>
            </g>
            <text id="Reddis-Copy" fill="#000000" font-family="Helvetica" font-size="10.8" font-weight="normal">
                <tspan x="958.690918" y="193">Reddis</tspan>
            </text>
            <g id="Group-Copy-7" transform="translate(1092.000000, 151.000000)" fill-rule="nonzero" fill="#000000">
                <path d="M18.3056604,3.86792453 L15.5937107,3.49056604 L13.2691824,5.66037736 L11.4289308,2.26415094 L9.00754717,2.26415094 L7.65157233,4.71698113 L5.03647799,0 L2.71194969,0 L0.290566038,18.1132075 L0,18.6792453 L0,20.0943396 L0.581132075,20.5660377 L8.52327044,25 L10.7509434,25 L20.5333333,19.9056604 L20.8238994,17.9245283 L18.3056604,3.86792453 Z M9.87924528,3.67924528 L10.5572327,3.67924528 L12.1069182,6.50943396 L4.06792453,14.245283 L7.94213836,7.26415094 L8.52327044,6.22641509 L8.52327044,6.22641509 L9.87924528,3.67924528 Z M3.97106918,1.50943396 L4.16477987,1.50943396 L6.87672956,6.32075472 L2.22767296,14.8113208 L3.97106918,1.50943396 Z M19.0805031,19.0566038 L10.2666667,23.5849057 L8.81383648,23.5849057 L1.45283019,19.4339623 L1.45283019,18.9622642 L1.54968553,18.7735849 L16.0779874,4.90566038 L17.0465409,5.09433962 L19.2742138,18.0188679 L19.0805031,19.0566038 Z" id="Shape"></path>
            </g>
            <text id="Firebase-Copy" fill="#000000" font-family="Helvetica" font-size="10.8" font-weight="normal">
                <tspan x="1082.99062" y="193">Firebase</tspan>
            </text>
            <g id="Group-Copy-11" transform="translate(161.000000, 232.000000)" stroke-width="1.8" stroke="#1E1C17">
                <polyline id="Shape" points="15.4837219 20.2435827 20.2287335 20.2435827 25.5980886 20.2435827 28.7198068 17.51132 28.7198068 12.2951821 25.9726948 9.19033816 21.1028145 9.19033816 19.978996 9.81130696 19.978996 11.9226009 17.731359 14.6548636 11.9873976 14.6548636 8.86567948 17.8839013 8.86567948 25.9564956 11.7376602 28.5645646 17.731359 28.5645646 19.978996 26.0806894 19.978996 20.616164"></polyline>
                <polyline id="Shape" points="20.2287335 6.45807547 20.2287335 3.47742525 17.2318841 0.869356313 11.2381853 0.869356313 9.11541693 3.22903773 9.11541693 8.69356313"></polyline>
                <polyline id="Shape" points="14.6096408 9.19033816 8.86567948 9.19033816 3.4963243 9.19033816 0.374606175 11.9226009 0.374606175 17.1387387 3.12171813 20.2435827 7.9915984 20.2435827 8.9905482 19.6226139"></polyline>
                <path d="M13.1112161,4.8435566 L13.1112161,6.45807547" id="Shape"></path>
                <path d="M16.4826717,23.8452017 L16.4826717,25.4597206" id="Shape"></path>
            </g>
            <text id="Python-Copy" fill="#000000" font-family="Helvetica" font-size="10.8" font-weight="normal">
                <tspan x="157.688281" y="280">Python</tspan>
            </text>
            <g id="Group-Copy-10" transform="translate(295.000000, 240.000000)" stroke-width="1.8" stroke="#000000">
                <g id="Group-4">
                    <polyline id="Shape" points="0 9.5 1.82716049 5.30882353 7.49135802 1.8627451 18.545679 0 29.1432099 1.76960784 34.8987654 5.21568627 37 9.5"></polyline>
                    <polyline id="Shape" points="0 9.5 1.82716049 13.6504854 7.49135802 17.1553398 18.545679 19 29.1432099 17.1553398 34.8987654 13.7427184 37 9.5"></polyline>
                    <g id="Group" transform="translate(6.967742, 2.375000)">
                        <polyline id="Shape" points="1.19212017 9.0270396 4.92765329 9.0270396 6.70203152 7.72622853 7.07558483 5.867927 6.04831322 3.5450501 1.93922679 3.5450501 1.09873184 8.19080391 0.164848559 12.5578125"></polyline>
                        <polyline id="Shape" points="17.2549126 9.0270396 20.9904457 9.0270396 22.7648239 7.72622853 23.1383772 5.867927 22.204494 3.5450501 18.0954075 3.5450501 17.1615243 8.19080391 16.3210293 12.5578125"></polyline>
                        <path d="M10.811118,0.3859375 L8.94335139,9.77036021" id="Shape"></path>
                        <polyline id="Shape" points="9.970623 3.5450501 14.0797094 3.5450501 15.106981 4.47420086 13.9863211 9.77036021"></polyline>
                    </g>
                </g>
            </g>
            <text id="PHP-Copy" fill="#000000" font-family="Helvetica" font-size="10.8" font-weight="normal">
                <tspan x="302.396777" y="280">PHP</tspan>
            </text>
            <g id="Group-Copy-12" transform="translate(428.000000, 234.000000)">
                <polygon id="Shape" stroke="#1E1C17" stroke-width="1.8" fill-rule="nonzero" points="2.76137191 11.8762114 3.13792262 26.1787455 20.3337386 26.1787455 20.3337386 11.7485102"></polygon>
                <path d="M22.8440767,11.7485102 L22.8440767,24.1355263" id="Shape" stroke="#1E1C17" stroke-width="1.8"></path>
                <path d="M0.25103381,11.7485102 L0.25103381,24.1355263" id="Shape" stroke="#1E1C17" stroke-width="1.8"></path>
                <path d="M7.90756501,27.0726539 L7.90756501,33.4577137" id="Shape" stroke="#1E1C17" stroke-width="1.8"></path>
                <path d="M14.8109948,27.0726539 L14.8109948,33.4577137" id="Shape" stroke="#1E1C17" stroke-width="1.8"></path>
                <polygon id="Shape" stroke="#1E1C17" stroke-width="1.8" points="3.76550715 9.70529101 20.0827048 9.70529101 20.0827048 5.23574909 15.5640962 2.55402395 8.53514954 2.55402395 3.76550715 5.49115149"></polygon>
                <path d="M8.15859882,3.19252994 L5.0206762,0" id="Shape" stroke="#1E1C17" stroke-width="1.8"></path>
                <path d="M15.0620286,3.19252994 L18.1999512,0" id="Shape" stroke="#1E1C17" stroke-width="1.8"></path>
                <rect id="Rectangle-path" fill="#1E1C17" fill-rule="nonzero" x="7.5310143" y="5.1080479" width="1.38068595" height="1.40471317"></rect>
                <rect id="Rectangle-path" fill="#1E1C17" fill-rule="nonzero" x="15.0620286" y="5.1080479" width="1.38068595" height="1.40471317"></rect>
            </g>
            <text id="Android-Copy" fill="#000000" font-family="Helvetica" font-size="10.8" font-weight="normal">
                <tspan x="421.387402" y="280">Android</tspan>
            </text>
            <g id="Group-Copy-13" transform="translate(555.000000, 247.000000)">
                <path d="M1.83157895,3.9 L1.83157895,13.65" id="Shape" stroke="#1E1C17" stroke-width="1.5"></path>
                <polygon id="Shape" stroke="#1E1C17" stroke-width="1.5" points="6.10526316 4.05 6.10526316 10.35 8.7 12.6 13.4315789 12.6 15.8736842 9.9 15.8736842 4.05 13.5842105 1.35 8.54736842 1.35"></polygon>
                <polyline id="Shape" stroke="#1E1C17" stroke-width="1.5" points="28.0842105 4.05 26.1 1.35 20.1473684 1.35 18.4684211 4.05 18.4684211 5.55 20.4526316 6.6 27.1684211 7.8 28.0842105 9.3 26.5578947 12.6 20.3 12.6 19.0789474 9.45"></polyline>
                <rect id="Rectangle-path" fill="#1E1C17" fill-rule="nonzero" x="0.915789474" y="0.3" width="1.67894737" height="1.65"></rect>
            </g>
            <text id="ios-copy" fill="#000000" font-family="Helvetica" font-size="10.8" font-weight="normal">
                <tspan x="562.09707" y="280">ios</tspan>
            </text>
            <g id="Group-Copy-15" transform="translate(687.000000, 234.000000)">
                <polygon id="Shape" stroke="#000000" stroke-width="1.8" points="0.245944499 0.372567568 0.245944499 28.9360811 24.2255332 28.9360811 25.9471447 27.3216216 25.9471447 14.0333784 23.9795887 12.1705405 15.4945035 12.0463514 15.4945035 0.372567568 10.0837245 0.372567568 10.329669 11.797973 5.77969573 11.797973 5.41077899 0.372567568"></polygon>
                <rect id="Rectangle-path" fill="#1E1C17" fill-rule="nonzero" x="16.1093647" y="18.0074324" width="4.54997324" height="4.595"></rect>
            </g>
            <text id="RabbitMQ-Copy" fill="#000000" font-family="Helvetica" font-size="10.8" font-weight="normal">
                <tspan x="676.69209" y="280">RabbitMQ</tspan>
            </text>
            <g id="Group-Copy-14" transform="translate(817.000000, 235.000000)">
                <polygon id="Shape" stroke="#000000" stroke-width="1.8" points="0.0620689655 13.8842105 31.9241379 13.8842105 31.1655172 9.16842105 32.8344828 5.48421053 36.0206897 10.0526316 41.7862069 10.9368421 39.3586207 14.1789474 35.1103448 15.5052632 29.0413793 23.1684211 21.9103448 26.7052632 7.64827586 26.7052632 0.668965517 21.1052632"></polygon>
                <rect id="Rectangle-path" fill="#1E1C17" fill-rule="nonzero" x="2.79310345" y="8.13684211" width="4.09655172" height="3.97894737"></rect>
                <rect id="Rectangle-path" fill="#1E1C17" fill-rule="nonzero" x="22.9724138" y="8.13684211" width="4.09655172" height="3.97894737"></rect>
                <rect id="Rectangle-path" fill="#1E1C17" fill-rule="nonzero" x="8.10344828" y="4.15789474" width="4.09655172" height="7.81052632"></rect>
                <rect id="Rectangle-path" fill="#1E1C17" fill-rule="nonzero" x="13.5655172" y="4.15789474" width="4.09655172" height="7.81052632"></rect>
                <rect id="Rectangle-path" fill="#1E1C17" fill-rule="nonzero" x="18.8758621" y="0.178947368" width="4.09655172" height="11.7894737"></rect>
            </g>
            <text id="Docker-Copy" fill="#000000" font-family="Helvetica" font-size="10.8" font-weight="normal">
                <tspan x="820.395605" y="280">Docker</tspan>
            </text>
            <text id="elasticsearch" fill="#000000" font-family="Helvetica" font-size="10.8" font-weight="normal">
                <tspan x="1073.48594" y="280">elasticsearch</tspan>
            </text>
            <polygon id="Shape" stroke="#000000" stroke-width="1.8" points="965 244.251497 965 255.065868 966.159794 256.449102 971.829897 259.467066 971.829897 265 989.097938 256.071856 990 254.562874 990 244 978.78866 250.538922 976.340206 250.538922"></polygon>
            <polygon id="Shape" stroke="#000000" stroke-width="1.8" points="965 241.68932 965 240.679612 976.578947 235 978.684211 235 990 240.679612 990 241.815534 978.947368 248 976.710526 248"></polygon>
            <text id="api.ai" fill="#000000" font-family="Helvetica" font-size="10.8" font-weight="normal">
                <tspan x="964" y="280">api.ai</tspan>
            </text>
            <g id="Group" transform="translate(1090.000000, 236.000000)" fill-rule="nonzero" fill="#000000">
                <path d="M20.2090909,9.18333333 C21.7454545,9.18333333 24.3454545,8.82083333 25.4090909,6.40416667 L25.6454545,5.92083333 L25.2909091,5.4375 C25.0545455,5.19583333 19.8545455,-0.966666667 11.4636364,1.20833333 C10.7545455,1.32916667 5.31818182,2.175 2.48181818,7.85416667 L1.77272727,9.18333333 L19.1454545,9.18333333 C19.3818182,9.18333333 19.7363636,9.18333333 20.2090909,9.18333333 Z M11.8181818,3.02083333 L11.9363636,3.02083333 C18.0818182,1.45 22.2181818,4.95416667 23.5181818,6.28333333 C22.3363636,7.85416667 19.3818182,7.49166667 19.3818182,7.49166667 L12.8818182,7.49166667 C12.0545455,5.4375 10.9909091,4.22916667 10.0454545,3.50416667 C11.1090909,3.02083333 11.7,3.02083333 11.8181818,3.02083333 Z M8.15454545,4.35 C8.50909091,4.47083333 9.92727273,5.19583333 10.9909091,7.37083333 L4.84545455,7.37083333 C5.90909091,5.92083333 7.09090909,4.95416667 8.15454545,4.35 Z" id="Shape"></path>
                <path d="M25.6454545,22.8375 C24.2272727,19.575 20.0909091,19.9375 19.5,20.0583333 L2.12727273,20.0583333 L2.83636364,21.3875 C5.67272727,27.0666667 10.9909091,27.7916667 11.8181818,27.9125 C13.1181818,28.275 14.3,28.3958333 15.3636364,28.3958333 C21.6272727,28.3958333 25.4090909,24.0458333 25.6454545,23.8041667 L26,23.3208333 L25.6454545,22.8375 Z M5.2,21.8708333 L11.3454545,21.8708333 C10.1636364,24.2875 8.50909091,24.7708333 8.39090909,24.7708333 C7.20909091,24.2875 6.14545455,23.3208333 5.2,21.8708333 Z M12.1727273,26.2208333 L12.0545455,26.2208333 C12.0545455,26.2208333 11.3454545,26.1 10.4,25.8583333 C11.3454545,25.1333333 12.4090909,24.0458333 13.2363636,21.9916667 L19.6181818,21.9916667 L19.7363636,21.9916667 C19.7363636,21.9916667 22.5727273,21.5083333 23.7545455,23.2 C22.4545455,24.4083333 18.2,27.7916667 12.1727273,26.2208333 Z" id="Shape"></path>
                <path d="M19.5,19.0916667 L19.5,19.0916667 C20.8,18.9708333 23.0454545,17.8833333 23.0454545,14.8625 C23.0454545,11.9625 21.0363636,10.7541667 19.9727273,10.5125 L1.3,10.3916667 L1.06363636,10.9958333 C1.06363636,11.1166667 8.54871729e-15,14.8625 1.41818182,18.4875 L1.65454545,19.0916667 L19.5,19.0916667 L19.5,19.0916667 Z M2.83636364,12.2041667 L12.0545455,12.325 C12.2909091,13.2916667 12.5272727,15.1041667 12.0545455,17.4 L3.07272727,17.4 C2.48181818,15.225 2.6,13.1708333 2.83636364,12.2041667 Z M13.8272727,17.2791667 C14.1818182,15.225 14.0636364,13.4125 13.8272727,12.2041667 L19.7363636,12.2041667 C20.0909091,12.325 21.2727273,12.8083333 21.2727273,14.7416667 C21.2727273,16.675 19.7363636,17.1583333 19.3818182,17.1583333 L13.8272727,17.2791667 Z" id="Shape"></path>
            </g>
        </g>
    </g>
</svg>