<?xml version="1.0" encoding="UTF-8"?>
<svg width="32px" height="32px" viewBox="0 0 32 32" version="1.1" xmlns="http://www.w3.org/2000/svg" xmlns:xlink="http://www.w3.org/1999/xlink">
    <!-- Generator: Sketch 47.1 (45422) - http://www.bohemiancoding.com/sketch -->
    <title>Twitter</title>
    <desc>Created with Sketch.</desc>
    <defs></defs>
    <g id="Mobile---Version-1" stroke="none" stroke-width="1" fill="none" fill-rule="evenodd">
        <g id="Twitter" fill-rule="nonzero">
            <g id="Twit">
                <path d="M15.9144385,0.170992366 C24.6661574,0.122137405 31.8777693,7.35267176 31.7555386,16.2442748 C31.6333079,24.8671756 24.4705882,31.9755725 15.6210848,31.8290076 C7.11382735,31.6824427 0.0733384263,24.7206107 0.0733384263,15.9755725 C0.0733384263,7.23053435 7.13827349,0.170992366 15.9144385,0.170992366 Z M19.0679908,8.0610687 C17.0634072,9.42900763 16.2566845,11.578626 15.4010695,13.6305344 C14.6921314,13.1175573 14.0565317,12.5557252 13.2987013,12.140458 C12.2719633,11.578626 11.1718869,11.0900763 10.0718105,10.6015267 C9.21619557,10.2351145 8.33613445,9.91755725 7.40718105,9.52671756 C7.4316272,10.9679389 8.26279603,11.7984733 9.33842628,12.4824427 C8.84950344,12.5557252 8.43391902,12.6290076 7.99388846,12.7022901 C8.26279603,14.0946565 9.26508785,14.680916 10.5607334,15.0717557 C9.94957983,15.2183206 9.41176471,15.2916031 9.04507257,15.7557252 C9.65622613,16.8305344 10.6340718,17.1969466 11.8563789,17.1969466 C11.1718869,17.6610687 10.9274255,17.978626 11.0496562,18.3206107 C11.2941176,19.1022901 11.9786096,19.1755725 12.6875477,19.2244275 C11.8319328,20.0793893 10.8785332,20.6412214 9.7540107,20.9099237 C7.79831933,21.3984733 5.98930481,21.0076336 4.30252101,19.8839695 C4.35141329,20.0061069 4.42475172,20.1038168 4.49809015,20.2015267 C5.25592055,21.080916 6.13598167,21.8381679 7.11382735,22.4244275 C10.1940413,24.2564885 13.4942704,24.5740458 16.9167303,23.670229 C19.6302521,22.9374046 21.9526356,21.5694656 23.5416348,19.2 C24.1283422,18.3450382 24.5194805,17.3679389 25.0084034,16.3664122 C25.8884645,16.3419847 26.8174179,16.1465649 27.6485867,15.340458 C27.1352177,15.340458 26.7440794,15.3648855 26.328495,15.340458 C25.9373568,15.2916031 25.5462185,15.1938931 25.1306341,15.1206107 C26.1084798,14.8763359 26.9640947,14.5343511 27.526356,13.5816794 C27.3307869,13.6305344 27.2330023,13.6793893 27.1107716,13.7038168 C26.4751719,13.7770992 25.8395722,13.8748092 25.2284186,13.9236641 C24.9350649,13.9480916 24.7639419,13.8015267 24.6661574,13.459542 C24.250573,11.6274809 22.5882353,9.33129771 19.6791444,9.28244275 C19.776929,9.23358779 19.8258212,9.20916031 19.8747135,9.18473282 C20.3147441,9.03816794 20.7792208,8.91603053 21.2192513,8.74503817 C21.3659282,8.67175573 21.4637128,8.47633588 21.5859435,8.32977099 C21.4148205,8.28091603 21.2192513,8.15877863 21.0481283,8.18320611 C20.7058824,8.23206107 20.3636364,8.32977099 19.9969442,8.42748092 C20.1680672,8.23206107 20.3391902,8.03664122 20.4858671,7.86564885 C20.4614209,7.81679389 20.4369748,7.76793893 20.3880825,7.71908397 C19.8747135,7.9389313 19.3368984,8.15877863 18.8235294,8.40305344 C18.9946524,8.30534351 19.0435447,8.18320611 19.0679908,8.0610687 Z" id="Shape" fill="#FFFFFF"></path>
                <path d="M19.0679908,8.0610687 C19.0190985,8.18320611 18.9946524,8.28091603 18.9457601,8.40305344 C19.4591291,8.18320611 19.9969442,7.96335878 20.5103132,7.71908397 C20.5347594,7.76793893 20.5592055,7.81679389 20.6080978,7.86564885 C20.4369748,8.03664122 20.2902979,8.23206107 20.1191749,8.42748092 C20.4858671,8.32977099 20.8036669,8.23206107 21.1703591,8.18320611 C21.341482,8.15877863 21.5370512,8.28091603 21.7081742,8.32977099 C21.5859435,8.47633588 21.4881589,8.69618321 21.341482,8.74503817 C20.9014515,8.91603053 20.4369748,9.03816794 19.9969442,9.18473282 C19.9480519,9.20916031 19.8991597,9.23358779 19.8013751,9.28244275 C22.710466,9.33129771 24.3728037,11.6274809 24.7883881,13.459542 C24.8617265,13.8015267 25.0328495,13.9480916 25.3506494,13.9236641 C25.986249,13.8748092 26.6218487,13.7770992 27.2330023,13.7038168 C27.355233,13.6793893 27.4774637,13.6305344 27.6485867,13.5816794 C27.0863254,14.5587786 26.2307105,14.8763359 25.2528648,15.1206107 C25.6440031,15.1938931 26.0351413,15.3160305 26.4507257,15.340458 C26.841864,15.389313 27.2574484,15.340458 27.7708174,15.340458 C26.9152024,16.1465649 25.986249,16.3664122 25.1306341,16.3664122 C24.6172651,17.3679389 24.2261268,18.3450382 23.6638655,19.2 C22.0504202,21.5450382 19.7524828,22.9374046 17.038961,23.670229 C13.6165011,24.5740458 10.316272,24.2564885 7.23605806,22.4244275 C6.23376623,21.8381679 5.35370512,21.080916 4.62032086,20.2015267 C4.54698243,20.1038168 4.473644,20.0061069 4.42475172,19.8839695 C6.11153552,21.0076336 7.8961039,21.3740458 9.87624141,20.9099237 C11.0007639,20.6412214 11.9541635,20.0793893 12.8097785,19.2244275 C12.0763942,19.151145 11.3919022,19.1022901 11.1718869,18.3206107 C11.0741024,17.9541985 11.2941176,17.6610687 11.9786096,17.1969466 C10.7563025,17.1969466 9.77845684,16.8305344 9.16730328,15.7557252 C9.53399542,15.2916031 10.0718105,15.1938931 10.6829641,15.0717557 C9.38731856,14.680916 8.38502674,14.119084 8.11611917,12.7022901 C8.55614973,12.6290076 8.97173415,12.5557252 9.46065699,12.4824427 C8.38502674,11.7740458 7.52941176,10.9679389 7.52941176,9.52671756 C8.45836516,9.89312977 9.33842628,10.210687 10.1940413,10.6015267 C11.2696715,11.0900763 12.3697479,11.5541985 13.420932,12.140458 C14.1543163,12.5557252 14.8143621,13.1175573 15.5233002,13.6305344 C16.2566845,11.578626 17.0634072,9.42900763 19.0679908,8.0610687 Z" id="Shape" fill-opacity="0" fill="#1E1C17"></path>
            </g>
        </g>
    </g>
</svg>