<?xml version="1.0" encoding="UTF-8"?>
<svg width="31px" height="31px" viewBox="0 0 31 31" version="1.1" xmlns="http://www.w3.org/2000/svg" xmlns:xlink="http://www.w3.org/1999/xlink">
    <!-- Generator: Sketch 47.1 (45422) - http://www.bohemiancoding.com/sketch -->
    <title>Twitter</title>
    <desc>Created with Sketch.</desc>
    <defs></defs>
    <g id="Final---Version-1" stroke="none" stroke-width="1" fill="none" fill-rule="evenodd">
        <g id="Twitter" fill-rule="nonzero">
            <g id="Twit-Copy">
                <path d="M15.4171123,0.165648855 C23.89534,0.118320611 30.881589,7.12290076 30.763178,15.7366412 C30.644767,24.0900763 23.7058824,30.9763359 15.1329259,30.8343511 C6.89152024,30.6923664 0.0710466005,23.9480916 0.0710466005,15.4763359 C0.0710466005,7.00458015 6.91520244,0.165648855 15.4171123,0.165648855 Z M18.4721161,7.80916031 C16.5301757,9.13435115 15.7486631,11.2167939 14.9197861,13.2045802 C14.2330023,12.7076336 13.6172651,12.1633588 12.8831169,11.7610687 C11.8884645,11.2167939 10.8227655,10.7435115 9.75706646,10.270229 C8.92818946,9.91526718 8.07563025,9.60763359 7.17570665,9.22900763 C7.19938885,10.6251908 8.00458365,11.429771 9.04660046,12.0923664 C8.57295646,12.1633588 8.17035905,12.2343511 7.74407945,12.3053435 C8.00458365,13.6541985 8.97555386,14.2221374 10.2307105,14.6007634 C9.63865546,14.7427481 9.11764706,14.8137405 8.76241406,15.2633588 C9.35446906,16.3045802 10.3017571,16.659542 11.4858671,16.659542 C10.8227655,17.1091603 10.5859435,17.4167939 10.7043545,17.7480916 C10.9411765,18.5053435 11.6042781,18.5763359 12.2910619,18.6236641 C11.4621849,19.4519084 10.5385791,19.9961832 9.44919786,20.2564885 C7.55462185,20.729771 5.80213904,20.351145 4.16806723,19.2625954 C4.21543163,19.380916 4.28647823,19.4755725 4.35752483,19.570229 C5.09167303,20.4221374 5.94423224,21.1557252 6.89152024,21.7236641 C9.87547746,23.4984733 13.0725745,23.8061069 16.3880825,22.9305344 C19.0168067,22.2206107 21.2666157,20.8954198 22.8059587,18.6 C23.3743316,17.7717557 23.7532468,16.8251908 24.2268908,15.8549618 C25.07945,15.8312977 25.9793736,15.6419847 26.7845684,14.8610687 C26.2872422,14.8610687 25.908327,14.8847328 25.5057296,14.8610687 C25.1268144,14.8137405 24.7478992,14.719084 24.3453018,14.6480916 C25.2925898,14.4114504 26.1214668,14.0801527 26.6661574,13.1572519 C26.4766998,13.2045802 26.381971,13.2519084 26.26356,13.2755725 C25.6478228,13.3465649 25.0320856,13.4412214 24.4400306,13.4885496 C24.1558442,13.5122137 23.9900688,13.370229 23.89534,13.0389313 C23.4927426,11.2641221 21.8823529,9.03969466 19.0641711,8.99236641 C19.1588999,8.94503817 19.2062643,8.92137405 19.2536287,8.89770992 C19.6799083,8.75572519 20.1298701,8.63740458 20.5561497,8.47175573 C20.6982429,8.40076336 20.7929717,8.21145038 20.9113827,8.06946565 C20.7456073,8.0221374 20.5561497,7.90381679 20.3903743,7.92748092 C20.0588235,7.97480916 19.7272727,8.06946565 19.3720397,8.16412214 C19.5378151,7.97480916 19.7035905,7.78549618 19.8456837,7.61984733 C19.8220015,7.57251908 19.7983193,7.52519084 19.7509549,7.4778626 C19.2536287,7.69083969 18.7326203,7.90381679 18.2352941,8.14045802 C18.4010695,8.04580153 18.4484339,7.92748092 18.4721161,7.80916031 Z" id="Shape" fill="#7A7977"></path>
                <path d="M18.4721161,7.80916031 C18.4247517,7.92748092 18.4010695,8.0221374 18.3537051,8.14045802 C18.8510313,7.92748092 19.3720397,7.71450382 19.8693659,7.4778626 C19.8930481,7.52519084 19.9167303,7.57251908 19.9640947,7.61984733 C19.7983193,7.78549618 19.6562261,7.97480916 19.4904507,8.16412214 C19.8456837,8.06946565 20.1535523,7.97480916 20.5087853,7.92748092 C20.6745607,7.90381679 20.8640183,8.0221374 21.0297937,8.06946565 C20.9113827,8.21145038 20.8166539,8.42442748 20.6745607,8.47175573 C20.2482811,8.63740458 19.7983193,8.75572519 19.3720397,8.89770992 C19.3246753,8.92137405 19.2773109,8.94503817 19.1825821,8.99236641 C22.0007639,9.03969466 23.6111536,11.2641221 24.013751,13.0389313 C24.0847976,13.370229 24.250573,13.5122137 24.5584416,13.4885496 C25.1741788,13.4412214 25.789916,13.3465649 26.381971,13.2755725 C26.500382,13.2519084 26.618793,13.2045802 26.7845684,13.1572519 C26.2398778,14.1038168 25.4110008,14.4114504 24.4637128,14.6480916 C24.842628,14.719084 25.2215432,14.8374046 25.6241406,14.8610687 C26.0030558,14.9083969 26.4056532,14.8610687 26.9029794,14.8610687 C26.0741024,15.6419847 25.1741788,15.8549618 24.3453018,15.8549618 C23.8479756,16.8251908 23.4690604,17.7717557 22.9243697,18.6 C21.3613445,20.8717557 19.1352177,22.2206107 16.5064935,22.9305344 C13.1909855,23.8061069 9.99388846,23.4984733 7.00993125,21.7236641 C6.03896104,21.1557252 5.18640183,20.4221374 4.47593583,19.570229 C4.40488923,19.4755725 4.33384263,19.380916 4.28647823,19.2625954 C5.92055004,20.351145 7.64935065,20.7061069 9.56760886,20.2564885 C10.6569901,19.9961832 11.5805959,19.4519084 12.4094729,18.6236641 C11.6990069,18.5526718 11.0359053,18.5053435 10.8227655,17.7480916 C10.7280367,17.3931298 10.9411765,17.1091603 11.6042781,16.659542 C10.4201681,16.659542 9.47288006,16.3045802 8.88082506,15.2633588 C9.23605806,14.8137405 9.75706646,14.719084 10.3491215,14.6007634 C9.09396486,14.2221374 8.12299465,13.6778626 7.86249045,12.3053435 C8.28877005,12.2343511 8.69136746,12.1633588 9.16501146,12.0923664 C8.12299465,11.4061069 7.29411765,10.6251908 7.29411765,9.22900763 C8.19404125,9.58396947 9.04660046,9.89160305 9.87547746,10.270229 C10.9174943,10.7435115 11.9831933,11.1931298 13.0015279,11.7610687 C13.7119939,12.1633588 14.3514133,12.7076336 15.0381971,13.2045802 C15.7486631,11.2167939 16.5301757,9.13435115 18.4721161,7.80916031 Z" id="Shape" fill="#1E1C17"></path>
            </g>
        </g>
    </g>
</svg>