<?xml version="1.0" encoding="UTF-8"?>
<svg width="188px" height="517px" viewBox="0 0 188 517" version="1.1" xmlns="http://www.w3.org/2000/svg" xmlns:xlink="http://www.w3.org/1999/xlink">
    <!-- Generator: Sketch 48.2 (47327) - http://www.bohemiancoding.com/sketch -->
    <title>Website Development Service Page - Image How We do it - Tech Process - 188 x 517</title>
    <desc>Created with Sketch.</desc>
    <defs>
        <linearGradient x1="0%" y1="100%" x2="100%" y2="100%" id="linearGradient-1">
            <stop stop-color="#5D33E5" offset="0%"></stop>
            <stop stop-color="#58A1FF" offset="100%"></stop>
        </linearGradient>
        <linearGradient x1="0%" y1="100%" x2="102.793296%" y2="-10.6209159%" id="linearGradient-2">
            <stop stop-color="#5D33E5" offset="0%"></stop>
            <stop stop-color="#58A1FF" offset="100%"></stop>
        </linearGradient>
        <linearGradient x1="100%" y1="-6.81818202%" x2="-1.39664804%" y2="-6.81818202%" id="linearGradient-3">
            <stop stop-color="#5D33E5" offset="0%"></stop>
            <stop stop-color="#58A1FF" offset="100%"></stop>
        </linearGradient>
        <linearGradient x1="100%" y1="0%" x2="0%" y2="100%" id="linearGradient-4">
            <stop stop-color="#5D33E5" offset="0%"></stop>
            <stop stop-color="#58A1FF" offset="100%"></stop>
        </linearGradient>
        <circle id="path-5" cx="89.5" cy="89.5" r="89.5"></circle>
    </defs>
    <g id="Tech---Website-Develpment" stroke="none" stroke-width="1" fill="none" fill-rule="evenodd">
        <g id="Website-Development-Service-Page---Image-How-We-do-it---Tech-Process---188-x-517">
            <g id="TECH-PROCESS" transform="translate(1.000000, 1.000000)">
                <g id="Contact-Us---Home-Copy-9">
                    <path d="M184,62 L184,7 L7,7 L7,62 L184,62 Z" id="Combined-Shape" stroke="url(#linearGradient-1)" stroke-width="2"></path>
                    <polygon id="Rectangle-3" fill="url(#linearGradient-2)" points="179 57 0 57 0 -7.10542736e-15 179 2.05088471e-14"></polygon>
                    <text id="ANALYSIS-AND-QUICK-D" font-family="Khand-Semibold, Khand" font-size="22" font-weight="500" line-spacing="23" fill="#ECECEC">
                        <tspan x="24.072" y="26.0221558">ANALYSIS AND </tspan>
                        <tspan x="26.745" y="49.0221558">QUICK DESIGN</tspan>
                    </text>
                </g>
                <g id="Contact-Us---Home-Copy-10" transform="translate(0.000000, 356.000000)">
                    <path d="M8,7 L8,49 L185,49 L185,7 L8,7 Z" id="Combined-Shape" stroke="url(#linearGradient-3)" stroke-width="2" transform="translate(96.500000, 28.000000) rotate(-180.000000) translate(-96.500000, -28.000000) "></path>
                    <rect id="Rectangle-3" fill="url(#linearGradient-4)" transform="translate(89.500000, 22.000000) rotate(-180.000000) translate(-89.500000, -22.000000) " x="0" y="0" width="179" height="44"></rect>
                    <text id="TESTING" font-family="Khand-Semibold, Khand" font-size="22" font-weight="500" line-spacing="23" fill="#ECECEC">
                        <tspan x="48.228" y="30.0221558">TESTING</tspan>
                    </text>
                </g>
                <g id="Contact-Us---Home-Copy-11" transform="translate(0.000000, 465.000000)">
                    <path d="M8,7 L8,49 L185,49 L185,7 L8,7 Z" id="Combined-Shape" stroke="url(#linearGradient-3)" stroke-width="2" transform="translate(96.500000, 28.000000) rotate(-180.000000) translate(-96.500000, -28.000000) "></path>
                    <rect id="Rectangle-3" fill="url(#linearGradient-4)" transform="translate(89.500000, 22.000000) rotate(-180.000000) translate(-89.500000, -22.000000) " x="0" y="0" width="179" height="44"></rect>
                    <text id="IMPLEMENTATION" font-family="Khand-Semibold, Khand" font-size="22" font-weight="500" line-spacing="23" fill="#ECECEC">
                        <tspan x="11.62" y="30.0221558">IMPLEMENTATION</tspan>
                    </text>
                </g>
                <path d="M90.5,63.5 L90.5,116" id="Line-Copy-2" stroke="#5B69F2" stroke-width="2" stroke-linecap="square"></path>
                <path id="Line-Copy-2-decoration-1" d="M90.5,116 L93.5,105.2 L87.5,105.2 L90.5,116 Z" stroke="#5B69F2" stroke-width="2" stroke-linecap="square"></path>
                <path d="M91.5,299.5 L91.5,352" id="Line-Copy-4" stroke="#5B69F2" stroke-width="2" stroke-linecap="square"></path>
                <path id="Line-Copy-4-decoration-1" d="M91.5,352 L94.5,341.2 L88.5,341.2 L91.5,352 Z" stroke="#5B69F2" stroke-width="2" stroke-linecap="square"></path>
                <path d="M91.5,405.5 L91.5,462" id="Line-Copy-3" stroke="#5B66F1" stroke-width="2" fill="#000000" stroke-linecap="square"></path>
                <path id="Line-Copy-3-decoration-1" d="M91.5,462 L94.5,451.2 L88.5,451.2 L91.5,462 Z" stroke="#5B66F1" stroke-width="2" fill="#000000" stroke-linecap="square"></path>
                <g id="Group-2" transform="translate(0.000000, 120.000000)">
                    <g id="Group-Copy">
                        <g id="Oval-4" transform="translate(89.500000, 89.500000) rotate(-90.000000) translate(-89.500000, -89.500000) ">
                            <mask id="mask-6" fill="white">
                                <use xlink:href="#path-5"></use>
                            </mask>
                            <use id="Mask" fill="" xlink:href="#path-5"></use>
                            <circle fill="#FFFFFF" mask="url(#mask-6)" cx="90.5" cy="88.5" r="45.5"></circle>
                        </g>
                    </g>
                    <text id="PROTOTYPE-CYCLE-Copy" font-family="Khand-Semibold, Khand" font-size="14" font-weight="500" line-spacing="18" fill="#5B69F2">
                        <tspan x="55.074" y="89.0140991">PROTOTYPE </tspan>
                        <tspan x="68.633" y="107.014099">CYCLE</tspan>
                    </text>
                    <g id="Group" transform="translate(37.000000, 17.000000)" fill="#ECECEC" fill-rule="nonzero">
                        <path d="M0.6,20.8 L3.6,18.1 C4.5,17.3 5.3,16.9 6.2,17 C7.1,17 7.8,17.4 8.5,18.2 L10.7,20.7 C11.4,21.5 11.7,22.3 11.6,23.2 C11.5,24.1 11.1,24.9 10.2,25.7 L8.8,27 L12.1,30.6 L10.6,32 L0.6,20.8 Z M7.1,19.7 C6.3,18.9 5.5,18.8 4.7,19.6 L3.4,20.8 L7.7,25.6 L9,24.4 C9.9,23.6 9.9,22.8 9.2,21.9 L7.1,19.7 Z" id="Shape"></path>
                        <path d="M16.2,19.8 L19.3,24.7 L17.6,25.8 L9.6,13.2 L13,11.1 C14,10.5 14.9,10.2 15.7,10.4 C16.5,10.6 17.2,11.1 17.8,12 L19.1,14 C20,15.4 20,16.6 19.2,17.7 L24.5,21.6 L22.6,22.8 L17.7,19 L16.2,19.8 Z M12.3,13.7 L15.3,18.4 L16.8,17.5 C17.3,17.2 17.6,16.8 17.7,16.4 C17.8,16 17.7,15.6 17.4,15.1 L16.2,13.2 C15.6,12.3 14.8,12.1 13.8,12.7 L12.3,13.7 Z" id="Shape"></path>
                        <path d="M21.1,10.3 C20.7,9.3 20.6,8.3 21,7.5 C21.4,6.6 22.2,5.9 23.4,5.4 C24.6,4.9 25.7,4.8 26.5,5.2 C27.4,5.6 28,6.2 28.4,7.2 L31.5,14.7 C31.9,15.7 31.9,16.6 31.6,17.5 C31.2,18.4 30.4,19.1 29.2,19.6 C28,20.1 27,20.2 26.1,19.8 C25.2,19.4 24.6,18.8 24.2,17.8 L21.1,10.3 Z M26.6,8.1 C26.1,7 25.3,6.7 24.1,7.2 C22.9,7.7 22.6,8.5 23,9.6 L26.1,17 C26.6,18.1 27.4,18.4 28.6,18 C29.8,17.5 30.1,16.7 29.7,15.6 L26.6,8.1 Z" id="Shape"></path>
                        <polygon id="Shape" points="37.6 1.3 38 3.1 35.2 3.8 38.3 16.5 36.3 17 33.2 4.3 30.4 5 30 3.2"></polygon>
                        <path d="M41,4.2 C40.9,3.1 41.2,2.2 41.8,1.5 C42.4,0.8 43.4,0.4 44.7,0.3 C46,0.2 47,0.4 47.8,1 C48.5,1.6 48.9,2.5 49,3.5 L49.7,11.6 C49.8,12.7 49.5,13.6 48.9,14.3 C48.3,15 47.3,15.4 46,15.5 C44.7,15.6 43.7,15.4 43,14.8 C42.3,14.2 41.9,13.4 41.8,12.3 L41,4.2 Z M46.8,3.8 C46.7,2.6 46,2.1 44.7,2.2 C43.4,2.3 42.8,3 42.9,4.2 L43.6,12.1 C43.7,13.3 44.4,13.9 45.7,13.8 C47,13.7 47.6,13 47.5,11.8 L46.8,3.8 Z" id="Shape"></path>
                        <polygon id="Shape" points="59.3 0.5 59.2 2.3 56.4 2.1 55.6 15.2 53.5 15.1 54.3 2 51.5 1.8 51.6 0"></polygon>
                        <path d="M63.7,16.5 L61.7,16.1 L62.7,11.3 L61.2,0.8 L63.3,1.2 L63.8,4.9 C64,6.3 64.1,7.7 64.2,9.3 C64.9,8 65.6,6.7 66.3,5.5 L68.3,2.3 L70.3,2.7 L64.7,11.7 L63.7,16.5 Z" id="Shape"></path>
                        <path d="M73.4,3.7 L77.1,5.1 C78.2,5.5 78.9,6.1 79.3,6.9 C79.7,7.7 79.7,8.6 79.3,9.5 L78.1,12.6 C77.7,13.6 77.1,14.2 76.3,14.6 C75.5,14.9 74.6,14.9 73.5,14.5 L71.7,13.8 L69.9,18.4 L68,17.7 L73.4,3.7 Z M77.3,8.9 C77.7,7.8 77.4,7.1 76.3,6.7 L74.7,6.1 L72.4,12.1 L74,12.7 C75.1,13.1 75.8,12.8 76.3,11.7 L77.3,8.9 Z" id="Shape"></path>
                        <polygon id="Shape" points="83.7 8.1 85.5 9.1 78.5 22.3 76.7 21.3"></polygon>
                        <path d="M94.5,14.9 L96.2,16.1 L87.5,28.2 L85.7,26.9 C87.3,20.8 88.3,16.7 88.9,14.8 C88.8,14.9 88.6,15.2 88.4,15.7 C87.8,16.8 87,18 86.1,19.3 L82.3,24.5 L80.7,23.3 L89.4,11.2 L91.2,12.5 C89.8,17.9 89,21.2 88.6,22.5 C88.2,23.8 88,24.5 88,24.6 C88.1,24.5 88.4,23.9 89,22.9 C89.6,21.9 90.2,21 90.9,20.1 L94.5,14.9 Z" id="Shape"></path>
                        <path d="M97.2,21.3 C98,20.6 98.8,20.2 99.8,20.3 C100.7,20.4 101.7,21 102.8,22 C103.5,22.7 104.1,23.5 104.5,24.3 L103.1,25.7 C102.7,24.9 102.2,24.1 101.5,23.4 C100.4,22.3 99.5,22.1 98.7,22.9 L92.9,28.6 C92.1,29.3 92.2,30.2 93.1,31.1 C93.6,31.6 94.1,31.9 94.5,32 L98.4,28.2 L99.8,29.7 L95,34.4 C93.8,34 92.8,33.4 91.9,32.4 C91,31.5 90.5,30.5 90.4,29.6 C90.3,28.7 90.6,27.9 91.4,27.1 L97.2,21.3 Z" id="Shape"></path>
                    </g>
                    <g id="Group" transform="translate(111.000000, 105.000000)" fill="#ECECEC" fill-rule="nonzero">
                        <path d="M36,4.6 L30.6,2.5 L31.3,0.6 L45.2,5.9 L43.8,9.6 C43.4,10.7 42.8,11.4 42,11.8 C41.2,12.2 40.4,12.2 39.4,11.8 L37.2,11 C35.7,10.4 34.9,9.5 34.9,8.1 L28.4,8.1 L29.2,6 L35.4,6.1 L36,4.6 Z M42.8,7.3 L37.6,5.3 L37,6.9 C36.8,7.5 36.8,7.9 36.9,8.3 C37.1,8.7 37.4,8.9 37.9,9.1 L40,9.9 C41,10.3 41.7,9.9 42.2,8.9 L42.8,7.3 Z" id="Shape"></path>
                        <polygon id="Shape" points="40.6 17 37.2 22.9 35.6 22 38 17.9 34 15.6 31.9 19.2 30.3 18.3 32.4 14.7 28.2 12.3 25.8 16.4 24.2 15.5 27.6 9.6"></polygon>
                        <polygon id="Shape" points="35 26 30.9 31.2 29.5 30.1 32.3 26.6 28.4 23.5 25.8 26.9 24.3 25.8 26.9 22.4 22 18.5 23.3 16.9"></polygon>
                        <polygon id="Shape" points="28.8 33.3 27.3 34.8 16.7 24.3 18.2 22.8"></polygon>
                        <path d="M19.3,41.7 L17.7,43 L8.5,31.2 L10.2,29.8 C15.6,33 19.2,35.2 20.9,36.3 C20.8,36.2 20.6,35.9 20.2,35.6 C19.3,34.7 18.4,33.6 17.5,32.4 L13.5,27.3 L15.1,26.1 L24.3,37.9 L22.5,39.3 C17.7,36.5 14.8,34.7 13.7,34 C12.6,33.3 12,32.9 11.8,32.8 C11.9,32.9 12.3,33.4 13.1,34.3 C13.9,35.2 14.6,36 15.3,36.9 L19.3,41.7 Z" id="Shape"></path>
                        <polygon id="Shape" points="13.8 45.4 7.8 48.6 6.9 47 11.1 44.7 8.9 40.6 5.3 42.6 4.4 41 8 39 5.7 34.8 1.5 37.1 0.6 35.5 6.6 32.3"></polygon>
                    </g>
                    <g id="Group" transform="translate(23.000000, 111.000000)" fill="#ECECEC" fill-rule="nonzero">
                        <path d="M25.5,33.6 L26.2,32.5 C26.9,31.3 27.9,30.8 29,31.1 C28.2,30.2 28.2,29.1 29,27.8 L29.7,26.6 C30.3,25.7 31,25.1 31.8,24.9 C32.6,24.7 33.5,25 34.5,25.6 L38.2,27.9 L30.3,40.6 L26.7,38.4 C25.7,37.8 25.1,37 24.9,36.2 C24.7,35.4 24.9,34.5 25.5,33.6 Z M27.9,37 L29.5,38 L32,34 L30.4,33 C29.4,32.4 28.6,32.5 28,33.5 L27.3,34.6 C26.7,35.6 26.9,36.4 27.9,37 Z M31.4,27.8 L30.7,29 C30.1,30 30.3,30.8 31.3,31.4 L33,32.5 L35.5,28.4 L33.8,27.3 C32.8,26.7 32,26.8 31.4,27.8 Z" id="Shape"></path>
                        <path d="M15.7,29.9 L14.2,28.5 L21.9,19.9 C22.6,19.1 23.5,18.7 24.4,18.6 C25.3,18.5 26.3,19 27.3,19.8 C28.3,20.7 28.8,21.6 28.8,22.5 C28.9,23.4 28.5,24.3 27.8,25.1 L20.1,33.7 L18.6,32.3 L26.2,23.8 C27,22.9 26.9,22 26,21.2 C25.1,20.4 24.2,20.4 23.4,21.3 L15.7,29.9 Z" id="Shape"></path>
                        <polygon id="Shape" points="11.5 25.5 10.1 23.9 21.4 14.1 22.8 15.7"></polygon>
                        <polygon id="Shape" points="7.7 20.9 6.5 19.2 17.3 11.7 14.8 8.1 16.3 7.1 20 12.4"></polygon>
                        <path d="M2.4,12.8 L0.5,8.9 C-6.60712804e-15,7.8 -0.1,6.9 0.1,6.1 C0.4,5.3 1,4.7 1.9,4.2 L9.2,0.6 C10.2,0.1 11,2.22044605e-16 11.8,0.3 C12.6,0.6 13.3,1.2 13.8,2.3 L15.7,6.3 L2.4,12.8 Z M2.9,6.1 C1.9,6.6 1.7,7.4 2.2,8.4 L3.1,10.2 L13.3,5.2 L12.4,3.4 C11.9,2.4 11.1,2.1 10.1,2.6 L2.9,6.1 Z" id="Shape"></path>
                    </g>
                </g>
                <g id="chevron-left" transform="translate(152.585967, 206.147584) rotate(-91.000000) translate(-152.585967, -206.147584) translate(147.585967, 197.647584)" fill="#ECECEC">
                    <polygon id="Shape" points="9.90504759 2.5198477 8.08504759 0.699847695 0.285047594 8.4998477 8.08504759 16.2998477 9.90504759 14.4798477 3.92504759 8.4998477"></polygon>
                </g>
                <g id="chevron-left-copy-2" transform="translate(85.000000, 265.000000)" fill="#ECECEC">
                    <polygon id="Shape" points="9.90504759 2.5198477 8.08504759 0.699847695 0.285047594 8.4998477 8.08504759 16.2998477 9.90504759 14.4798477 3.92504759 8.4998477"></polygon>
                </g>
            </g>
        </g>
    </g>
</svg>